<?xml version="1.0" encoding="utf-8"?>
<!-- Generator: Adobe Illustrator 28.4.1, SVG Export Plug-In . SVG Version: 6.00 Build 0)  -->
<svg version="1.1" id="Layer_1" xmlns="http://www.w3.org/2000/svg" xmlns:xlink="http://www.w3.org/1999/xlink" x="0px" y="0px"
	 viewBox="0 0 936 276" style="enable-background:new 0 0 936 276;" xml:space="preserve">
<style type="text/css">
	.st0{clip-path:url(#SVGID_00000048481598888800632130000008425753625214330759_);}
	.st1{fill:#006CB7;}
	.st2{fill:#EF4044;}
	.st3{fill:#FFFFFF;}
</style>
<g>
	<defs>
		<rect id="SVGID_1_" x="19" y="32" width="236.7" height="213.1"/>
	</defs>
	<clipPath id="SVGID_00000109736567672334464500000009902555410030510979_">
		<use xlink:href="#SVGID_1_"  style="overflow:visible;"/>
	</clipPath>
	<g style="clip-path:url(#SVGID_00000109736567672334464500000009902555410030510979_);">
		<path class="st1" d="M116,32H19v213.1h97V32z"/>
		<path class="st2" d="M255.7,32H116v213.1h139.8V32z"/>
		<path class="st3" d="M134.6,233.7c-1.4,0.7-2.6,1-3.9,1c-3.2,0-4.6-2.2-4.6-5.5c0-3.2,1.6-5.3,4.9-5.3c1.6,0,2.6,0.4,3.5,0.9
			l-0.9,1.5c-0.6-0.4-1.5-0.7-2.6-0.7c-1.9,0-2.7,1.4-2.7,3.5c0,2.5,0.9,3.8,2.7,3.8c0.7,0,1.3-0.1,1.8-0.4v-1.9h-1.5l-0.1-1.5h3.4
			V233.7z"/>
		<path class="st3" d="M143.1,230.7c0,2.6-1.3,4-3.6,4c-2.3,0-3.6-1.4-3.6-4c0-2.2,1.2-3.9,3.6-3.9
			C141.9,226.8,143.1,228.5,143.1,230.7z M141,230.7c0-1.8-0.5-2.5-1.5-2.5c-1,0-1.5,0.6-1.5,2.5c0,1.8,0.5,2.5,1.5,2.5
			C140.5,233.2,141,232.5,141,230.7z"/>
		<path class="st3" d="M146.6,227.7c0.3-0.5,1.2-0.9,2-0.9c1.8,0,3.1,1.3,3.1,3.9c0,2.6-1.6,4-3.3,4c-1.1,0-1.7-0.4-2.2-1.1
			l-0.4,0.9h-1.1v-10.7h2v2.6L146.6,227.7z M146.7,232.4c0.3,0.4,0.8,0.8,1.4,0.8c0.9,0,1.5-0.6,1.5-2.5c0-1.8-0.6-2.4-1.5-2.4
			c-0.5,0-1.1,0.3-1.4,0.6V232.4z"/>
		<path class="st3" d="M153.8,234.5v-6.1l-0.9-0.2v-1.3h2.9v7.6H153.8z M153.8,223.8h2.1v1.8h-2.1V223.8z"/>
		<path class="st3" d="M159.5,231.3c0,1.2,0.7,1.9,2,1.9c0.8,0,1.6-0.3,2.2-0.7l0.4,1.4c-0.6,0.3-1.7,0.8-2.9,0.8
			c-2.4,0-3.8-1.5-3.8-4c0-2.3,1.1-3.9,3.6-3.9c2.3,0,3.2,1.7,3.2,3.6v0.9H159.5z M160.9,228.3c-1,0-1.4,0.9-1.4,1.8h2.8
			C162.3,229.1,161.9,228.3,160.9,228.3z"/>
		<path class="st3" d="M170.1,228.6c-0.2-0.1-0.6-0.1-1-0.1c-0.5,0-1,0.2-1.4,0.5v5.5h-2v-7.6h1.4c0.1,0.4,0.2,0.7,0.2,1h0.1
			c0.2-0.5,0.9-1.2,1.8-1.2c0.4,0,0.7,0.1,0.9,0.1C170.1,227.5,170.1,228,170.1,228.6z"/>
		<path class="st3" d="M176.1,234.5V230c0-1.1-0.4-1.7-1.4-1.7c-0.5,0-1,0.2-1.3,0.5v5.7h-2v-7.6h1.4l0.3,0.9c0.4-0.5,1.3-1,2.4-1
			c1.9,0,2.7,1.1,2.7,3v4.7H176.1z"/>
		<path class="st3" d="M186.7,230.7c0,2.6-1.3,4-3.6,4c-2.3,0-3.6-1.4-3.6-4c0-2.2,1.3-3.9,3.6-3.9
			C185.4,226.8,186.7,228.5,186.7,230.7z M184.6,230.7c0-1.8-0.5-2.5-1.5-2.5c-0.9,0-1.5,0.6-1.5,2.5c0,1.8,0.5,2.5,1.5,2.5
			C184.1,233.2,184.6,232.5,184.6,230.7z"/>
		<path class="st3" d="M196.6,227.5c-0.1-0.4-0.2-0.8-0.2-1.4v-2.3h2v10.7h-1.7l-0.2-0.8c-0.3,0.5-1,1-2,1c-1.7,0-3.1-1.2-3.1-3.9
			c0-2.5,1.4-3.9,3.3-3.9C195.5,226.8,196.1,227,196.6,227.5z M196.4,228.7c-0.3-0.2-0.8-0.4-1.4-0.4c-1,0-1.6,0.7-1.6,2.4
			c0,1.8,0.6,2.5,1.5,2.5c0.5,0,1-0.2,1.4-0.6V228.7z"/>
		<path class="st3" d="M202,231.3c0,1.2,0.7,1.9,2,1.9c0.8,0,1.6-0.3,2.2-0.7l0.4,1.4c-0.6,0.3-1.7,0.8-2.9,0.8
			c-2.4,0-3.8-1.5-3.8-4c0-2.3,1.1-3.9,3.6-3.9c2.3,0,3.2,1.7,3.2,3.6v0.9H202z M203.4,228.3c-1,0-1.4,0.9-1.4,1.8h2.8
			C204.8,229.1,204.5,228.3,203.4,228.3z"/>
		<path class="st3" d="M216,234.7c-3,0-4.5-2-4.5-5.5c0-3.2,1.6-5.4,4.5-5.4c1.4,0,2.7,0.3,3.6,0.9l-0.8,1.6
			c-0.5-0.4-1.5-0.7-2.6-0.7c-1.7,0-2.6,1.3-2.6,3.6c0,2.4,0.9,3.7,2.6,3.7c1,0,2.1-0.4,2.8-1l0.7,1.6
			C218.6,234.3,217.4,234.7,216,234.7z"/>
		<path class="st3" d="M221,234.5v-10.7h2v2.8c0,0.5-0.2,1-0.2,1.2c0.4-0.5,1.1-1,2.2-1c2.2,0,2.8,1.1,2.8,3v4.7h-2.1V230
			c0-0.2,0-0.4-0.1-0.5c-0.1-0.9-0.5-1.2-1.3-1.2c-0.5,0-1,0.2-1.3,0.5v5.7H221z"/>
		<path class="st3" d="M230.2,234.5v-6.1l-0.9-0.2v-1.3h2.9v7.6H230.2z M230.1,223.8h2.1v1.8h-2.1V223.8z"/>
		<path class="st3" d="M234,232.5v-8.7h2v8.5c0,0.6,0.4,0.7,1.2,0.7v1.4c0,0-0.6,0.1-1.1,0.1C234.6,234.7,234,233.8,234,232.5z"/>
		<path class="st3" d="M240.4,231.3c0,1.2,0.7,1.9,2,1.9c0.8,0,1.6-0.3,2.2-0.7l0.4,1.4c-0.6,0.3-1.6,0.8-2.9,0.8
			c-2.4,0-3.8-1.5-3.8-4c0-2.3,1.1-3.9,3.6-3.9c2.3,0,3.2,1.7,3.2,3.6v0.9H240.4z M241.8,228.3c-1,0-1.4,0.9-1.4,1.8h2.8
			C243.2,229.1,242.8,228.3,241.8,228.3z"/>
		<path class="st3" d="M69.5,61.2c0.2-0.2,0.7-0.6,0.3-1.3c-0.2-0.3-0.6-0.4-0.4-0.4c2.4-0.6,3.7-4.1,3.7-5.4
			c1.2,1.1,4.1,1.5,6.1-0.2c1.3-1.3,1.9-4.6-0.3-6.2c-1.1-0.8-3.2-0.9-4.5,0.1c-0.4-0.7-1.1-1.2-1.9-1.2c0-0.2,0-1.8-0.9-2.9
			c-1.2-1.3-4.6-1.4-5.9,0c-2.5-0.6-5.6,0.5-5.5,4.3c-1.7-0.7-2.7-0.7-3.6-0.6c-0.9,0.1-2,0.8-2.4,1.4c-0.2,0.2-0.4,0.6-0.5,0.8
			c-0.3,0.5-0.5,1.3-0.4,2.1c0.1,1.4,0.8,2.5,1.8,3c1.4,0.7,3.1,0.6,3.7,0.5c0.5-0.1,1-0.3,1.5-0.8c0.2-0.2,0.3-0.4,0.5-0.4
			c0,0.3-0.1,2.2,1.9,3c0,0.1,0,0.2,0.1,0.3c0.7,2.5,2.4,2.2,2.4,2.4c-0.8,0.5-0.4,1.1-0.3,1.5c1.2-0.4,2-0.4,2.3-0.4
			C67.5,60.8,68.4,60.9,69.5,61.2z"/>
		<path class="st3" d="M75.3,68.8c0-2.5,1.7-4.5,1.7-4.5c0.2-0.2,0.2-0.4,0.2-0.5c0-0.2-0.2-0.4-0.3-0.4c-0.5-0.3-1.6-1-1.6-1
			l-0.1-0.1h-0.1c-0.1,0-0.2,0.1-0.4,0.2c-0.3,0.2-0.9,0.7-1.9,0.7c-0.2,0-0.4,0-0.5,0c-0.5-0.1-1.4-0.5-1.4-0.5
			c-0.3-0.1-0.6-0.3-0.8-0.4l-0.1,0c-1.4-0.6-2.6-0.6-3-0.6c-0.3,0-1.5,0-3,0.6l-0.1,0c-0.1,0-0.2,0.1-0.4,0.2L63,62.8
			c-0.3,0.1-0.7,0.3-0.9,0.3c-0.2,0-0.4,0-0.5,0c-1,0-1.6-0.4-1.9-0.7c-0.2-0.1-0.2-0.2-0.4-0.2l-0.1,0l-0.1,0c0,0-1.1,0.7-1.6,1
			c-0.1,0-0.3,0.2-0.3,0.4c0,0.1,0,0.3,0.2,0.5c0.1,0.1,1.7,2,1.7,4.5c0,0.3,0.2,1.8-1.1,4c-0.1,0.1-1.5,2.7,0.1,5
			c0,0,1.2,2.1,4.6,2.1c0.3,0,2.8,0,3.7,1.7c0,0.1,0.4,0.7,0.6,1l0.2,0.4l0.2-0.4c0.2-0.3,0.6-0.9,0.6-1c0.9-1.6,3.4-1.6,3.7-1.6
			c3.4,0,4.6-2.1,4.6-2.1c1.6-2.3,0.1-5,0.1-5C75.1,70.7,75.2,69.1,75.3,68.8z M74,68.8l-4.4,3.1l1.7,5L67,73.7l-4.3,3.2l1.7-5
			L60,68.8l0,0h5.5l1.5-5l1.5,5L74,68.8L74,68.8z"/>
		<path class="st3" d="M104.9,89.7c-0.6-0.7-2-0.3-2-0.3c0.8-2.3-1.4-3-1.4-3c-0.8-0.2-1.3-0.1-1.6,0.2c0,0,0,0,0,0c0,0,0,0,0,0
			c-0.1,0-0.1,0.1-0.2,0.1c-0.2,0.2-0.3,0.5-0.3,0.8c0,0.6,0.5,1.1,1.1,1.1c0.2,0,0.5-0.1,0.7-0.2c0.2-0.2,0.4-0.4,0.4-0.7
			c0.3,0.2,0.4,0.5,0.4,0.5c0.6,2-1.6,2.7-1.6,2.7c-5,1.5-8-1.1-8-1.1l0.9-0.5c0.3-0.1,0.6-0.2,0.8-0.2c0,0,0,0.1,0,0.1
			c0,0.5,0.4,1,1,1s1-0.4,1-1c0-0.4-0.2-0.6-0.2-0.6c-0.6-0.9-2.6-0.3-2.6-0.3c0.7-1.6,0.1-2.8,0.1-2.8c-0.9-1.9-3.1-1.3-3.1-1.3
			c-0.8,0.2-0.9,0.9-0.9,0.9c-0.3,1.5,1,1.6,1,1.6c0.9,0,0.9-0.7,0.9-0.7c0.1-0.7-0.9-0.7-0.9-0.7c0.8-1.5,3.5,0.9,1.8,3.1
			c-0.2,0.2-0.3,0.1-0.3,0.1c-3.1-1.5-4.7-2.5-5.4-3.1c-0.1-0.8-0.8-1.3-0.7-1.5c0.1,0,0.6,0.2,0.8-0.2c0.1-0.1,0.3-1.5,0.5-2.4
			c2.8,1.2,5.1,0.9,5.6,0.7c0.2-0.1,0.4-0.3,0.4-0.6c0-1-2.7-7.1-2.7-9.3c1.3,0.6,2.1-1.3,2.3-1.9c1.7,0.8,2.3,16.6,3.6,17.2
			c0.7,0.3,0.9-0.8,1-1c2.1-7.1,2.2-13.9,2.1-16.2c-0.2-3.6-0.5-6.8-1.4-9.8c-0.5-1.8-1.6-5.6-4-6.1c-1.1-0.2-2,0.8-2,1.8
			c0,0.8,0.6,1.2,0.3,2c-0.3,0.5-0.6,1.1-0.8,1.7c-0.1,0.6,0.4,0.8,0.2,1.5c-0.8-0.1-1.2,0.6-2.4,0.2c0.8-0.4,0.8-2.6-0.2-3
			c-0.1-0.1-0.3-0.1-0.3-0.2c0,0,0.3-0.3,0.5-0.6c0.6-1.1,0.6-2.1,0.1-2.9c0.4,0,0.8-0.7,0.9-1.3l0,0c0,0,0,0,0,0v0
			c0-0.2,0-0.7,0.2-1.1c0.1-0.2,0-0.3-0.1-0.4c-0.1-0.1-0.3,0-0.4,0.2c-0.2,0.5-0.8,0.2-0.6-0.3c0.1-0.2,0-0.3-0.1-0.4
			c-0.1-0.1-0.3,0-0.4,0.1c-0.2,0.5-0.8,0.2-0.6-0.3c0.1-0.2,0-0.3-0.1-0.4c-0.1-0.1-0.3,0-0.4,0.1c-0.2,0.5-0.8,0.2-0.6-0.3
			c0.1-0.2,0-0.3-0.1-0.4c-0.1-0.1-0.3,0-0.4,0.1c-0.3,0.5-0.4,0.7-0.7,1c-0.5,0.1-0.4,0.7-0.3,1.1c-1-0.2-1.8,0.5-1.8,1.2h-0.1
			c-0.8,0-1.6,0.4-1.6,1.2c0,0.4,0.5,1,0.7,1c0.1,0,0-0.5,0.4-0.5c0.4,0,1,0.3,1.1,0.7c0.1,0.4-0.3,1.4,1.1,1.6c0,0,0,0.2,0,0.4
			c-0.5,0-0.6-0.1-1.1,0c-0.9,0.1-2,0.6-2.3,1.5c-0.1,0.1-0.1,0.4-0.1,0.6c0,0.2,0.2,0.4,0.2,0.6c0,0.1-0.2,0.3-0.3,0.4
			c-0.4,0.4-1,0.7-1.6,0.8c-0.7,0-1.3-0.4-1.5-0.7c-0.9-1.2,0.3-3.1,0.2-3.9c-0.1-2-2.6-0.8-3.6-0.3c-1.2,0.6-2.1,1.6-2.9,2.6
			c-0.4,0.5-0.9,1.2-1.2,1.8c0,0.1-0.1,0.1-0.2,0.1c0.5,0.2,1.4,0.6,2.1,0.6c0,0,1.4,0.2,2.4-0.6c0,0,0.1-0.1,0.3-0.1
			c0.1,0,0.3,0.1,0.4,0.2c0,0,0.1,0.1,0.3,0.2c0.1,0.1,0.2,0.2,0.3,0.2c0.1,0,0.1,0.1,0.2,0.1c0.2,0.1,0.3,0.3,0.5,0.4
			c0,0,0.1,0,0.1,0.1c0.2,0.1,0.4,0.3,0.6,0.4c0.2,0.2,0.4,0.3,0.5,0.4l0,0c0,0,0.1,0.1,0.1,0.1c0,0.1,0,0.2-0.1,0.2
			c0,0-0.1,0.1-0.3,0.3c-0.3,0.4-0.9,1.2-1.3,2.3c0.5,0.8,1.3,1.8,2.4,1.8c0.9,0,1.3-0.4,1.4-1c0,0,0.1,0.1,0.1,0.1
			c0.1-0.1,0.6,2.6,1.3,3.3c-0.6,0.3-1.6,1.2-1.1,3.9c-0.5-0.4-1.4-1.1-1.9-1.6c-0.3-0.5-0.8-1.8-2.3-2c0.2,0.7,0.5,1.4,1,2.2
			c0,0,0.9,1.7,0.6,3.6c0.6-0.6,0.5-2.4,0.5-2.4c0,0,0.1,0,0.1-0.1c0.1,0,0.8,1.2,1.9,1.5c1.4,2.4,3,3.9,4.6,4.9c0,0.6,0,2-0.3,2
			c-1.2,0.3-2.3-0.5-3.4-0.5c-0.1,0-0.2-0.1-0.2-0.1C77,80,70.9,84.8,69.9,85.7c-0.5,0.5-1.2-0.2-1.2-0.2c-0.4-0.5-0.8-0.7-1.3-0.6
			c-0.5-0.1-0.9,0.2-1.3,0.6c0,0-0.6,0.7-1.2,0.2c-1-0.9-6.5-5.1-11-3.7c0-0.2-0.6-0.4-0.8-0.4c-0.4-0.1-0.7-0.4-0.9-0.5
			c-0.5-0.2-1.3-0.1-1.8-0.2c-0.2,0-0.5-0.1-0.7-0.3c-0.7-0.4-1.5-1-2-1.6c-0.1-0.1-0.3-0.3-0.3-0.4c-0.2-0.3-0.3-0.5-0.5-0.9
			c-0.2-0.9,0.1-1.8,0.3-2.7c0.1-0.7,0.1-0.7,0.1-1.4c2.9-1,4-3.1,4.7-4.2c0.1-0.1,0.2-0.4,0.2-0.4c0.1,0,0.3,0,0.4,0
			c1.1,0,1.9-0.6,3.2-0.5c0,0.1,0.2,0.6,1,0.9c0,0.8,0.1,1.5,0.4,2.1c0.1,0.1,0.2,0.2,0.2,0.3c0.5-1.3,0.7-2.3,0.7-2.9
			c0-0.1-0.1-0.1-0.1-0.2c-0.3-1.4-0.9-1.8-1.5-2.1c-0.3-0.2-0.6-0.2-0.9-0.4c-0.4-0.3-0.9-0.6-1.2-1.2c0,0,0.1-0.1,0.3-0.3
			c0.8-0.8,1.2-2.1,1.5-3.4c0.6-0.8,2.3-0.5,3-0.4c0.2,0,0.4,0.1,0.6,0.2c0.2,0.1,0.2,0.4,0.5,0.5c0.3,0.1,0.6,0,0.9,0
			c0.1,0.1,0.2,0.3,0.3,0.5c0,0,0.1,0.2,0.3,0.3c0.8,0,1.9-0.4,2.3-0.7c-0.1,0-0.1-0.1-0.1-0.1c-0.4-0.5-0.9-0.9-1.4-1
			c-0.6-0.1-0.8-0.7-1.4-0.8c-0.2,0-0.7-0.1-0.9-0.1c-1.3,0.2-2.3-0.3-3.5-0.4c-1.2-0.1-1.2,0.7-1.7,1.4c-0.2,0.2-0.4,0.5-0.5,0.7
			c-0.3,0.3-0.7,0.3-1.1,0.6l-0.2-0.5c-0.1-0.4-0.3-0.8-0.5-1.2c-0.6-1-1.4-1.8-2.8-2.1c-0.3-0.1-0.3-0.1-0.5-0.3
			c-0.2-0.2-0.1-0.4,0-0.4c0.4-0.2,1.1-0.2,1.6-0.4c1.1-0.5,0.7-1.5,0.3-1.6c-0.6-0.1-1.6-0.4-1.8-0.5c-0.3-0.2-0.8-1-1.2-1.3
			c-0.5-0.1-0.3-1-0.8-1.1c-0.2,0-0.5,0.1-0.8,0.2c0-0.2-0.1-1.1-0.7-1.4c-0.4-0.2-0.5,0.1-0.5,0.3c0,0.2,0.6,0.5,0.7,1.3
			c-0.1,0.1-0.2,0.1-0.3,0.2c-0.1-0.4-0.2-0.9-0.6-1.1c-0.4-0.2-0.5,0.1-0.5,0.3c0,0.2,0.5,0.4,0.6,1.2c-0.1,0.1-0.2,0.2-0.3,0.3
			c-0.8-0.2-1-0.7-1.2-0.8c-0.2,0-0.6,0.1-0.4,0.5c0.2,0.4,0.8,0.6,1.1,0.7c-0.1,0.1-0.1,0.2-0.2,0.2c-0.9-0.2-1.1-0.8-1.3-0.8
			c-0.2,0-0.6,0.1-0.4,0.5c0.3,0.6,1.3,0.8,1.4,0.8c-0.1,0.2-0.2,0.5-0.2,0.6C43,55.7,41.7,56,42,56.8c0.2,0.2,1.1-0.5,1.8-0.1
			c0.5,0.8,1.3,0.8,1.5,0.9c0.3,0.2,0.3,0.6,0.5,1c0.2,0.7,0.7,1.2,1.1,1.8c0.4,0.6,0.9,1.3,1.3,1.9c0.1,0.2,0.1,0.3,0.1,0.6
			c-0.5,0.8-2,1.7-2.7,2.3c-0.6,0.6-6.6,5.1-7.4,7.1c-0.2,0.4-0.3,1-0.2,1.6c-0.4,0.2-1.2,0.5-1.4,0.2c-0.5-0.6,0.4-1.1,0.2-1.7
			c-0.1-0.2-0.4-0.4-0.7-0.2c-1.5,1.1-0.7,2.9,0.2,3.4c1,0.4,1.2-0.7,2-0.2c0.2,0.1,2.1,1.8,1.8,3.1c0,0.1-0.1,0.3-0.1,0.3
			c-0.4,0.5-1.1,0.9-1.6,1.4c-1,0.6,0.9,4.5,0.8,6.5c-0.1,0.8,0.6,0.7,1.1,1.9c-0.5,0-0.9,0.1-1.2,0.5c0,0-0.2,0.2-0.2,0.6
			c0,0.5,0.4,1,1,1c0.5,0,1-0.4,1-1c0-0.1,0-0.1,0-0.1c0.2,0,0.5,0,0.8,0.2l0.9,0.5c0,0-3.1,2.6-8,1.1c0,0-2.3-0.7-1.6-2.7
			c0,0,0.1-0.3,0.4-0.5c0.1,0.3,0.2,0.5,0.4,0.7c0.2,0.1,0.4,0.2,0.7,0.2c0.6,0,1.1-0.5,1.1-1.1c0-0.3-0.1-0.6-0.3-0.8
			c0,0-0.1-0.1-0.2-0.1c0,0,0,0,0,0c0,0,0,0,0,0c-0.3-0.2-0.9-0.4-1.6-0.2c0,0-2.2,0.6-1.4,3c0,0-1.5-0.3-2,0.3c0,0-0.2,0.2-0.2,0.6
			v0c0,0.1,0.1,0.3,0.2,0.5c0.2,0.2,0.4,0.4,0.7,0.4c0.3,0,0.5-0.1,0.7-0.3c0,0,0,0,0,0c0.1-0.1,0.2-0.2,0.5,0.1
			c3.3,3.4,8.7,2,11.7-0.3c0,0,1.7-1.7,3.5-2.7c0.7,0.3,1.5,0.5,2.2,0.8c-0.1,1.1,0.2,2.6,1.4,4.4c0,0-0.8,1.5-2.3,0.7
			c0,0-1.1-0.8-0.2-1.8c0,0,0.6-0.5,0.9,0.1c-0.3,0-0.6,0.3-0.6,0.6c0,0.3,0.3,0.6,0.6,0.6c0.3,0,0.6-0.2,0.6-0.5
			c0-0.2,0-0.8-0.5-1.3c0,0-0.5-0.5-1.3-0.4c-1.3,0.2-2,2.8,0.5,3.9c0,0,1.9,0.9,3-0.6c0,0,0-0.2,0.4,0.1c2.1,2,6.7,1.4,8.5,0.1
			c0,0,0.5-0.3,1-0.5c0,0.8,0.7,1.4,1.4,1.4c0.8,0,1.4-0.6,1.4-1.4c0-0.7-0.5-1.3-1.2-1.4c0,0-0.9-0.3-2.3,0.5c0,0-1.4,0.9-1.3,0.7
			c0.5-0.7,0.8-1.7,1-2.8c2,0.2,4.1,0.4,6.2,0.4c0,0.6-0.1,1.4-0.4,1.9c0,0-0.8,0.3-0.8,0.8c0,0-0.1,0.4,0.6,0.9c0,0,0.5,0.5,0.6,1
			c0,0,0,0.6,0.8,0.6c0.1,0,0.1,0,0.2,0c0.1,0,0.1,0,0.2,0c0.8,0,0.8-0.6,0.8-0.6c0.1-0.4,0.6-1,0.6-1c0.7-0.5,0.6-0.9,0.6-0.9
			c0-0.5-0.8-0.8-0.8-0.8c-0.2-0.6-0.3-1.3-0.3-1.9c2.1,0,4.2-0.2,6.2-0.4c0.2,1.1,0.5,2.1,1,2.8c0.1,0.1-1.3-0.7-1.3-0.7
			c-1.3-0.8-2.3-0.5-2.3-0.5c-0.7,0.1-1.2,0.7-1.2,1.4c0,0.8,0.6,1.4,1.4,1.4c0.8,0,1.4-0.6,1.4-1.4c0.5,0.2,1,0.5,1,0.5
			c1.8,1.3,6.4,1.9,8.5-0.1c0.4-0.4,0.4-0.1,0.4-0.1c1,1.4,3,0.6,3,0.6c2.5-1.1,1.8-3.7,0.5-3.9c-0.9-0.1-1.3,0.4-1.3,0.4
			c-0.5,0.4-0.5,1-0.5,1.3c0,0.3,0.3,0.5,0.6,0.5c0.3,0,0.6-0.3,0.6-0.6c0-0.3-0.2-0.6-0.6-0.6c0.3-0.6,0.9-0.1,0.9-0.1
			c0.9,1-0.2,1.8-0.2,1.8c-1.4,0.9-2.3-0.7-2.3-0.7c1.2-1.8,1.4-3.3,1.4-4.3c0.7-0.3,1.5-0.5,2.2-0.8c1.8,1,3.5,2.7,3.5,2.7
			c3,2.3,8.4,3.7,11.7,0.3c0.3-0.3,0.4-0.2,0.5-0.1c0,0,0,0,0,0c0.2,0.2,0.4,0.3,0.7,0.3c0.3,0,0.5-0.1,0.7-0.4
			c0.1-0.2,0.1-0.3,0.2-0.5v0C105.1,89.9,104.9,89.7,104.9,89.7z M43.2,88.7c0,0-0.2,0.1-0.3-0.1c-1.7-2.1,0.9-4.5,1.8-3.1
			c0,0-1,0-0.9,0.7c0,0,0,0.7,0.9,0.7c0,0,1.3-0.1,1-1.6c0,0-0.2-0.7-0.9-0.9c0,0-2.2-0.6-3.1,1.3c0,0-0.2,0.5-0.2,1.1
			c-0.3-0.2-0.5-0.4-0.9-0.4c-0.4-0.4-1.1-3.9-0.7-5.7c3.4-0.7,4.4-3.4,4.5-4.2c0.7,0.2,1.1,1,1.1,1.3c0.1,0.5-0.2,0.9,0.1,1.3
			c0.4,0.5,1.3,1,1.8,1.4c0.2,0.1,2.6,2,3,2.1c0.4,0.1,0.6-0.2,0.9-0.1c0.1,0,0.2,0.1,0.3,0.2c0,0,0.2,0.2,0.4,0.4
			c-0.6,0.4-1.5,1-2.6,2C49.3,85,48.5,86.1,43.2,88.7z M51.5,91c0,0-0.2,0.9-0.4,1.1c0,0-0.7-1.3-0.8-3c0.6,0.2,1.1,0.4,1.7,0.5
			C51.8,90.1,51.6,90.5,51.5,91z M58,94.1c0,0-3.5,1.4-5.9-1.1c0,0,0.2-1.5,0.8-3.1c2,0.5,4,0.9,6.1,1.1
			C58.9,92.4,58.6,94.1,58,94.1z M54.6,87.4c0.7-0.6,1.6-1.1,2.7-1.1c0,0,1.6,0,1.8,1.9C57.4,88,55.9,87.7,54.6,87.4z M58.1,85.2
			c-0.2,0-2.5,0.2-4.4,2c-1.1-0.3-2-0.5-2.7-0.8c0.2-0.3,0.3-0.6,0.5-0.9c0,0,3-3.6,8.3-1.6C59.9,84,59.5,84.9,58.1,85.2z
			 M60.5,88.4c0.2-2.1,0.4-3.9,1.2-3.9c0,0,0.6,0,0.9,0.5c0.7,0.9,2.5,2,3.3,3.7C64,88.7,62.1,88.6,60.5,88.4z M68.9,88.7
			c0.8-1.7,2.6-2.8,3.3-3.7c0.4-0.5,0.9-0.5,0.9-0.5c0.8,0,0.9,1.8,1.2,3.9C72.7,88.6,70.9,88.7,68.9,88.7z M75.1,84
			c5.3-2,8.3,1.6,8.3,1.6c0.2,0.3,0.4,0.6,0.5,0.9c-0.7,0.2-1.7,0.5-2.7,0.8c-1.9-1.8-4.2-1.9-4.4-2C75.3,84.9,75,84,75.1,84z
			 M77.6,86.3c1.1,0,2,0.5,2.7,1.1c-1.3,0.3-2.9,0.6-4.6,0.8C76,86.3,77.6,86.3,77.6,86.3z M76.8,94.1c-0.6-0.1-0.8-1.8-1-3.1
			c2.1-0.3,4.1-0.6,6.1-1.1c0.7,1.6,0.8,3.1,0.8,3.1C80.3,95.5,76.8,94.1,76.8,94.1z M83.8,92.2C83.6,92,83.4,91,83.4,91
			c-0.1-0.5-0.3-0.9-0.5-1.4c0.6-0.2,1.1-0.3,1.7-0.5C84.5,90.8,83.8,92.2,83.8,92.2z"/>
		<path class="st3" d="M138.4,56.2L138.2,45h-0.1c-0.2,1.4-0.5,2.4-0.7,3.2l-1.9,8h-3.8l-1.8-8c-0.2-0.8-0.4-1.8-0.7-3.2h-0.1
			L129,56.2h-2.4l0.5-13.2h4.4c0,0,1.5,6.7,2.2,10.9h0.1c0.9-4.2,2.6-10.9,2.6-10.9h4.4l0.5,13.2H138.4z"/>
		<path class="st3" d="M144.4,56.2v-7.7l-1.1-0.2v-1.6h3.7v9.6H144.4z M144.3,42.7h2.6V45h-2.6V42.7z"/>
		<path class="st3" d="M155.3,56.2v-5.7c0-1.4-0.6-2.1-1.7-2.1c-0.7,0-1.2,0.3-1.7,0.6v7.2h-2.6v-9.6h1.8l0.4,1.1
			c0.6-0.6,1.6-1.3,3.1-1.3c2.4,0,3.4,1.4,3.4,3.9v5.9H155.3z"/>
		<path class="st3" d="M160.8,56.2v-7.7l-1.1-0.2v-1.6h3.7v9.6H160.8z M160.7,42.7h2.6V45h-2.6V42.7z"/>
		<path class="st3" d="M168,49.1c0,1.5,4.2,1,4.2,4.2c0,1.7-1.3,3.1-3.8,3.1c-1.2,0-2.3-0.3-2.9-0.7l0.5-1.8
			c0.5,0.3,1.4,0.7,2.3,0.7c0.8,0,1.4-0.5,1.4-1.1c0-1.7-4.1-1.2-4.1-4.4c0-1.4,1.1-2.7,3.7-2.7c1,0,2.1,0.2,2.7,0.5l-0.4,1.9
			c-0.7-0.3-1.5-0.5-2.3-0.5C168.4,48.2,168,48.6,168,49.1z"/>
		<path class="st3" d="M177.8,56.4c-1.7,0-2.8-0.8-2.8-3.2v-4.8h-1.4v-1.8h1.4v-1.7l2.5-0.8v2.5h2.6v1.8h-2.6v4.7
			c0,0.7,0.3,1.1,1,1.1c0.5,0,1.1-0.2,1.5-0.4l0.4,1.9C179.8,56,178.8,56.4,177.8,56.4z"/>
		<path class="st3" d="M183.7,52.1c0,1.5,0.9,2.4,2.5,2.4c1,0,2-0.4,2.8-0.8l0.5,1.8c-0.8,0.4-2.1,0.9-3.7,0.9c-3,0-4.8-1.8-4.8-5
			c0-3,1.4-5,4.5-5c2.9,0,4.1,2.2,4.1,4.6v1.1H183.7z M185.5,48.3c-1.3,0-1.8,1.2-1.8,2.3h3.5C187.3,49.3,186.9,48.3,185.5,48.3z"/>
		<path class="st3" d="M197.2,48.7c-0.3-0.1-0.8-0.2-1.2-0.2c-0.7,0-1.3,0.3-1.7,0.6v7h-2.6v-9.6h1.8l0.3,1.3h0.1
			c0.3-0.7,1.2-1.5,2.3-1.5c0.5,0,0.9,0.1,1.1,0.1L197.2,48.7z"/>
		<path class="st3" d="M199.5,56.2v-7.7l-1.1-0.2v-1.6h3.7v9.6H199.5z M199.5,42.7h2.6V45h-2.6V42.7z"/>
		<path class="st3" d="M213.1,51.4c0,3.3-1.7,5-4.5,5c-2.9,0-4.5-1.7-4.5-5c0-2.8,1.6-5,4.5-5C211.5,46.4,213.1,48.5,213.1,51.4z
			 M210.5,51.4c0-2.3-0.7-3.1-1.9-3.1c-1.2,0-1.9,0.8-1.9,3.1c0,2.2,0.6,3.1,1.9,3.1C209.9,54.5,210.5,53.6,210.5,51.4z"/>
		<path class="st3" d="M225.7,47.3c-0.2-0.5-0.2-1-0.2-1.8v-2.9h2.6v13.5h-2.1l-0.3-1.1c-0.4,0.6-1.3,1.3-2.6,1.3
			c-2.2,0-3.9-1.6-3.9-5c0-3.2,1.8-5,4.2-5C224.3,46.4,225.1,46.7,225.7,47.3z M225.4,48.8c-0.4-0.2-1-0.5-1.8-0.5
			c-1.2,0-2,0.8-2,3.1c0,2.3,0.7,3.2,2,3.2c0.7,0,1.3-0.3,1.8-0.8V48.8z"/>
		<path class="st3" d="M232.6,52.1c0,1.5,0.9,2.4,2.5,2.4c1,0,2-0.4,2.8-0.8l0.5,1.8c-0.8,0.4-2.1,0.9-3.7,0.9c-3,0-4.8-1.8-4.8-5
			c0-3,1.4-5,4.5-5c2.9,0,4.1,2.2,4.1,4.6v1.1H232.6z M234.4,48.3c-1.3,0-1.8,1.2-1.8,2.3h3.5C236.1,49.3,235.7,48.3,234.4,48.3z"/>
		<path class="st3" d="M126.7,73.6v-11h2.5v10.8c0,0.8,0.5,0.9,1.6,0.9v1.8c0,0-0.8,0.2-1.4,0.2C127.5,76.3,126.7,75.3,126.7,73.6z"
			/>
		<path class="st3" d="M138.5,76.1l-0.4-1.1c-0.5,0.7-1.5,1.3-2.8,1.3c-1.9,0-3.2-1.2-3.2-3.1c0-1.8,1.3-2.8,3.7-2.8h2v-0.5
			c0-1.2-0.7-1.6-1.7-1.6c-1.1,0-2.1,0.3-2.9,0.6l-0.7-1.8c1-0.4,2.3-0.8,3.8-0.8c2.7,0,3.9,1.3,3.9,3.7v6.1H138.5z M137.8,71.9
			h-1.6c-1.1,0-1.6,0.5-1.6,1.2c0,0.9,0.5,1.4,1.4,1.4c0.6,0,1.2-0.3,1.7-0.6V71.9z"/>
		<path class="st3" d="M144.7,69c0,1.5,4.2,1,4.2,4.2c0,1.7-1.3,3.1-3.8,3.1c-1.2,0-2.3-0.3-2.9-0.7l0.5-1.8
			c0.5,0.3,1.4,0.7,2.3,0.7c0.8,0,1.4-0.5,1.4-1.1c0-1.7-4.1-1.2-4.1-4.4c0-1.4,1.1-2.7,3.7-2.7c1,0,2.1,0.2,2.7,0.5l-0.4,1.9
			c-0.7-0.3-1.5-0.5-2.3-0.5C145.2,68.2,144.7,68.5,144.7,69z"/>
		<path class="st3" d="M160.8,76.3c-3.8,0-5.8-2.5-5.8-6.9c0-4.1,2-6.7,5.8-6.7c1.8,0,3.5,0.4,4.5,1.1l-1,2.1
			c-0.7-0.5-1.9-0.9-3.3-0.9c-2.2,0-3.3,1.5-3.3,4.4c0,3.1,1.1,4.6,3.3,4.6c1.3,0,2.6-0.5,3.5-1.2l0.8,2.1
			C164,75.8,162.5,76.3,160.8,76.3z"/>
		<path class="st3" d="M173.6,76.1l-0.4-1.2c-0.5,0.6-1.5,1.4-3,1.4c-2.4,0-3.5-1.3-3.5-4v-5.8h2.6v5.8c0,1.5,0.5,2,1.7,2
			c0.7,0,1.3-0.3,1.7-0.6v-7.3h2.6v9.6H173.6z"/>
		<path class="st3" d="M177.4,73.6v-11h2.5v10.8c0,0.8,0.5,0.9,1.6,0.9v1.8c0,0-0.8,0.2-1.4,0.2C178.1,76.3,177.4,75.3,177.4,73.6z"
			/>
		<path class="st3" d="M186.8,76.3c-1.7,0-2.8-0.8-2.8-3.2v-4.8h-1.4v-1.8h1.4v-1.7l2.5-0.8v2.5h2.6v1.8h-2.6V73
			c0,0.7,0.3,1.1,1,1.1c0.5,0,1.1-0.2,1.5-0.4l0.4,1.9C188.8,76,187.8,76.3,186.8,76.3z"/>
		<path class="st3" d="M197.8,76.1l-0.4-1.2c-0.5,0.6-1.5,1.4-3,1.4c-2.4,0-3.5-1.3-3.5-4v-5.8h2.6v5.8c0,1.5,0.5,2,1.7,2
			c0.7,0,1.3-0.3,1.7-0.6v-7.3h2.6v9.6H197.8z"/>
		<path class="st3" d="M207.1,68.7c-0.3-0.1-0.8-0.2-1.2-0.2c-0.7,0-1.3,0.3-1.7,0.6v7h-2.6v-9.6h1.8l0.3,1.3h0.1
			c0.3-0.7,1.2-1.5,2.3-1.5c0.5,0,0.9,0.1,1.1,0.1L207.1,68.7z"/>
		<path class="st3" d="M214.5,76.1l-0.4-1.1c-0.5,0.7-1.5,1.3-2.8,1.3c-1.9,0-3.2-1.2-3.2-3.1c0-1.8,1.3-2.8,3.7-2.8h2v-0.5
			c0-1.2-0.7-1.6-1.7-1.6c-1.1,0-2.1,0.3-2.9,0.6l-0.7-1.8c1-0.4,2.3-0.8,3.8-0.8c2.7,0,3.9,1.3,3.9,3.7v6.1H214.5z M213.7,71.9
			h-1.6c-1.1,0-1.6,0.5-1.6,1.2c0,0.9,0.5,1.4,1.4,1.4c0.6,0,1.2-0.3,1.7-0.6V71.9z"/>
		<path class="st3" d="M220.7,69c0,1.5,4.2,1,4.2,4.2c0,1.7-1.3,3.1-3.8,3.1c-1.2,0-2.2-0.3-2.9-0.7l0.5-1.8
			c0.5,0.3,1.4,0.7,2.3,0.7c0.8,0,1.4-0.5,1.4-1.1c0-1.7-4.1-1.2-4.1-4.4c0-1.4,1.1-2.7,3.7-2.7c1,0,2.1,0.2,2.7,0.5l-0.4,1.9
			c-0.7-0.3-1.5-0.5-2.3-0.5C221.1,68.2,220.7,68.5,220.7,69z"/>
		<path class="st3" d="M226.7,73.4h2.6v2.9c0,1.6-0.9,2.3-2.6,2.5v-1.3c0.4-0.1,0.6-0.4,0.6-1.3l-0.6-0.3V73.4z"/>
		<path class="st3" d="M126.7,93.5v-11h2.5v10.8c0,0.8,0.5,0.9,1.6,0.9v1.8c0,0-0.8,0.2-1.4,0.2C127.5,96.2,126.7,95.2,126.7,93.5z"
			/>
		<path class="st3" d="M138.5,96.1l-0.4-1.1c-0.5,0.7-1.5,1.3-2.8,1.3c-1.9,0-3.2-1.2-3.2-3.1c0-1.8,1.3-2.8,3.7-2.8h2v-0.5
			c0-1.2-0.7-1.6-1.7-1.6c-1.1,0-2.1,0.3-2.9,0.6l-0.7-1.8c1-0.4,2.3-0.8,3.8-0.8c2.7,0,3.9,1.3,3.9,3.7v6.1H138.5z M137.8,91.9
			h-1.6c-1.1,0-1.6,0.5-1.6,1.2c0,0.9,0.5,1.4,1.4,1.4c0.6,0,1.2-0.3,1.7-0.6V91.9z"/>
		<path class="st3" d="M144.7,89c0,1.5,4.2,1,4.2,4.2c0,1.7-1.3,3.1-3.8,3.1c-1.2,0-2.3-0.3-2.9-0.7l0.5-1.8
			c0.5,0.3,1.4,0.7,2.3,0.7c0.8,0,1.4-0.5,1.4-1.1c0-1.7-4.1-1.2-4.1-4.4c0-1.4,1.1-2.7,3.7-2.7c1,0,2.1,0.2,2.7,0.5l-0.4,1.9
			c-0.7-0.3-1.5-0.5-2.3-0.5C145.2,88.1,144.7,88.4,144.7,89z"/>
		<path class="st3" d="M156.9,96.1h-2.5l3.6-13.2h4.3l3.5,13.2h-2.9l-0.7-3h-4.6L156.9,96.1z M159.6,85.1l-1.5,5.9h3.6l-1.4-5.9
			H159.6z"/>
		<path class="st3" d="M172.7,88.6c-0.3-0.1-0.8-0.2-1.2-0.2c-0.7,0-1.3,0.3-1.7,0.6v7h-2.6v-9.6h1.8l0.3,1.3h0.1
			c0.3-0.7,1.2-1.5,2.3-1.5c0.5,0,0.9,0.1,1.1,0.1L172.7,88.6z"/>
		<path class="st3" d="M177.8,96.2c-1.7,0-2.8-0.8-2.8-3.2v-4.8h-1.4v-1.8h1.4v-1.7l2.5-0.8v2.5h2.6v1.8h-2.6V93
			c0,0.7,0.3,1.1,1,1.1c0.5,0,1.1-0.2,1.5-0.4l0.4,1.9C179.9,95.9,178.9,96.2,177.8,96.2z"/>
		<path class="st3" d="M183.8,91.9c0,1.5,0.9,2.4,2.5,2.4c1,0,2-0.4,2.8-0.8l0.5,1.8c-0.8,0.4-2.1,0.9-3.7,0.9c-3,0-4.8-1.8-4.8-5
			c0-3,1.4-5,4.5-5c2.9,0,4.1,2.2,4.1,4.6v1.1H183.8z M185.6,88.1c-1.3,0-1.8,1.2-1.8,2.3h3.5C187.3,89.2,187,88.1,185.6,88.1z"/>
		<path class="st3" d="M194,89c0,1.5,4.2,1,4.2,4.2c0,1.7-1.3,3.1-3.8,3.1c-1.2,0-2.3-0.3-2.9-0.7l0.5-1.8c0.5,0.3,1.4,0.7,2.3,0.7
			c0.8,0,1.4-0.5,1.4-1.1c0-1.7-4.1-1.2-4.1-4.4c0-1.4,1.1-2.7,3.7-2.7c1,0,2.1,0.2,2.7,0.5l-0.4,1.9c-0.7-0.3-1.5-0.5-2.3-0.5
			C194.5,88.1,194,88.4,194,89z"/>
		<path class="st3" d="M208.3,95.8l-1.8,0.3l-2.9-9.7h2.9l2.1,8h0l2.1-8h2.6l-3,9.8c-0.8,2.8-2.2,3.8-4.2,3.8c-1.1,0-2.3-0.6-2.7-1
			l0.8-1.7h0.2c0.1,0.1,0.9,0.7,1.8,0.7c1,0,1.7-0.7,2.1-1.9L208.3,95.8z"/>
		<path class="st3" d="M221.2,91.9c0,1.5,0.9,2.4,2.5,2.4c1,0,2-0.4,2.8-0.8l0.5,1.8c-0.8,0.4-2.1,0.9-3.7,0.9c-3,0-4.8-1.8-4.8-5
			c0-3,1.4-5,4.5-5c2.9,0,4.1,2.2,4.1,4.6v1.1H221.2z M223,88.1c-1.3,0-1.8,1.2-1.8,2.3h3.5C224.7,89.2,224.3,88.1,223,88.1z"/>
		<path class="st3" d="M229.2,93.5v-11h2.5v10.8c0,0.8,0.5,0.9,1.6,0.9v1.8c0,0-0.8,0.2-1.4,0.2C229.9,96.2,229.2,95.2,229.2,93.5z"
			/>
		<path class="st3" d="M130.8,111.4h-1.5v4.6h-2.6v-13.2h4c2.7,0,5.1,1.3,5.1,4.1C135.9,109.5,134,111.4,130.8,111.4z M130.8,105
			h-1.4v4.4h1.4c1.5,0,2.4-0.9,2.4-2.4C133.2,105.7,132.3,105,130.8,105z"/>
		<path class="st3" d="M142.9,116l-0.4-1.1c-0.5,0.7-1.5,1.3-2.8,1.3c-1.9,0-3.2-1.2-3.2-3.1c0-1.8,1.3-2.8,3.7-2.8h2v-0.5
			c0-1.2-0.7-1.6-1.7-1.6c-1.1,0-2.1,0.3-2.9,0.6l-0.7-1.8c1-0.4,2.3-0.8,3.8-0.8c2.7,0,3.9,1.3,3.9,3.7v6.1H142.9z M142.2,111.8
			h-1.6c-1.1,0-1.6,0.5-1.6,1.2c0,0.9,0.5,1.4,1.4,1.4c0.6,0,1.2-0.3,1.7-0.6V111.8z"/>
		<path class="st3" d="M150.5,116.2c-1.7,0-2.8-0.8-2.8-3.2v-4.8h-1.4v-1.8h1.4v-1.7l2.5-0.8v2.5h2.6v1.8h-2.6v4.7
			c0,0.7,0.3,1.1,1,1.1c0.5,0,1.1-0.2,1.5-0.4l0.4,1.9C152.5,115.9,151.5,116.2,150.5,116.2z"/>
		<path class="st3" d="M160.2,108.5c-0.3-0.1-0.8-0.2-1.2-0.2c-0.7,0-1.3,0.3-1.7,0.6v7h-2.6v-9.6h1.8l0.3,1.3h0.1
			c0.3-0.7,1.2-1.5,2.3-1.5c0.5,0,0.9,0.1,1.1,0.1L160.2,108.5z"/>
		<path class="st3" d="M162.6,116v-7.7l-1.1-0.2v-1.6h3.7v9.6H162.6z M162.5,102.5h2.6v2.3h-2.6V102.5z"/>
		<path class="st3" d="M176.1,110.1v5.9h-2.6v-5.7c0-1.4-0.5-2.1-1.7-2.1c-0.7,0-1.2,0.3-1.6,0.6v7.2h-2.6v-9.6h1.7l0.4,1.1
			c0.6-0.7,1.5-1.3,2.9-1.3c1.6,0,2.5,0.5,3,1.4c0.6-0.7,1.6-1.4,2.9-1.4c2.8,0,3.6,1.4,3.6,3.9v5.9h-2.6v-5.7
			c0-1.4-0.6-2.1-1.8-2.1c-0.6,0-1.2,0.3-1.6,0.6C176,109.1,176.1,109.6,176.1,110.1z"/>
		<path class="st3" d="M192.8,111.2c0,3.3-1.7,5-4.5,5c-2.9,0-4.5-1.7-4.5-5c0-2.8,1.6-5,4.5-5C191.2,106.2,192.8,108.4,192.8,111.2
			z M190.2,111.2c0-2.3-0.7-3.1-1.9-3.1c-1.2,0-1.9,0.8-1.9,3.1c0,2.2,0.6,3.1,1.9,3.1C189.5,114.3,190.2,113.5,190.2,111.2z"/>
		<path class="st3" d="M200.8,116v-5.7c0-1.4-0.6-2.1-1.7-2.1c-0.7,0-1.2,0.3-1.7,0.6v7.2h-2.6v-9.6h1.8l0.4,1.1
			c0.6-0.6,1.6-1.3,3.1-1.3c2.4,0,3.4,1.4,3.4,3.9v5.9H200.8z"/>
		<path class="st3" d="M206.3,116v-7.7l-1.1-0.2v-1.6h3.7v9.6H206.3z M206.2,102.5h2.6v2.3h-2.6V102.5z"/>
		<path class="st3" d="M219.9,111.2c0,3.3-1.7,5-4.5,5c-2.9,0-4.5-1.7-4.5-5c0-2.8,1.6-5,4.5-5C218.3,106.2,219.9,108.4,219.9,111.2
			z M217.2,111.2c0-2.3-0.7-3.1-1.9-3.1c-1.2,0-1.9,0.8-1.9,3.1c0,2.2,0.6,3.1,1.9,3.1S217.2,113.5,217.2,111.2z"/>
	</g>
</g>
<g>
	<path class="st3" d="M345.3,53c4.1,0,7,0.8,8.9,2.4c1.9,1.6,2.8,3.9,2.8,6.8c0,1.3-0.2,2.6-0.7,3.8c-0.4,1.2-1.1,2.2-2.1,3.2
		c-1,0.9-2.3,1.6-3.9,2.2c-1.6,0.5-3.5,0.8-5.8,0.8h-3.8v12.4H337V53H345.3z M344.9,56.1h-4.2v12.8h3.4c2,0,3.7-0.2,5-0.6
		c1.4-0.4,2.4-1.1,3-2.1c0.7-1,1-2.3,1-3.9c0-2.1-0.7-3.7-2-4.7C349.9,56.6,347.8,56.1,344.9,56.1z M373.8,60.4c0.5,0,1,0,1.5,0.1
		c0.5,0,1,0.1,1.4,0.2l-0.5,3.3c-0.4-0.1-0.8-0.2-1.3-0.2c-0.5-0.1-0.9-0.1-1.3-0.1c-0.9,0-1.8,0.2-2.7,0.6
		c-0.8,0.4-1.6,0.9-2.2,1.6c-0.6,0.7-1.1,1.6-1.5,2.6c-0.4,1-0.5,2.1-0.5,3.3v12.7h-3.6V60.9h3l0.4,4.4h0.2c0.5-0.9,1.1-1.7,1.8-2.4
		c0.7-0.7,1.5-1.3,2.4-1.7C371.6,60.6,372.7,60.4,373.8,60.4z M401.5,72.6c0,1.9-0.3,3.7-0.8,5.2c-0.5,1.5-1.2,2.8-2.2,3.9
		c-0.9,1-2.1,1.9-3.4,2.4c-1.3,0.5-2.9,0.8-4.5,0.8c-1.6,0-3-0.3-4.4-0.8c-1.3-0.6-2.4-1.4-3.4-2.4c-0.9-1-1.7-2.3-2.2-3.9
		c-0.5-1.5-0.8-3.3-0.8-5.2c0-2.6,0.4-4.8,1.3-6.6c0.9-1.8,2.1-3.2,3.8-4.2c1.6-1,3.6-1.4,5.8-1.4c2.2,0,4,0.5,5.6,1.4
		c1.6,1,2.9,2.4,3.8,4.2C401,67.9,401.5,70.1,401.5,72.6z M383.5,72.6c0,1.9,0.3,3.5,0.8,4.9c0.5,1.4,1.3,2.5,2.3,3.2
		c1,0.8,2.4,1.1,4.1,1.1c1.6,0,3-0.4,4-1.1c1.1-0.8,1.8-1.8,2.4-3.2c0.5-1.4,0.8-3,0.8-4.9c0-1.9-0.3-3.5-0.8-4.9
		c-0.5-1.4-1.3-2.4-2.3-3.2c-1-0.7-2.4-1.1-4.1-1.1c-2.5,0-4.3,0.8-5.4,2.4C384.1,67.5,383.5,69.8,383.5,72.6z M403.9,60.9h3.8
		l5.2,13.7c0.3,0.8,0.6,1.6,0.8,2.3c0.3,0.7,0.5,1.4,0.7,2.1c0.2,0.7,0.4,1.3,0.5,2h0.2c0.2-0.7,0.5-1.7,0.9-2.8
		c0.4-1.2,0.8-2.4,1.2-3.6l4.9-13.7h3.9L415.7,88c-0.5,1.5-1.2,2.7-1.9,3.8c-0.7,1.1-1.6,1.9-2.6,2.5c-1,0.6-2.3,0.9-3.8,0.9
		c-0.7,0-1.3,0-1.8-0.1c-0.5-0.1-1-0.2-1.3-0.3v-2.9c0.3,0.1,0.7,0.1,1.1,0.2c0.5,0.1,0.9,0.1,1.4,0.1c0.9,0,1.7-0.2,2.3-0.5
		c0.7-0.3,1.2-0.8,1.7-1.5s0.9-1.4,1.2-2.3l1.3-3.3L403.9,60.9z M438.9,60.4c2,0,3.7,0.4,5.2,1.3c1.4,0.9,2.5,2.1,3.3,3.8
		c0.8,1.6,1.1,3.5,1.1,5.6v2.2h-16.3c0,2.8,0.7,4.9,2.1,6.3c1.3,1.5,3.2,2.2,5.6,2.2c1.5,0,2.8-0.1,4-0.4c1.1-0.3,2.3-0.7,3.6-1.2
		v3.1c-1.2,0.5-2.4,0.9-3.6,1.2c-1.2,0.2-2.5,0.4-4.1,0.4c-2.3,0-4.3-0.5-5.9-1.4c-1.7-0.9-3-2.3-3.9-4.1c-0.9-1.8-1.4-4-1.4-6.6
		c0-2.5,0.4-4.7,1.3-6.6c0.9-1.9,2.1-3.3,3.6-4.3C434.9,60.9,436.8,60.4,438.9,60.4z M438.8,63.4c-1.9,0-3.4,0.6-4.6,1.9
		c-1.1,1.2-1.8,3-2,5.2h12.5c0-1.4-0.2-2.6-0.7-3.7c-0.4-1.1-1.1-1.9-1.9-2.5C441.3,63.7,440.2,63.4,438.8,63.4z M464,84.9
		c-2.1,0-4-0.4-5.6-1.3c-1.6-0.9-2.9-2.2-3.8-4c-0.9-1.8-1.4-4.1-1.4-6.8c0-2.9,0.5-5.2,1.4-7c1-1.8,2.3-3.2,4-4.1
		c1.7-0.9,3.6-1.3,5.7-1.3c1.2,0,2.3,0.1,3.4,0.4c1.1,0.2,2,0.5,2.7,0.9l-1.1,3c-0.7-0.3-1.6-0.5-2.5-0.8c-0.9-0.2-1.8-0.3-2.6-0.3
		c-1.6,0-3,0.4-4.1,1.1c-1.1,0.7-1.9,1.7-2.4,3.1c-0.5,1.4-0.8,3-0.8,5c0,1.9,0.3,3.5,0.8,4.9c0.5,1.4,1.3,2.4,2.3,3.1
		c1,0.7,2.4,1.1,3.9,1.1c1.2,0,2.4-0.1,3.4-0.4c1-0.3,1.9-0.6,2.7-0.9v3.2c-0.8,0.4-1.7,0.7-2.7,0.9C466.5,84.8,465.4,84.9,464,84.9
		z M483.4,82c0.6,0,1.2-0.1,1.8-0.2c0.6-0.1,1.1-0.2,1.5-0.4v2.8c-0.4,0.2-1,0.3-1.7,0.5c-0.7,0.1-1.5,0.2-2.2,0.2
		c-1.2,0-2.4-0.2-3.4-0.6c-1-0.4-1.8-1.2-2.5-2.2c-0.6-1-0.9-2.5-0.9-4.4v-14h-3.4v-1.7l3.4-1.4l1.4-5.1h2.2v5.5h6.9v2.8h-6.9v13.9
		c0,1.5,0.3,2.6,1,3.3C481.3,81.6,482.3,82,483.4,82z M511.9,72.6c0,1.9-0.3,3.7-0.8,5.2c-0.5,1.5-1.2,2.8-2.2,3.9
		c-0.9,1-2.1,1.9-3.5,2.4c-1.3,0.5-2.9,0.8-4.5,0.8c-1.6,0-3-0.3-4.4-0.8c-1.3-0.6-2.4-1.4-3.4-2.4c-0.9-1-1.7-2.3-2.2-3.9
		c-0.5-1.5-0.8-3.3-0.8-5.2c0-2.6,0.4-4.8,1.3-6.6c0.9-1.8,2.1-3.2,3.8-4.2c1.6-1,3.6-1.4,5.8-1.4c2.2,0,4,0.5,5.6,1.4
		c1.6,1,2.9,2.4,3.8,4.2C511.4,67.9,511.9,70.1,511.9,72.6z M493.9,72.6c0,1.9,0.3,3.5,0.8,4.9c0.5,1.4,1.3,2.5,2.3,3.2
		c1,0.8,2.4,1.1,4.1,1.1c1.6,0,3-0.4,4-1.1c1.1-0.8,1.8-1.8,2.3-3.2c0.5-1.4,0.8-3,0.8-4.9c0-1.9-0.3-3.5-0.8-4.9
		c-0.5-1.4-1.3-2.4-2.3-3.2c-1-0.7-2.4-1.1-4.1-1.1c-2.5,0-4.3,0.8-5.4,2.4C494.5,67.5,493.9,69.8,493.9,72.6z M540,63.7h-5.9v20.8
		h-3.6V63.7h-4.2v-1.7l4.2-1.2v-1.6c0-2,0.3-3.6,0.9-4.8c0.6-1.2,1.4-2.2,2.6-2.8c1.1-0.6,2.5-0.9,4.1-0.9c0.9,0,1.7,0.1,2.5,0.2
		c0.8,0.2,1.4,0.3,2,0.5l-0.9,2.8c-0.5-0.2-1-0.3-1.7-0.4c-0.6-0.1-1.2-0.2-1.9-0.2c-1.4,0-2.4,0.4-3,1.3c-0.6,0.9-1,2.3-1,4.1v1.7
		h5.9V63.7z M548,60.9v23.6h-3.6V60.9H548z M546.2,52c0.6,0,1.1,0.2,1.5,0.6c0.4,0.4,0.6,1,0.6,1.8c0,0.8-0.2,1.4-0.6,1.8
		c-0.4,0.4-0.9,0.6-1.5,0.6c-0.6,0-1.1-0.2-1.6-0.6c-0.4-0.4-0.6-1-0.6-1.8c0-0.8,0.2-1.4,0.6-1.8C545.1,52.2,545.6,52,546.2,52z
		 M566.7,60.4c2.8,0,4.9,0.7,6.4,2.1c1.4,1.4,2.2,3.6,2.2,6.6v15.4h-3.5V69.3c0-2-0.5-3.4-1.4-4.4c-0.9-1-2.3-1.5-4.1-1.5
		c-2.6,0-4.5,0.7-5.5,2.2c-1.1,1.5-1.6,3.6-1.6,6.4v12.4h-3.6V60.9h2.9l0.5,3.4h0.2c0.5-0.8,1.1-1.5,1.9-2.1c0.8-0.6,1.6-1,2.6-1.3
		C564.6,60.6,565.6,60.4,566.7,60.4z M591.4,60.5c2.8,0,4.9,0.6,6.3,1.9c1.4,1.3,2,3.3,2,6.1v16.1h-2.6l-0.7-3.5h-0.2
		c-0.7,0.9-1.4,1.6-2.1,2.2c-0.7,0.6-1.6,1-2.5,1.3c-0.9,0.3-2.1,0.4-3.4,0.4c-1.4,0-2.7-0.3-3.8-0.8c-1.1-0.5-2-1.3-2.6-2.3
		c-0.6-1-0.9-2.3-0.9-3.9c0-2.4,0.9-4.2,2.8-5.4c1.9-1.3,4.7-2,8.5-2.1l4.1-0.2v-1.4c0-2-0.4-3.5-1.3-4.3s-2.1-1.2-3.7-1.2
		c-1.2,0-2.4,0.2-3.5,0.5c-1.1,0.4-2.2,0.8-3.2,1.3l-1.1-2.7c1.1-0.5,2.3-1,3.7-1.4C588.5,60.7,589.9,60.5,591.4,60.5z M596.2,72.8
		l-3.6,0.2c-2.9,0.1-5,0.6-6.2,1.4c-1.2,0.8-1.8,2-1.8,3.6c0,1.4,0.4,2.3,1.2,3c0.8,0.6,1.9,1,3.3,1c2.1,0,3.8-0.6,5.2-1.7
		c1.3-1.2,2-2.9,2-5.2V72.8z M618.3,60.4c2.8,0,4.9,0.7,6.4,2.1c1.4,1.4,2.2,3.6,2.2,6.6v15.4h-3.5V69.3c0-2-0.5-3.4-1.4-4.4
		c-0.9-1-2.3-1.5-4.1-1.5c-2.6,0-4.5,0.7-5.5,2.2c-1.1,1.5-1.6,3.6-1.6,6.4v12.4h-3.6V60.9h2.9l0.5,3.4h0.2c0.5-0.8,1.1-1.5,1.9-2.1
		c0.8-0.6,1.6-1,2.6-1.3C616.2,60.6,617.2,60.4,618.3,60.4z M643.7,84.9c-2.1,0-4-0.4-5.6-1.3c-1.6-0.9-2.9-2.2-3.8-4
		c-0.9-1.8-1.4-4.1-1.4-6.8c0-2.9,0.5-5.2,1.4-7c1-1.8,2.3-3.2,4-4.1c1.7-0.9,3.6-1.3,5.7-1.3c1.2,0,2.3,0.1,3.4,0.4
		c1.1,0.2,2,0.5,2.7,0.9l-1.1,3c-0.7-0.3-1.6-0.5-2.5-0.8c-0.9-0.2-1.8-0.3-2.6-0.3c-1.6,0-3,0.4-4.1,1.1c-1.1,0.7-1.9,1.7-2.4,3.1
		c-0.5,1.4-0.8,3-0.8,5c0,1.9,0.3,3.5,0.8,4.9c0.5,1.4,1.3,2.4,2.3,3.1c1,0.7,2.4,1.1,3.9,1.1c1.2,0,2.4-0.1,3.4-0.4
		c1-0.3,1.9-0.6,2.7-0.9v3.2c-0.8,0.4-1.7,0.7-2.7,0.9C646.2,84.8,645,84.9,643.7,84.9z M658.9,60.9v23.6h-3.6V60.9H658.9z
		 M657.2,52c0.6,0,1.1,0.2,1.5,0.6c0.4,0.4,0.6,1,0.6,1.8c0,0.8-0.2,1.4-0.6,1.8c-0.4,0.4-0.9,0.6-1.5,0.6c-0.6,0-1.1-0.2-1.6-0.6
		c-0.4-0.4-0.6-1-0.6-1.8c0-0.8,0.2-1.4,0.6-1.8C656.1,52.2,656.6,52,657.2,52z M675.4,60.5c2.8,0,4.9,0.6,6.3,1.9
		c1.4,1.3,2,3.3,2,6.1v16.1h-2.6l-0.7-3.5h-0.2c-0.7,0.9-1.3,1.6-2.1,2.2c-0.7,0.6-1.6,1-2.5,1.3c-0.9,0.3-2.1,0.4-3.4,0.4
		c-1.4,0-2.7-0.3-3.8-0.8c-1.1-0.5-2-1.3-2.6-2.3c-0.6-1-0.9-2.3-0.9-3.9c0-2.4,0.9-4.2,2.8-5.4c1.9-1.3,4.7-2,8.5-2.1l4.1-0.2v-1.4
		c0-2-0.4-3.5-1.3-4.3c-0.9-0.8-2.1-1.2-3.7-1.2c-1.2,0-2.4,0.2-3.5,0.5c-1.1,0.4-2.2,0.8-3.2,1.3l-1.1-2.7c1.1-0.5,2.3-1,3.7-1.4
		C672.4,60.7,673.9,60.5,675.4,60.5z M680.2,72.8l-3.6,0.2c-2.9,0.1-5,0.6-6.2,1.4c-1.2,0.8-1.8,2-1.8,3.6c0,1.4,0.4,2.3,1.2,3
		c0.8,0.6,1.9,1,3.3,1c2.1,0,3.8-0.6,5.2-1.7c1.3-1.2,2-2.9,2-5.2V72.8z M699.5,84.9c-3,0-5.4-1-7.1-3.1c-1.7-2-2.6-5.1-2.6-9.1
		c0-4.1,0.9-7.1,2.7-9.2c1.8-2.1,4.2-3.1,7.1-3.1c1.2,0,2.3,0.2,3.3,0.5c0.9,0.3,1.7,0.8,2.4,1.3c0.7,0.5,1.2,1.2,1.7,1.9h0.3
		c-0.1-0.4-0.1-1.1-0.2-1.8c-0.1-0.8-0.1-1.4-0.1-1.9v-9.5h3.6v33.5h-2.9l-0.5-3.4h-0.2c-0.4,0.7-1,1.3-1.7,1.9
		c-0.7,0.6-1.5,1-2.4,1.4C701.9,84.8,700.8,84.9,699.5,84.9z M700,81.9c2.5,0,4.3-0.7,5.4-2.2c1-1.4,1.6-3.6,1.6-6.4v-0.6
		c0-3-0.5-5.3-1.5-6.9c-1-1.6-2.8-2.4-5.4-2.4c-2.2,0-3.8,0.8-4.9,2.5c-1.1,1.7-1.6,4-1.6,6.9c0,2.9,0.5,5.1,1.6,6.7
		C696.2,81.2,697.8,81.9,700,81.9z M738.5,72.6c0,1.9-0.3,3.7-0.8,5.2c-0.5,1.5-1.2,2.8-2.2,3.9c-0.9,1-2.1,1.9-3.4,2.4
		c-1.3,0.5-2.9,0.8-4.5,0.8c-1.6,0-3-0.3-4.4-0.8c-1.3-0.6-2.4-1.4-3.4-2.4c-0.9-1-1.7-2.3-2.2-3.9c-0.5-1.5-0.8-3.3-0.8-5.2
		c0-2.6,0.4-4.8,1.3-6.6c0.9-1.8,2.1-3.2,3.8-4.2c1.6-1,3.6-1.4,5.8-1.4c2.2,0,4,0.5,5.6,1.4c1.6,1,2.9,2.4,3.8,4.2
		C738,67.9,738.5,70.1,738.5,72.6z M720.5,72.6c0,1.9,0.3,3.5,0.8,4.9c0.5,1.4,1.3,2.5,2.3,3.2c1,0.8,2.4,1.1,4.1,1.1
		c1.6,0,3-0.4,4-1.1c1.1-0.8,1.8-1.8,2.3-3.2c0.5-1.4,0.8-3,0.8-4.9c0-1.9-0.3-3.5-0.8-4.9c-0.5-1.4-1.3-2.4-2.3-3.2
		c-1-0.7-2.4-1.1-4.1-1.1c-2.5,0-4.3,0.8-5.4,2.4C721.1,67.5,720.5,69.8,720.5,72.6z M767.2,60.4c2.9,0,5.3,1,7,3
		c1.8,2,2.6,5.1,2.6,9.1c0,2.7-0.4,4.9-1.2,6.8c-0.8,1.8-1.9,3.2-3.4,4.1c-1.5,0.9-3.2,1.4-5.2,1.4c-1.2,0-2.3-0.2-3.3-0.5
		c-0.9-0.3-1.8-0.8-2.4-1.3c-0.7-0.6-1.2-1.2-1.7-1.8h-0.3c0,0.6,0.1,1.2,0.2,2c0.1,0.8,0.1,1.5,0.1,2.1V95h-3.6V60.9h3l0.5,3.5h0.2
		c0.5-0.7,1-1.4,1.7-2c0.7-0.6,1.5-1.1,2.4-1.4C764.8,60.6,765.9,60.4,767.2,60.4z M766.6,63.4c-1.6,0-3,0.3-4,0.9
		c-1,0.6-1.7,1.6-2.2,2.8c-0.5,1.2-0.7,2.8-0.7,4.7v0.7c0,2,0.2,3.7,0.6,5.1c0.4,1.4,1.2,2.4,2.2,3.1c1,0.7,2.4,1.1,4.1,1.1
		c1.5,0,2.7-0.4,3.7-1.2c1-0.8,1.7-1.9,2.2-3.3c0.5-1.4,0.7-3.1,0.7-4.9c0-2.8-0.5-5-1.6-6.6C770.5,64.3,768.8,63.4,766.6,63.4z
		 M803.5,72.6c0,1.9-0.3,3.7-0.8,5.2c-0.5,1.5-1.2,2.8-2.2,3.9c-0.9,1-2.1,1.9-3.4,2.4c-1.3,0.5-2.9,0.8-4.5,0.8
		c-1.6,0-3-0.3-4.4-0.8c-1.3-0.6-2.4-1.4-3.4-2.4c-0.9-1-1.7-2.3-2.2-3.9c-0.5-1.5-0.8-3.3-0.8-5.2c0-2.6,0.4-4.8,1.3-6.6
		c0.9-1.8,2.1-3.2,3.8-4.2c1.6-1,3.6-1.4,5.8-1.4c2.2,0,4,0.5,5.6,1.4c1.6,1,2.9,2.4,3.8,4.2C803.1,67.9,803.5,70.1,803.5,72.6z
		 M785.6,72.6c0,1.9,0.3,3.5,0.8,4.9c0.5,1.4,1.3,2.5,2.3,3.2c1,0.8,2.4,1.1,4.1,1.1c1.6,0,3-0.4,4-1.1c1.1-0.8,1.8-1.8,2.3-3.2
		c0.5-1.4,0.8-3,0.8-4.9c0-1.9-0.3-3.5-0.8-4.9c-0.5-1.4-1.3-2.4-2.3-3.2c-1-0.7-2.4-1.1-4.1-1.1c-2.5,0-4.3,0.8-5.4,2.4
		C786.1,67.5,785.6,69.8,785.6,72.6z M820.5,60.4c0.5,0,1,0,1.5,0.1c0.5,0,1,0.1,1.4,0.2l-0.5,3.3c-0.4-0.1-0.8-0.2-1.3-0.2
		c-0.5-0.1-0.9-0.1-1.3-0.1c-0.9,0-1.8,0.2-2.7,0.6c-0.8,0.4-1.6,0.9-2.2,1.6c-0.6,0.7-1.1,1.6-1.5,2.6c-0.4,1-0.5,2.1-0.5,3.3v12.7
		h-3.6V60.9h3l0.4,4.4h0.2c0.5-0.9,1.1-1.7,1.8-2.4c0.7-0.7,1.5-1.3,2.4-1.7C818.3,60.6,819.3,60.4,820.5,60.4z M848.3,60.4
		c2,0,3.7,0.4,5.2,1.3c1.4,0.9,2.5,2.1,3.3,3.8c0.8,1.6,1.1,3.5,1.1,5.6v2.2h-16.3c0,2.8,0.7,4.9,2.1,6.3c1.3,1.5,3.2,2.2,5.6,2.2
		c1.5,0,2.8-0.1,4-0.4c1.1-0.3,2.3-0.7,3.6-1.2v3.1c-1.2,0.5-2.4,0.9-3.6,1.2c-1.2,0.2-2.5,0.4-4.1,0.4c-2.3,0-4.3-0.5-6-1.4
		c-1.7-0.9-3-2.3-3.9-4.1c-0.9-1.8-1.4-4-1.4-6.6c0-2.5,0.4-4.7,1.3-6.6c0.9-1.9,2.1-3.3,3.6-4.3C844.4,60.9,846.2,60.4,848.3,60.4z
		 M848.3,63.4c-1.9,0-3.4,0.6-4.6,1.9c-1.1,1.2-1.8,3-2,5.2h12.5c0-1.4-0.2-2.6-0.7-3.7c-0.4-1.1-1.1-1.9-1.9-2.5
		C850.8,63.7,849.7,63.4,848.3,63.4z M867.6,84.5H864V50.9h3.6V84.5z M340.7,144.5H337V113h17.5v3.2h-13.9v11.6h13v3.2h-13V144.5z
		 M379.7,132.6c0,1.9-0.3,3.7-0.8,5.2c-0.5,1.5-1.2,2.8-2.2,3.9c-0.9,1-2.1,1.9-3.5,2.4c-1.3,0.5-2.9,0.8-4.5,0.8
		c-1.6,0-3-0.3-4.4-0.8c-1.3-0.6-2.4-1.4-3.4-2.4c-0.9-1-1.7-2.3-2.2-3.9c-0.5-1.5-0.8-3.3-0.8-5.2c0-2.6,0.4-4.8,1.3-6.6
		c0.9-1.8,2.1-3.2,3.8-4.2c1.6-1,3.6-1.4,5.8-1.4c2.2,0,4,0.5,5.6,1.4c1.6,1,2.9,2.4,3.8,4.2C379.2,127.9,379.7,130.1,379.7,132.6z
		 M361.7,132.6c0,1.9,0.3,3.5,0.8,4.9c0.5,1.4,1.3,2.5,2.3,3.2c1,0.8,2.4,1.1,4.1,1.1c1.6,0,3-0.4,4-1.1c1.1-0.8,1.8-1.8,2.4-3.2
		c0.5-1.4,0.8-3,0.8-4.9c0-1.9-0.3-3.5-0.8-4.9c-0.5-1.4-1.3-2.4-2.3-3.2c-1-0.7-2.4-1.1-4.1-1.1c-2.5,0-4.3,0.8-5.4,2.4
		C362.3,127.5,361.7,129.8,361.7,132.6z M397,120.4c2.8,0,4.9,0.7,6.4,2.1c1.4,1.4,2.2,3.6,2.2,6.6v15.4H402v-15.2
		c0-2-0.5-3.4-1.4-4.4c-0.9-1-2.3-1.5-4.1-1.5c-2.6,0-4.5,0.7-5.5,2.2c-1.1,1.5-1.6,3.6-1.6,6.4v12.4h-3.6v-23.6h2.9l0.5,3.4h0.2
		c0.5-0.8,1.1-1.5,1.9-2.1c0.8-0.6,1.6-1,2.6-1.3C395,120.6,396,120.4,397,120.4z M421.3,144.9c-3,0-5.4-1-7.1-3.1
		c-1.7-2-2.6-5.1-2.6-9.1c0-4.1,0.9-7.1,2.7-9.2c1.8-2.1,4.2-3.1,7.1-3.1c1.2,0,2.3,0.2,3.3,0.5c0.9,0.3,1.7,0.8,2.4,1.3
		c0.7,0.5,1.2,1.2,1.7,1.9h0.3c-0.1-0.4-0.1-1.1-0.2-1.8c-0.1-0.8-0.1-1.4-0.1-1.9v-9.5h3.6v33.5h-2.9l-0.5-3.4h-0.2
		c-0.4,0.7-1,1.3-1.7,1.9c-0.7,0.6-1.5,1-2.4,1.4C423.7,144.8,422.6,144.9,421.3,144.9z M421.9,141.9c2.5,0,4.3-0.7,5.4-2.2
		c1-1.4,1.6-3.6,1.6-6.4v-0.6c0-3-0.5-5.3-1.5-6.9c-1-1.6-2.8-2.4-5.4-2.4c-2.2,0-3.8,0.8-4.9,2.5c-1.1,1.7-1.6,4-1.6,6.9
		c0,2.9,0.5,5.1,1.6,6.7C418,141.2,419.7,141.9,421.9,141.9z M460.3,132.6c0,1.9-0.3,3.7-0.8,5.2c-0.5,1.5-1.2,2.8-2.2,3.9
		c-0.9,1-2.1,1.9-3.4,2.4c-1.3,0.5-2.9,0.8-4.5,0.8c-1.6,0-3-0.3-4.4-0.8c-1.3-0.6-2.4-1.4-3.4-2.4c-0.9-1-1.7-2.3-2.2-3.9
		c-0.5-1.5-0.8-3.3-0.8-5.2c0-2.6,0.4-4.8,1.3-6.6c0.9-1.8,2.1-3.2,3.8-4.2c1.6-1,3.6-1.4,5.8-1.4c2.2,0,4,0.5,5.6,1.4
		c1.6,1,2.9,2.4,3.8,4.2C459.9,127.9,460.3,130.1,460.3,132.6z M442.4,132.6c0,1.9,0.3,3.5,0.8,4.9c0.5,1.4,1.3,2.5,2.3,3.2
		c1,0.8,2.4,1.1,4.1,1.1c1.6,0,3-0.4,4-1.1c1.1-0.8,1.8-1.8,2.4-3.2c0.5-1.4,0.8-3,0.8-4.9c0-1.9-0.3-3.5-0.8-4.9
		c-0.5-1.4-1.3-2.4-2.3-3.2c-1-0.7-2.4-1.1-4.1-1.1c-2.5,0-4.3,0.8-5.4,2.4C442.9,127.5,442.4,129.8,442.4,132.6z M489.1,120.4
		c2.9,0,5.3,1,7,3s2.6,5.1,2.6,9.1c0,2.7-0.4,4.9-1.2,6.8c-0.8,1.8-1.9,3.2-3.4,4.1c-1.5,0.9-3.2,1.4-5.2,1.4
		c-1.3,0-2.3-0.2-3.3-0.5c-0.9-0.3-1.8-0.8-2.4-1.3c-0.7-0.6-1.2-1.2-1.7-1.8h-0.3c0,0.6,0.1,1.2,0.2,2c0.1,0.8,0.1,1.5,0.1,2.1v9.7
		H478v-34.2h3l0.5,3.5h0.2c0.5-0.7,1-1.4,1.7-2c0.7-0.6,1.5-1.1,2.4-1.4C486.7,120.6,487.8,120.4,489.1,120.4z M488.5,123.4
		c-1.6,0-3,0.3-4,0.9c-1,0.6-1.7,1.6-2.2,2.8c-0.5,1.2-0.7,2.8-0.7,4.7v0.7c0,2,0.2,3.7,0.6,5.1c0.4,1.4,1.2,2.4,2.2,3.1
		c1,0.7,2.4,1.1,4.1,1.1c1.5,0,2.7-0.4,3.7-1.2c1-0.8,1.7-1.9,2.2-3.3c0.5-1.4,0.7-3.1,0.7-4.9c0-2.8-0.5-5-1.6-6.6
		C492.4,124.3,490.7,123.4,488.5,123.4z M513.9,120.5c2.8,0,4.9,0.6,6.3,1.9c1.4,1.3,2,3.3,2,6.1v16.1h-2.6l-0.7-3.5h-0.2
		c-0.7,0.9-1.4,1.6-2.1,2.2c-0.7,0.6-1.6,1-2.5,1.3c-0.9,0.3-2.1,0.4-3.4,0.4c-1.4,0-2.7-0.3-3.8-0.8c-1.1-0.5-2-1.3-2.6-2.3
		c-0.6-1-0.9-2.3-0.9-3.9c0-2.4,0.9-4.2,2.8-5.4c1.9-1.3,4.7-2,8.5-2.1l4.1-0.2v-1.4c0-2-0.4-3.5-1.3-4.3c-0.9-0.8-2.1-1.2-3.7-1.2
		c-1.2,0-2.4,0.2-3.5,0.5c-1.1,0.4-2.2,0.8-3.2,1.3l-1.1-2.7c1.1-0.5,2.3-1,3.7-1.4C510.9,120.7,512.3,120.5,513.9,120.5z
		 M518.7,132.8l-3.6,0.2c-2.9,0.1-5,0.6-6.2,1.4c-1.2,0.8-1.8,2-1.8,3.6c0,1.4,0.4,2.3,1.2,3c0.8,0.6,1.9,1,3.3,1
		c2.1,0,3.8-0.6,5.2-1.7c1.3-1.2,2-2.9,2-5.2V132.8z M540.3,120.4c0.5,0,1,0,1.5,0.1c0.5,0,1,0.1,1.4,0.2l-0.5,3.3
		c-0.4-0.1-0.8-0.2-1.3-0.2c-0.5-0.1-0.9-0.1-1.3-0.1c-0.9,0-1.8,0.2-2.7,0.6c-0.8,0.4-1.6,0.9-2.2,1.6c-0.6,0.7-1.1,1.6-1.5,2.6
		c-0.4,1-0.5,2.1-0.5,3.3v12.7h-3.6v-23.6h3l0.4,4.4h0.2c0.5-0.9,1.1-1.7,1.8-2.4c0.7-0.7,1.5-1.3,2.4-1.7
		C538.2,120.6,539.2,120.4,540.3,120.4z M556.5,120.5c2.8,0,4.9,0.6,6.3,1.9c1.4,1.3,2,3.3,2,6.1v16.1h-2.6l-0.7-3.5h-0.2
		c-0.7,0.9-1.4,1.6-2.1,2.2c-0.7,0.6-1.6,1-2.5,1.3c-0.9,0.3-2.1,0.4-3.4,0.4c-1.4,0-2.7-0.3-3.8-0.8c-1.1-0.5-2-1.3-2.6-2.3
		c-0.6-1-0.9-2.3-0.9-3.9c0-2.4,0.9-4.2,2.8-5.4c1.9-1.3,4.7-2,8.5-2.1l4.1-0.2v-1.4c0-2-0.4-3.5-1.3-4.3s-2.1-1.2-3.7-1.2
		c-1.2,0-2.4,0.2-3.5,0.5c-1.1,0.4-2.2,0.8-3.2,1.3l-1.1-2.7c1.1-0.5,2.3-1,3.7-1.4C553.5,120.7,554.9,120.5,556.5,120.5z
		 M561.3,132.8l-3.6,0.2c-2.9,0.1-5,0.6-6.2,1.4c-1.2,0.8-1.8,2-1.8,3.6c0,1.4,0.4,2.3,1.2,3c0.8,0.6,1.9,1,3.3,1
		c2.1,0,3.8-0.6,5.2-1.7c1.3-1.2,2-2.9,2-5.2V132.8z M592.7,120.4c2,0,3.7,0.4,5.2,1.3c1.4,0.9,2.5,2.1,3.3,3.8
		c0.8,1.6,1.1,3.5,1.1,5.6v2.2H586c0,2.8,0.7,4.9,2.1,6.3c1.3,1.5,3.2,2.2,5.6,2.2c1.5,0,2.8-0.1,4-0.4c1.2-0.3,2.3-0.7,3.6-1.2v3.1
		c-1.2,0.5-2.4,0.9-3.6,1.2c-1.2,0.2-2.5,0.4-4.1,0.4c-2.3,0-4.3-0.5-5.9-1.4c-1.7-0.9-3-2.3-3.9-4.1c-0.9-1.8-1.4-4-1.4-6.6
		c0-2.5,0.4-4.7,1.3-6.6c0.9-1.9,2.1-3.3,3.6-4.3C588.8,120.9,590.6,120.4,592.7,120.4z M592.7,123.4c-1.9,0-3.4,0.6-4.6,1.9
		c-1.1,1.2-1.8,3-2,5.2h12.5c0-1.4-0.2-2.6-0.7-3.7c-0.4-1.1-1.1-1.9-1.9-2.5C595.1,123.7,594,123.4,592.7,123.4z M612,144.5h-3.6
		v-33.5h3.6V144.5z M635.3,144.5h-3.7V113h17.5v3.2h-13.9v11.6h13v3.2h-13V144.5z M674.2,132.6c0,1.9-0.3,3.7-0.8,5.2
		c-0.5,1.5-1.2,2.8-2.2,3.9c-0.9,1-2.1,1.9-3.4,2.4c-1.3,0.5-2.9,0.8-4.5,0.8c-1.6,0-3-0.3-4.4-0.8c-1.3-0.6-2.4-1.4-3.4-2.4
		c-0.9-1-1.7-2.3-2.2-3.9c-0.5-1.5-0.8-3.3-0.8-5.2c0-2.6,0.4-4.8,1.3-6.6c0.9-1.8,2.1-3.2,3.8-4.2c1.6-1,3.6-1.4,5.8-1.4
		c2.2,0,4,0.5,5.6,1.4c1.6,1,2.9,2.4,3.8,4.2C673.8,127.9,674.2,130.1,674.2,132.6z M656.3,132.6c0,1.9,0.3,3.5,0.8,4.9
		c0.5,1.4,1.3,2.5,2.3,3.2c1,0.8,2.4,1.1,4.1,1.1c1.6,0,3-0.4,4-1.1c1.1-0.8,1.8-1.8,2.4-3.2c0.5-1.4,0.8-3,0.8-4.9
		c0-1.9-0.3-3.5-0.8-4.9c-0.5-1.4-1.3-2.4-2.3-3.2c-1-0.7-2.4-1.1-4.1-1.1c-2.5,0-4.3,0.8-5.4,2.4
		C656.8,127.5,656.3,129.8,656.3,132.6z M706.1,120.4c2.6,0,4.6,0.7,5.9,2c1.3,1.4,2,3.5,2,6.5v15.5h-3.5v-15.3
		c0-1.9-0.4-3.3-1.3-4.3c-0.8-1-2-1.4-3.7-1.4c-2.3,0-3.9,0.7-5,2c-1,1.3-1.6,3.3-1.6,5.8v13.2h-3.6v-15.3c0-1.3-0.2-2.3-0.6-3.2
		c-0.4-0.8-0.9-1.5-1.6-1.9c-0.7-0.4-1.6-0.6-2.7-0.6c-1.6,0-2.8,0.3-3.8,1c-0.9,0.6-1.6,1.6-2.1,2.9c-0.4,1.3-0.6,2.8-0.6,4.7v12.5
		h-3.6v-23.6h2.9l0.5,3.3h0.2c0.5-0.8,1.1-1.5,1.8-2.1c0.7-0.6,1.5-1,2.4-1.3c0.9-0.3,1.8-0.4,2.8-0.4c1.8,0,3.3,0.3,4.5,1
		c1.2,0.7,2.1,1.7,2.7,3h0.2c0.8-1.4,1.8-2.4,3.2-3C703,120.8,704.5,120.4,706.1,120.4z M730.4,120.4c2,0,3.7,0.4,5.2,1.3
		c1.4,0.9,2.5,2.1,3.3,3.8c0.8,1.6,1.1,3.5,1.1,5.6v2.2h-16.3c0,2.8,0.7,4.9,2.1,6.3c1.3,1.5,3.2,2.2,5.6,2.2c1.5,0,2.8-0.1,4-0.4
		c1.1-0.3,2.3-0.7,3.6-1.2v3.1c-1.2,0.5-2.4,0.9-3.6,1.2c-1.2,0.2-2.5,0.4-4.1,0.4c-2.3,0-4.3-0.5-5.9-1.4c-1.7-0.9-3-2.3-3.9-4.1
		c-0.9-1.8-1.4-4-1.4-6.6c0-2.5,0.4-4.7,1.3-6.6c0.9-1.9,2.1-3.3,3.6-4.3C726.4,120.9,728.3,120.4,730.4,120.4z M730.3,123.4
		c-1.9,0-3.4,0.6-4.6,1.9c-1.1,1.2-1.8,3-2,5.2h12.5c0-1.4-0.2-2.6-0.7-3.7c-0.4-1.1-1.1-1.9-1.9-2.5
		C732.8,123.7,731.7,123.4,730.3,123.4z M757.3,120.4c2.8,0,4.9,0.7,6.4,2.1c1.4,1.4,2.2,3.6,2.2,6.6v15.4h-3.5v-15.2
		c0-2-0.5-3.4-1.4-4.4c-0.9-1-2.3-1.5-4.1-1.5c-2.6,0-4.5,0.7-5.5,2.2c-1.1,1.5-1.6,3.6-1.6,6.4v12.4h-3.6v-23.6h2.9l0.5,3.4h0.2
		c0.5-0.8,1.1-1.5,1.9-2.1c0.8-0.6,1.6-1,2.6-1.3C755.2,120.6,756.2,120.4,757.3,120.4z M780.8,142c0.6,0,1.2-0.1,1.8-0.2
		c0.6-0.1,1.1-0.2,1.5-0.4v2.8c-0.4,0.2-1,0.3-1.7,0.5c-0.7,0.1-1.5,0.2-2.2,0.2c-1.2,0-2.4-0.2-3.4-0.6c-1-0.4-1.8-1.2-2.5-2.2
		c-0.6-1-0.9-2.5-0.9-4.4v-14h-3.4v-1.7l3.4-1.4l1.4-5.1h2.2v5.5h6.9v2.8H777v13.9c0,1.5,0.3,2.6,1,3.3
		C778.7,141.6,779.7,142,780.8,142z M809.3,132.6c0,1.9-0.3,3.7-0.8,5.2c-0.5,1.5-1.2,2.8-2.2,3.9c-0.9,1-2.1,1.9-3.4,2.4
		c-1.3,0.5-2.9,0.8-4.5,0.8c-1.6,0-3-0.3-4.4-0.8c-1.3-0.6-2.4-1.4-3.4-2.4c-0.9-1-1.7-2.3-2.2-3.9c-0.5-1.5-0.8-3.3-0.8-5.2
		c0-2.6,0.4-4.8,1.3-6.6c0.9-1.8,2.1-3.2,3.8-4.2c1.6-1,3.6-1.4,5.8-1.4c2.2,0,4,0.5,5.6,1.4c1.6,1,2.9,2.4,3.8,4.2
		C808.8,127.9,809.3,130.1,809.3,132.6z M791.3,132.6c0,1.9,0.3,3.5,0.8,4.9c0.5,1.4,1.3,2.5,2.3,3.2c1,0.8,2.4,1.1,4.1,1.1
		c1.6,0,3-0.4,4-1.1c1.1-0.8,1.8-1.8,2.3-3.2c0.5-1.4,0.8-3,0.8-4.9c0-1.9-0.3-3.5-0.8-4.9c-0.5-1.4-1.3-2.4-2.3-3.2
		c-1-0.7-2.4-1.1-4.1-1.1c-2.5,0-4.3,0.8-5.4,2.4C791.9,127.5,791.3,129.8,791.3,132.6z M835.3,144.9c-3,0-5.4-1-7.1-3.1
		c-1.7-2-2.6-5.1-2.6-9.1c0-4.1,0.9-7.1,2.7-9.2c1.8-2.1,4.2-3.1,7.1-3.1c1.2,0,2.3,0.2,3.3,0.5c0.9,0.3,1.7,0.8,2.4,1.3
		c0.7,0.5,1.2,1.2,1.7,1.9h0.3c-0.1-0.4-0.1-1.1-0.2-1.8c-0.1-0.8-0.1-1.4-0.1-1.9v-9.5h3.6v33.5h-2.9l-0.5-3.4h-0.2
		c-0.4,0.7-1,1.3-1.7,1.9c-0.7,0.6-1.5,1-2.4,1.4C837.7,144.8,836.6,144.9,835.3,144.9z M835.9,141.9c2.5,0,4.3-0.7,5.4-2.2
		c1-1.4,1.6-3.6,1.6-6.4v-0.6c0-3-0.5-5.3-1.5-6.9c-1-1.6-2.8-2.4-5.4-2.4c-2.2,0-3.8,0.8-4.9,2.5c-1.1,1.7-1.6,4-1.6,6.9
		c0,2.9,0.5,5.1,1.6,6.7C832,141.2,833.7,141.9,835.9,141.9z M863.1,120.4c2,0,3.7,0.4,5.2,1.3c1.4,0.9,2.5,2.1,3.3,3.8
		c0.8,1.6,1.1,3.5,1.1,5.6v2.2h-16.3c0,2.8,0.7,4.9,2.1,6.3c1.3,1.5,3.2,2.2,5.6,2.2c1.5,0,2.8-0.1,4-0.4c1.2-0.3,2.3-0.7,3.6-1.2
		v3.1c-1.2,0.5-2.4,0.9-3.6,1.2c-1.2,0.2-2.5,0.4-4.1,0.4c-2.3,0-4.3-0.5-5.9-1.4c-1.7-0.9-3-2.3-3.9-4.1c-0.9-1.8-1.4-4-1.4-6.6
		c0-2.5,0.4-4.7,1.3-6.6c0.9-1.9,2.1-3.3,3.6-4.3C859.1,120.9,860.9,120.4,863.1,120.4z M863,123.4c-1.9,0-3.4,0.6-4.6,1.9
		c-1.1,1.2-1.8,3-2,5.2h12.5c0-1.4-0.2-2.6-0.7-3.7c-0.4-1.1-1.1-1.9-1.9-2.5C865.5,123.7,864.4,123.4,863,123.4z M893.8,144.5h-3.6
		v-33.5h3.6V144.5z M910.2,120.5c2.8,0,4.9,0.6,6.3,1.9c1.4,1.3,2,3.3,2,6.1v16.1h-2.6l-0.7-3.5h-0.2c-0.7,0.9-1.4,1.6-2.1,2.2
		c-0.7,0.6-1.6,1-2.5,1.3c-0.9,0.3-2.1,0.4-3.4,0.4c-1.4,0-2.7-0.3-3.8-0.8c-1.1-0.5-2-1.3-2.6-2.3c-0.6-1-0.9-2.3-0.9-3.9
		c0-2.4,0.9-4.2,2.8-5.4c1.9-1.3,4.7-2,8.5-2.1l4.1-0.2v-1.4c0-2-0.4-3.5-1.3-4.3c-0.9-0.8-2.1-1.2-3.7-1.2c-1.2,0-2.4,0.2-3.5,0.5
		c-1.1,0.4-2.2,0.8-3.2,1.3l-1.1-2.7c1.1-0.5,2.3-1,3.7-1.4C907.2,120.7,908.7,120.5,910.2,120.5z M915,132.8l-3.6,0.2
		c-2.9,0.1-5,0.6-6.2,1.4c-1.2,0.8-1.8,2-1.8,3.6c0,1.4,0.4,2.3,1.2,3c0.8,0.6,1.9,1,3.3,1c2.1,0,3.8-0.6,5.2-1.7
		c1.3-1.2,2-2.9,2-5.2V132.8z M350.9,204.5l-10.6-27.9h-0.2c0.1,0.6,0.1,1.3,0.2,2.2c0,0.8,0.1,1.8,0.1,2.8c0,1,0,2,0,3v19.9H337
		V173h5.4l10,26.2h0.1l10.1-26.2h5.4v31.5h-3.6v-20.2c0-0.9,0-1.9,0-2.8c0-0.9,0.1-1.8,0.1-2.7c0-0.8,0.1-1.6,0.1-2.2h-0.2
		l-10.7,27.9H350.9z M395.7,180.9v23.6h-2.9l-0.5-3.3h-0.2c-0.5,0.8-1.1,1.5-1.9,2.1s-1.7,1-2.6,1.2c-1,0.3-2,0.4-3.1,0.4
		c-1.9,0-3.4-0.3-4.7-0.9c-1.3-0.6-2.2-1.5-2.9-2.8c-0.6-1.3-0.9-2.9-0.9-4.9v-15.5h3.6v15.2c0,2,0.4,3.4,1.3,4.4
		c0.9,1,2.2,1.4,4.1,1.4c1.8,0,3.1-0.3,4.2-1c1-0.7,1.8-1.6,2.3-2.9c0.5-1.3,0.7-2.9,0.7-4.7v-12.4H395.7z M392.2,170.7v0.4
		c-0.3,0.4-0.7,0.9-1.2,1.5c-0.5,0.6-1,1.2-1.6,1.8c-0.6,0.6-1.2,1.2-1.8,1.8c-0.6,0.6-1.2,1.1-1.7,1.5h-2.4v-0.5
		c0.5-0.5,1-1.2,1.5-2c0.5-0.8,1.1-1.6,1.6-2.4c0.5-0.8,0.9-1.6,1.3-2.2H392.2z M418.6,198c0,1.5-0.4,2.8-1.1,3.8
		c-0.7,1-1.8,1.8-3.2,2.3c-1.4,0.5-3.1,0.8-5,0.8c-1.7,0-3.1-0.1-4.3-0.4c-1.2-0.3-2.3-0.6-3.2-1.1v-3.3c1,0.5,2.1,0.9,3.5,1.3
		c1.3,0.4,2.7,0.6,4.1,0.6c2,0,3.5-0.3,4.4-1c0.9-0.7,1.4-1.6,1.4-2.7c0-0.6-0.2-1.2-0.6-1.7c-0.4-0.5-1-1-1.8-1.4
		c-0.9-0.5-2.1-1-3.6-1.6c-1.5-0.6-2.8-1.1-3.9-1.7c-1.1-0.6-1.9-1.3-2.5-2.1c-0.6-0.8-0.9-1.9-0.9-3.2c0-2,0.8-3.5,2.4-4.6
		c1.6-1.1,3.8-1.6,6.4-1.6c1.4,0,2.8,0.1,4,0.4c1.2,0.3,2.4,0.6,3.5,1.1l-1.2,2.9c-1-0.4-2-0.8-3.1-1.1c-1.1-0.3-2.2-0.4-3.4-0.4
		c-1.7,0-2.9,0.3-3.8,0.8c-0.9,0.5-1.3,1.3-1.3,2.2c0,0.7,0.2,1.3,0.6,1.8c0.4,0.5,1.1,0.9,2,1.3c0.9,0.4,2.1,0.9,3.6,1.5
		c1.5,0.5,2.8,1.1,3.8,1.7c1.1,0.6,1.9,1.3,2.5,2.1C418.3,195.7,418.6,196.7,418.6,198z M427.9,180.9v23.6h-3.6v-23.6H427.9z
		 M426.2,172c0.6,0,1.1,0.2,1.5,0.6c0.4,0.4,0.6,1,0.6,1.8c0,0.8-0.2,1.4-0.6,1.8c-0.4,0.4-0.9,0.6-1.5,0.6c-0.6,0-1.1-0.2-1.6-0.6
		c-0.4-0.4-0.6-1-0.6-1.8c0-0.8,0.2-1.4,0.6-1.8C425,172.2,425.5,172,426.2,172z M445,204.9c-2.1,0-4-0.4-5.6-1.3
		c-1.6-0.9-2.9-2.2-3.8-4c-0.9-1.8-1.4-4.1-1.4-6.8c0-2.9,0.5-5.2,1.4-7c1-1.8,2.3-3.2,4-4.1c1.7-0.9,3.6-1.3,5.7-1.3
		c1.2,0,2.3,0.1,3.4,0.4c1.1,0.2,2,0.5,2.7,0.9l-1.1,3c-0.7-0.3-1.6-0.5-2.5-0.8c-0.9-0.2-1.8-0.3-2.6-0.3c-1.6,0-3,0.4-4.1,1.1
		c-1.1,0.7-1.9,1.7-2.4,3.1c-0.5,1.4-0.8,3-0.8,5c0,1.9,0.3,3.5,0.8,4.9c0.5,1.4,1.3,2.4,2.4,3.1c1,0.7,2.4,1.1,3.9,1.1
		c1.2,0,2.4-0.1,3.4-0.4c1-0.3,1.9-0.6,2.7-0.9v3.2c-0.8,0.4-1.7,0.7-2.7,0.9C447.4,204.8,446.3,204.9,445,204.9z M465.5,180.5
		c2.8,0,4.9,0.6,6.3,1.9c1.4,1.3,2,3.3,2,6.1v16.1h-2.6l-0.7-3.5h-0.2c-0.7,0.9-1.4,1.6-2.1,2.2c-0.7,0.6-1.6,1-2.5,1.3
		c-0.9,0.3-2.1,0.4-3.4,0.4c-1.4,0-2.7-0.3-3.8-0.8c-1.1-0.5-2-1.3-2.6-2.3c-0.6-1-0.9-2.3-0.9-3.9c0-2.4,0.9-4.2,2.8-5.4
		c1.9-1.3,4.7-2,8.5-2.1l4.1-0.2v-1.4c0-2-0.4-3.5-1.3-4.3c-0.9-0.8-2.1-1.2-3.7-1.2c-1.2,0-2.4,0.2-3.5,0.5s-2.2,0.8-3.2,1.3
		l-1.1-2.7c1.1-0.5,2.3-1,3.7-1.4C462.5,180.7,464,180.5,465.5,180.5z M470.3,192.8l-3.6,0.2c-2.9,0.1-5,0.6-6.2,1.4
		c-1.2,0.8-1.8,2-1.8,3.6c0,1.4,0.4,2.3,1.2,3c0.8,0.6,1.9,1,3.3,1c2.1,0,3.8-0.6,5.2-1.7c1.3-1.2,2-2.9,2-5.2V192.8z M517.8,204.5
		h-4.2L496.4,178h-0.2c0,0.7,0.1,1.5,0.2,2.4c0.1,0.9,0.1,1.8,0.1,2.9c0,1,0.1,2,0.1,3.1v18.1h-3.4V173h4.2l17.1,26.4h0.2
		c0-0.5-0.1-1.2-0.1-2.1c0-0.9-0.1-1.9-0.1-3c0-1.1,0-2.1,0-3V173h3.4V204.5z M534.7,180.5c2.8,0,4.9,0.6,6.3,1.9
		c1.4,1.3,2,3.3,2,6.1v16.1h-2.6l-0.7-3.5h-0.2c-0.7,0.9-1.4,1.6-2.1,2.2c-0.7,0.6-1.6,1-2.5,1.3c-0.9,0.3-2.1,0.4-3.4,0.4
		c-1.4,0-2.7-0.3-3.8-0.8c-1.1-0.5-2-1.3-2.6-2.3c-0.6-1-0.9-2.3-0.9-3.9c0-2.4,0.9-4.2,2.8-5.4c1.9-1.3,4.7-2,8.5-2.1l4.1-0.2v-1.4
		c0-2-0.4-3.5-1.3-4.3c-0.9-0.8-2.1-1.2-3.7-1.2c-1.2,0-2.4,0.2-3.5,0.5c-1.1,0.4-2.2,0.8-3.2,1.3l-1.1-2.7c1.1-0.5,2.3-1,3.7-1.4
		S533.2,180.5,534.7,180.5z M539.5,192.8l-3.6,0.2c-2.9,0.1-5,0.6-6.2,1.4c-1.2,0.8-1.8,2-1.8,3.6c0,1.4,0.4,2.3,1.2,3
		c0.8,0.6,1.9,1,3.3,1c2.1,0,3.8-0.6,5.2-1.7c1.3-1.2,2-2.9,2-5.2V192.8z M559.9,204.9c-2.1,0-4-0.4-5.6-1.3c-1.6-0.9-2.9-2.2-3.8-4
		c-0.9-1.8-1.4-4.1-1.4-6.8c0-2.9,0.5-5.2,1.4-7c1-1.8,2.3-3.2,4-4.1c1.7-0.9,3.6-1.3,5.7-1.3c1.2,0,2.3,0.1,3.4,0.4
		c1.1,0.2,2,0.5,2.7,0.9l-1.1,3c-0.7-0.3-1.6-0.5-2.5-0.8c-0.9-0.2-1.8-0.3-2.6-0.3c-1.6,0-3,0.4-4.1,1.1c-1.1,0.7-1.9,1.7-2.4,3.1
		c-0.5,1.4-0.8,3-0.8,5c0,1.9,0.3,3.5,0.8,4.9c0.5,1.4,1.3,2.4,2.3,3.1c1,0.7,2.4,1.1,3.9,1.1c1.3,0,2.4-0.1,3.4-0.4
		c1-0.3,1.9-0.6,2.7-0.9v3.2c-0.8,0.4-1.7,0.7-2.7,0.9C562.4,204.8,561.2,204.9,559.9,204.9z M575.2,180.9v23.6h-3.6v-23.6H575.2z
		 M573.4,172c0.6,0,1.1,0.2,1.5,0.6c0.4,0.4,0.6,1,0.6,1.8c0,0.8-0.2,1.4-0.6,1.8c-0.4,0.4-0.9,0.6-1.5,0.6c-0.6,0-1.1-0.2-1.6-0.6
		c-0.4-0.4-0.6-1-0.6-1.8c0-0.8,0.2-1.4,0.6-1.8C572.3,172.2,572.8,172,573.4,172z M603.1,192.6c0,1.9-0.3,3.7-0.8,5.2
		c-0.5,1.5-1.2,2.8-2.2,3.9c-0.9,1-2.1,1.9-3.4,2.4c-1.3,0.5-2.9,0.8-4.5,0.8c-1.6,0-3-0.3-4.4-0.8c-1.3-0.6-2.4-1.4-3.4-2.4
		c-0.9-1-1.7-2.3-2.2-3.9c-0.5-1.5-0.8-3.3-0.8-5.2c0-2.6,0.4-4.8,1.3-6.6c0.9-1.8,2.1-3.2,3.8-4.2c1.6-1,3.6-1.4,5.8-1.4
		c2.2,0,4,0.5,5.6,1.4c1.6,1,2.9,2.4,3.8,4.2C602.7,187.9,603.1,190.1,603.1,192.6z M585.2,192.6c0,1.9,0.3,3.5,0.8,4.9
		c0.5,1.4,1.3,2.5,2.3,3.2c1,0.8,2.4,1.1,4.1,1.1c1.6,0,3-0.4,4-1.1c1.1-0.8,1.8-1.8,2.3-3.2c0.5-1.4,0.8-3,0.8-4.9
		c0-1.9-0.3-3.5-0.8-4.9c-0.5-1.4-1.3-2.4-2.3-3.2c-1-0.7-2.4-1.1-4.1-1.1c-2.5,0-4.3,0.8-5.4,2.4
		C585.7,187.5,585.2,189.8,585.2,192.6z M620.5,180.4c2.8,0,4.9,0.7,6.4,2.1c1.4,1.4,2.2,3.6,2.2,6.6v15.4h-3.5v-15.2
		c0-2-0.5-3.4-1.4-4.4c-0.9-1-2.3-1.5-4.1-1.5c-2.6,0-4.5,0.7-5.5,2.2c-1.1,1.5-1.6,3.6-1.6,6.4v12.4h-3.6v-23.6h2.9l0.5,3.4h0.2
		c0.5-0.8,1.1-1.5,1.9-2.1c0.8-0.6,1.6-1,2.6-1.3C618.4,180.6,619.4,180.4,620.5,180.4z M645.2,180.5c2.8,0,4.9,0.6,6.3,1.9
		c1.4,1.3,2,3.3,2,6.1v16.1H651l-0.7-3.5h-0.2c-0.7,0.9-1.4,1.6-2.1,2.2c-0.7,0.6-1.6,1-2.5,1.3c-0.9,0.3-2.1,0.4-3.4,0.4
		c-1.4,0-2.7-0.3-3.8-0.8c-1.1-0.5-2-1.3-2.6-2.3c-0.6-1-0.9-2.3-0.9-3.9c0-2.4,0.9-4.2,2.8-5.4s4.7-2,8.5-2.1l4.1-0.2v-1.4
		c0-2-0.4-3.5-1.3-4.3c-0.9-0.8-2.1-1.2-3.7-1.2c-1.2,0-2.4,0.2-3.5,0.5c-1.1,0.4-2.2,0.8-3.2,1.3l-1.1-2.7c1.1-0.5,2.3-1,3.7-1.4
		C642.3,180.7,643.7,180.5,645.2,180.5z M650,192.8l-3.6,0.2c-2.9,0.1-5,0.6-6.2,1.4c-1.2,0.8-1.8,2-1.8,3.6c0,1.4,0.4,2.3,1.2,3
		c0.8,0.6,1.9,1,3.3,1c2.1,0,3.8-0.6,5.2-1.7c1.3-1.2,2-2.9,2-5.2V192.8z M664.5,204.5h-3.6v-33.5h3.6V204.5z M702.6,204.5H682v-3
		l8.4-8.6c1.6-1.6,2.9-3,3.9-4.2c1.1-1.2,1.9-2.5,2.5-3.6c0.6-1.2,0.8-2.5,0.8-4c0-1.8-0.5-3.1-1.6-4.1c-1-0.9-2.4-1.4-4.2-1.4
		c-1.5,0-2.8,0.3-4,0.8c-1.2,0.5-2.4,1.2-3.6,2.2l-1.9-2.4c0.8-0.7,1.7-1.3,2.7-1.9c1-0.5,2-1,3.2-1.3c1.1-0.3,2.3-0.5,3.6-0.5
		c1.9,0,3.6,0.3,5,1c1.4,0.7,2.5,1.6,3.3,2.9c0.8,1.2,1.2,2.7,1.2,4.5c0,1.7-0.3,3.2-1,4.7c-0.7,1.4-1.6,2.8-2.8,4.2
		c-1.2,1.4-2.6,2.9-4.2,4.4l-6.9,6.8v0.2h16.1V204.5z M728.1,188.7c0,2.6-0.2,4.8-0.6,6.9c-0.4,2-1,3.7-1.8,5.1
		c-0.8,1.4-1.9,2.5-3.2,3.2c-1.3,0.7-2.9,1.1-4.8,1.1c-2.3,0-4.3-0.6-5.8-1.9c-1.5-1.3-2.7-3.1-3.4-5.5c-0.7-2.4-1.1-5.4-1.1-8.8
		c0-3.4,0.3-6.3,1-8.7c0.7-2.4,1.8-4.3,3.3-5.6c1.5-1.3,3.5-2,6-2c2.4,0,4.3,0.6,5.9,1.9c1.5,1.3,2.7,3.1,3.4,5.6
		C727.7,182.4,728.1,185.3,728.1,188.7z M710.9,188.7c0,2.9,0.2,5.4,0.7,7.3c0.4,2,1.2,3.4,2.2,4.4c1,1,2.3,1.4,3.9,1.4
		c1.6,0,2.9-0.5,3.9-1.4c1-1,1.7-2.4,2.2-4.4c0.5-2,0.7-4.4,0.7-7.4c0-2.9-0.2-5.3-0.7-7.2c-0.4-2-1.2-3.4-2.2-4.4
		c-1-1-2.3-1.5-4-1.5s-3,0.5-4,1.5c-1,1-1.7,2.4-2.2,4.4C711.1,183.4,710.9,185.8,710.9,188.7z M753.2,204.5h-20.7v-3l8.4-8.6
		c1.6-1.6,2.9-3,3.9-4.2c1.1-1.2,1.9-2.5,2.5-3.6c0.6-1.2,0.8-2.5,0.8-4c0-1.8-0.5-3.1-1.6-4.1c-1-0.9-2.4-1.4-4.2-1.4
		c-1.5,0-2.8,0.3-4,0.8c-1.2,0.5-2.4,1.2-3.6,2.2l-1.9-2.4c0.8-0.7,1.7-1.3,2.7-1.9c1-0.5,2-1,3.2-1.3c1.1-0.3,2.3-0.5,3.6-0.5
		c1.9,0,3.6,0.3,5,1c1.4,0.7,2.5,1.6,3.3,2.9c0.8,1.2,1.2,2.7,1.2,4.5c0,1.7-0.3,3.2-1,4.7c-0.7,1.4-1.6,2.8-2.8,4.2
		c-1.2,1.4-2.6,2.9-4.2,4.4l-6.9,6.8v0.2h16.1V204.5z M758.1,191c0-1.9,0.1-3.8,0.4-5.6c0.3-1.8,0.7-3.5,1.4-5
		c0.6-1.6,1.5-2.9,2.6-4.1c1.1-1.2,2.5-2.1,4.1-2.8c1.6-0.7,3.6-1,5.9-1c0.6,0,1.3,0,2.1,0.1c0.7,0.1,1.4,0.2,1.9,0.3v3.1
		c-0.5-0.2-1.1-0.3-1.8-0.4c-0.7-0.1-1.4-0.1-2-0.1c-2.7,0-4.8,0.6-6.3,1.7c-1.5,1.2-2.6,2.7-3.3,4.7c-0.7,2-1.1,4.2-1.2,6.7h0.2
		c0.4-0.7,1-1.4,1.7-1.9c0.7-0.6,1.5-1.1,2.5-1.4c1-0.3,2.1-0.5,3.4-0.5c1.8,0,3.4,0.4,4.8,1.1c1.4,0.7,2.4,1.8,3.2,3.3
		c0.8,1.4,1.1,3.1,1.1,5.2c0,2.2-0.4,4-1.2,5.6s-2,2.8-3.4,3.7c-1.5,0.8-3.2,1.3-5.3,1.3c-1.5,0-3-0.3-4.2-0.9
		c-1.3-0.6-2.4-1.5-3.4-2.6c-0.9-1.2-1.7-2.6-2.2-4.3C758.4,195.3,758.1,193.3,758.1,191z M768.7,201.9c2,0,3.5-0.6,4.7-1.9
		c1.2-1.2,1.8-3.1,1.8-5.7c0-2.1-0.5-3.7-1.6-4.9c-1-1.2-2.6-1.8-4.7-1.8c-1.4,0-2.7,0.3-3.8,0.9c-1.1,0.6-1.9,1.3-2.5,2.2
		s-0.9,1.8-0.9,2.8c0,0.9,0.1,1.9,0.4,2.9c0.3,1,0.7,1.9,1.3,2.7c0.6,0.8,1.3,1.5,2.2,2C766.5,201.6,767.5,201.9,768.7,201.9z"/>
</g>
</svg>
