<?xml version="1.0" encoding="utf-8"?>
<!-- Generator: Adobe Illustrator 28.4.1, SVG Export Plug-In . SVG Version: 6.00 Build 0)  -->
<svg version="1.1" id="Layer_1" xmlns="http://www.w3.org/2000/svg" xmlns:xlink="http://www.w3.org/1999/xlink" x="0px" y="0px"
	 viewBox="0 0 740 753" style="enable-background:new 0 0 740 753;" xml:space="preserve">
<style type="text/css">
	.st0{clip-path:url(#SVGID_00000097466965165236233410000013390931972171252392_);}
	.st1{fill:#848484;}
</style>
<g>
	<defs>
		<rect id="SVGID_1_" x="8.5" y="15" width="723" height="723"/>
	</defs>
	<clipPath id="SVGID_00000135653969526810484940000009693216236421074828_">
		<use xlink:href="#SVGID_1_"  style="overflow:visible;"/>
	</clipPath>
	<g style="clip-path:url(#SVGID_00000135653969526810484940000009693216236421074828_);">
		<path class="st1" d="M688.6,411.2c1.1-10.5,1.7-21,1.8-31.5l-5,0c-0.1,10.4-0.7,20.7-1.8,31L688.6,411.2z"/>
		<path class="st1" d="M696.7,410.2l20,2l5,0.5l0.5-5.3c0.4-4.2,0.6-8.5,0.9-12.7l0.2-6.4c0-1.1,0.1-2.1,0.1-3.2l0-3.2l-5-0.1
			l-18.4-0.3c0,1.2,0,2.4-0.1,3.6l0,1.3c-0.1,3.4-0.2,6.7-0.5,10.1l0.7,0v0l5.1,0.3l3.9,0.2l1.1,0.1c0.1-1.3,0.2-2.7,0.2-4l1,0
			c-0.1,2-0.2,4-0.4,6l-13.5-0.9l0.3-4.7c0.1-1.6,0.1-3.1,0.2-4.7c0.1-1.6,0.1-3.1,0.2-4.7l0.1-4.7l-5,0c0,7.8-0.5,15.6-1.1,23.4
			l5,0.4v0l18.5,1.5c0.1-1.5,0.2-3,0.3-4.5l0-0.7l0.4-5.6l0.2-5.6l-1.5,0l-3.5-0.1l-1,0l-4.4-0.2l-0.6,0l-0.2,4l-0.8,0l0.2-5.3
			l13.3,0.4l-0.2,5l-0.1,2.5l-0.2,2.5c-0.2,3.3-0.4,6.6-0.7,9.9l-20-1.7v0l-5-0.4c-0.2,2.2-0.4,4.4-0.6,6.6l5,0.5L696.7,410.2z"/>
		<path class="st1" d="M731.3,380.1l-5,0c-0.1,11.7-0.8,23.3-2,35l5,0.5C730.5,403.8,731.2,391.9,731.3,380.1z"/>
		<path class="st1" d="M683,445.4c2.3-10.3,4-20.6,5.2-31.1l-5-0.6c-1.2,10.3-2.9,20.5-5.1,30.6L683,445.4z"/>
		<path class="st1" d="M691.1,445.4l19.7,4.2l4.9,1l0.6-2.6l0.5-2.6l1.2-6.3l1-6.3c0.4-2.1,0.7-4.2,0.9-6.3c0.3-2.1,0.6-4.2,0.9-6.3
			l-5-0.6l-18.2-2.3c-0.1,1.2-0.3,2.4-0.5,3.6l-0.2,1.3c-0.2,1.7-0.5,3.3-0.7,5l-0.8,5l0.7,0.1l0,0l5,0.9l3.8,0.7l1.1,0.2l0.7-4
			l1,0.2l-1,5.9l-13.4-2.4c1.1-6.2,2-12.4,2.7-18.7l-5-0.6l-0.3,2.9l-0.4,2.9c-0.3,1.9-0.5,3.9-0.8,5.8c-0.6,3.9-1.2,7.7-2,11.5
			l4.9,0.9l0,0l18.3,3.5l0.8-4.4l0.1-0.7c0.6-3.7,1.3-7.4,1.8-11.1l-1.5-0.2l-3.5-0.5l-1-0.1l-4.4-0.6l-0.6-0.1
			c-0.2,1.3-0.3,2.6-0.6,3.9l-0.8-0.1c0.3-1.7,0.5-3.5,0.7-5.2l13.2,1.8l-0.7,4.9l-0.8,4.9c-0.5,3.3-1.2,6.5-1.8,9.8l-19.7-3.9l0,0
			l-4.9-1c-0.4,2.2-0.9,4.3-1.4,6.5l4.9,1.1L691.1,445.4z"/>
		<path class="st1" d="M728.8,419.1l-5-0.6c-1.4,11.6-3.3,23.1-5.8,34.6l4.9,1.1C725.5,442.6,727.5,430.9,728.8,419.1z"/>
		<path class="st1" d="M673.7,478.8c3.4-10,6.2-20.1,8.6-30.3l-4.9-1.1c-2.3,10.1-5.1,20-8.4,29.8L673.7,478.8z"/>
		<path class="st1" d="M681.8,479.7l19.1,6.3l4.8,1.6l1.6-5c0.6-2,1.2-4.1,1.8-6.1l0.9-3.1l0.8-3.1c0.5-2.1,1.1-4.1,1.6-6.2l1.5-6.2
			l-4.9-1.2l-17.9-4.2l-0.9,3.5l-0.3,1.3c-0.4,1.6-0.8,3.3-1.3,4.9l-1.3,4.9l0.7,0.2l0,0l4.9,1.4l3.7,1.1l1.1,0.3l1.1-3.9l0.9,0.3
			c-0.5,1.9-1,3.9-1.6,5.8l-13-3.8l0.7-2.3l0.6-2.3l1.2-4.6c0.8-3,1.5-6.1,2.2-9.2l-4.9-1.1c-1.8,7.6-3.8,15.2-6.1,22.6l4.8,1.5l0,0
			l17.8,5.5l1.3-4.3l0.2-0.7c0.6-1.8,1-3.6,1.5-5.4l1.5-5.4l-1.4-0.4l-3.4-0.9l-1-0.2l-4.3-1.1l-0.6-0.1l-1,3.8l-0.8-0.2
			c0.5-1.7,0.9-3.4,1.3-5.1l12.9,3.3c-0.4,1.6-0.8,3.2-1.3,4.8l-1.3,4.8c-0.9,3.2-1.9,6.4-2.8,9.5l-19.2-6l0,0l-4.8-1.5l-2,6.3
			l4.8,1.6L681.8,479.7z"/>
		<path class="st1" d="M722.2,457.7l-4.9-1.1c-2.6,11.4-5.8,22.6-9.5,33.8l4.8,1.6C716.3,480.7,719.5,469.3,722.2,457.7z"/>
		<path class="st1" d="M660.9,511.1c4.4-9.5,8.4-19.3,11.8-29.2l-4.7-1.6c-3.4,9.8-7.3,19.4-11.6,28.8L660.9,511.1z"/>
		<path class="st1" d="M668.9,512.8l18.3,8.4l4.6,2.1c0.8-1.6,1.4-3.2,2.2-4.8c1.7-3.9,3.3-7.8,4.9-11.7c0.8-2,1.5-4,2.3-5.9
			c0.4-1,0.8-2,1.1-3l1.1-3l-4.7-1.7l-17.3-6.1l-1.2,3.4l-0.5,1.2c-1.2,3.1-2.4,6.3-3.7,9.4l0.7,0.3l0,0l4.7,1.9l3.6,1.5l1.1,0.4
			l1.5-3.7l0.9,0.4l-2.3,5.5l-12.5-5.2l1.8-4.4c0.6-1.5,1.1-2.9,1.7-4.4c0.6-1.5,1.1-2.9,1.7-4.4l1.6-4.4l-4.7-1.7
			c-2.5,7.4-5.4,14.7-8.5,21.8l4.6,2l0,0l17.1,7.4c0.6-1.4,1.2-2.7,1.8-4.1l0.3-0.7l2.1-5.2l2-5.3l-1.4-0.5l-3.3-1.2l-0.9-0.3
			l-4.2-1.6l-0.5-0.2l-1.4,3.7l-0.7-0.3l1.9-4.9l12.5,4.7c-1.2,3.1-2.3,6.2-3.6,9.3l-1.9,4.6l-2,4.6l-18.4-8.1l0,0l-4.6-2l-1.3,3
			l-1.4,3l4.6,2.1L668.9,512.8z"/>
		<path class="st1" d="M711.4,495.3l-4.7-1.7c-3.8,11-8.2,21.9-13.2,32.5l4.6,2.1C703,517.5,707.4,506.5,711.4,495.3z"/>
		<path class="st1" d="M644.6,541.7c5.4-9,10.4-18.3,14.9-27.8l-4.5-2.2c-4.4,9.3-9.3,18.5-14.7,27.3L644.6,541.7z"/>
		<path class="st1" d="M652.3,544.3l17.3,10.3l4.3,2.6l2.7-4.6c4.2-7.4,8.2-14.9,11.9-22.5l-4.5-2.2l-16.5-8l-1.6,3.3l-0.6,1.2
			l-1.1,2.3l-1.2,2.2l-2.4,4.5l0.7,0.4l0,0l4.5,2.4l3.4,1.9l1,0.5l1.9-3.6l0.9,0.5c-0.9,1.8-1.8,3.5-2.8,5.3l-11.9-6.5
			c1.5-2.8,3-5.6,4.4-8.3l2.1-4.2c0.7-1.4,1.4-2.8,2.1-4.2l-4.5-2.2c-0.8,1.8-1.7,3.5-2.6,5.3c-0.9,1.8-1.7,3.5-2.7,5.2l-2.7,5.2
			l-2.9,5.1l4.4,2.5l0,0l16.2,9.2l2.2-3.9l0.4-0.6c0.9-1.6,1.8-3.3,2.7-5c0.9-1.7,1.8-3.3,2.6-5l-1.3-0.7l-3.2-1.6l-0.9-0.4l-4-2
			l-0.5-0.3c-0.6,1.2-1.2,2.3-1.8,3.5l-0.7-0.4l1.2-2.3l1.2-2.4l11.9,6c-1.4,3-3,5.9-4.6,8.8c-1.6,2.9-3.2,5.8-4.8,8.7l-17.4-10l0,0
			l-4.4-2.5l-3.4,5.7l4.3,2.6L652.3,544.3z"/>
		<path class="st1" d="M696.5,531.5l-4.5-2.2c-5,10.6-10.6,20.9-16.6,30.9l4.3,2.6C685.8,552.7,691.4,542.2,696.5,531.5z"/>
		<path class="st1" d="M625.1,570.4c6.4-8.4,12.3-17,17.8-26l-4.3-2.6c-5.4,8.8-11.3,17.3-17.6,25.6L625.1,570.4z"/>
		<path class="st1" d="M632.5,573.8l16.1,12.1l4,3c1.1-1.4,2.1-2.8,3.1-4.3c2.5-3.4,4.9-6.9,7.3-10.4c2.3-3.5,4.7-7.1,6.9-10.7
			l-4.3-2.7l-15.6-9.7l-1.9,3.1l-0.7,1.1c-1.9,2.8-3.7,5.7-5.6,8.4l0.6,0.4l0,0l4.2,2.9l3.2,2.2l0.9,0.6c0.8-1.1,1.5-2.2,2.3-3.3
			l0.8,0.5c-1.1,1.7-2.3,3.3-3.4,4.9l-11.1-7.8l2.7-3.9c0.9-1.3,1.7-2.6,2.6-3.9c1.8-2.6,3.4-5.3,5.1-8l-4.3-2.6
			c-4.1,6.7-8.5,13.1-13,19.5l4.1,2.9l0,0l15.1,10.9l1.3-1.8l1.3-1.8l0.4-0.6l3.2-4.6l3.1-4.7l-1.2-0.8l-3-1.9l-0.8-0.5l-3.7-2.4
			l-0.5-0.3l-2.2,3.3l-0.7-0.4l2.9-4.4l11.2,7.2l-2.7,4.2l-1.4,2.1l-1.4,2l-2.8,4.1c-0.9,1.4-1.9,2.7-2.9,4l-16.3-11.9l0,0l-4.1-3
			l-2,2.7c-0.7,0.9-1.3,1.8-2,2.6l4,3L632.5,573.8z"/>
		<path class="st1" d="M677.8,565.9l-4.3-2.6c-6.1,10-12.8,19.6-19.8,28.9l4,3C664.8,585.8,671.6,576,677.8,565.9z"/>
		<path class="st1" d="M602.6,596.9c7.2-7.6,14.1-15.6,20.5-23.9l-4-3.1c-6.3,8.2-13.1,16-20.2,23.6L602.6,596.9z"/>
		<path class="st1" d="M609.6,601l14.7,13.8l3.7,3.4l3.6-3.9c5.7-6.3,11.2-12.8,16.4-19.4l-3.9-3.1l-14.4-11.4l-2.3,2.8l-0.8,1
			l-1.6,2c-0.5,0.7-1.1,1.3-1.6,1.9l-3.3,3.9l0.6,0.5l0,0l3.9,3.3l2.9,2.5l0.9,0.7l2.6-3.1l0.8,0.6c-1.3,1.5-2.6,3.1-3.9,4.6
			l-10.2-8.9c2.1-2.4,4.1-4.8,6.1-7.2l3-3.7c1-1.2,2-2.4,2.9-3.7l-4-3.1c-1.2,1.6-2.4,3.1-3.6,4.6c-1.2,1.5-2.4,3.1-3.7,4.5
			l-3.8,4.5l-3.9,4.4l3.7,3.4l0,0l13.8,12.4l3-3.3l0.5-0.5c1.3-1.4,2.4-2.9,3.7-4.3c1.2-1.4,2.4-2.9,3.6-4.3l-1.1-0.9l-2.7-2.2
			l-0.8-0.6l-3.4-2.8l-0.4-0.4c-0.8,1-1.7,2-2.5,3l-0.6-0.5l1.7-2l1.7-2.1l10.4,8.4c-2.1,2.6-4.2,5.1-6.4,7.6
			c-2.1,2.5-4.4,5-6.6,7.5L613,597.4l0,0l-3.7-3.4l-4.5,4.8l3.6,3.5L609.6,601z"/>
		<path class="st1" d="M655.5,598l-4-3.1c-7.2,9.2-14.8,18.1-22.8,26.6l3.6,3.5C640.5,616.4,648.2,607.4,655.5,598z"/>
		<path class="st1" d="M577.4,620.7c8-6.8,15.7-14,23-21.6l-3.6-3.5c-7.2,7.4-14.7,14.5-22.6,21.2L577.4,620.7z"/>
		<path class="st1" d="M583.9,625.6l13.1,15.3l3.3,3.8c1.4-1.1,2.7-2.3,4-3.5c3.2-2.8,6.3-5.7,9.4-8.6c3-3,6.1-5.9,9-9l-3.6-3.5
			L606,607.3l-2.5,2.6l-0.9,0.9c-2.4,2.3-4.8,4.7-7.3,7l0.5,0.5l0,0l3.5,3.7l2.7,2.8l0.8,0.8c1-0.9,2-1.8,2.9-2.7l0.7,0.7l-4.4,4.1
			l-9.2-10l3.5-3.2c1.1-1.1,2.3-2.2,3.4-3.3c1.1-1.1,2.3-2.2,3.4-3.3l3.3-3.4l-3.6-3.5c-5.4,5.7-11.1,11-16.9,16.3l3.4,3.7l0,0
			l12.4,13.9c1.1-1,2.2-2,3.3-3l0.5-0.5l4.1-3.8l4-3.9l-1-1.1l-2.5-2.5l-0.7-0.7l-3.1-3.2l-0.4-0.4l-2.8,2.8l-0.6-0.6l3.8-3.7
			l9.4,9.5c-2.4,2.3-4.7,4.7-7.2,6.9l-3.6,3.4c-1.2,1.1-2.5,2.2-3.7,3.3l-13.3-15.1l0,0l-3.3-3.8l-2.5,2.2l-2.5,2.1l3.3,3.8
			L583.9,625.6z"/>
		<path class="st1" d="M629.9,627.6l-3.6-3.5c-8.1,8.4-16.6,16.4-25.6,24l3.3,3.8C613,644.2,621.6,636.1,629.9,627.6z"/>
		<path class="st1" d="M549.8,641.8c8.7-5.9,17.1-12.2,25.2-19l-3.2-3.9c-8,6.6-16.2,12.9-24.8,18.7L549.8,641.8z"/>
		<path class="st1" d="M555.8,647.3l11.4,16.6l2.8,4.1l4.4-3c6.9-4.9,13.6-10.1,20.2-15.5l-3.2-3.9l-11.7-14.2l-2.8,2.3l-1,0.8
			l-2,1.6l-2,1.5l-4,3.1l0.4,0.6l0,0l3.1,4.1l2.3,3.1l0.7,0.9l3.2-2.4l0.6,0.8c-1.6,1.2-3.1,2.5-4.8,3.6l-8.1-10.9
			c2.5-1.9,5-3.8,7.5-5.7l3.7-3c1.2-1,2.5-2,3.6-3l-3.2-3.9c-6,5-12.2,9.8-18.5,14.3l2.9,4.1l0,0l10.8,15.1l3.6-2.6l0.6-0.4
			c1.5-1.1,3-2.3,4.5-3.4c1.5-1.2,3-2.3,4.5-3.5l-0.9-1.2l-2.2-2.8l-0.6-0.8l-2.8-3.5l-0.4-0.5c-1,0.8-2.1,1.6-3.1,2.4l-0.5-0.6
			l2.1-1.6l2.1-1.6l8.3,10.4l-1.9,1.6l-2,1.5l-3.9,3c-2.6,2-5.3,3.9-8,5.9l-11.6-16.4l0,0l-2.9-4.1l-5.4,3.8l2.8,4.2L555.8,647.3z"
			/>
		<path class="st1" d="M601.2,654.2l-3.2-3.9c-9,7.5-18.3,14.5-28,21.1l2.8,4.2C582.6,669,592.1,661.8,601.2,654.2z"/>
		<path class="st1" d="M520.1,659.7c9.3-4.9,18.3-10.3,27.1-16.1l-2.8-4.2c-8.6,5.7-17.5,11-26.7,15.9L520.1,659.7z"/>
		<path class="st1" d="M525.4,665.8l9.5,17.7l2.4,4.4c1.6-0.8,3.1-1.7,4.6-2.6c3.7-2,7.4-4.2,11-6.4l5.4-3.4
			c1.8-1.1,3.6-2.3,5.3-3.4L561,668l-10.1-15.4l-3,2l-1.1,0.7c-2.9,1.8-5.7,3.6-8.6,5.3l0.4,0.6l0,0l2.6,4.4l2,3.3l0.6,1l3.5-2.1
			l0.5,0.8l-5.2,3.1l-6.9-11.7l4.1-2.4c1.4-0.8,2.7-1.7,4-2.5c1.3-0.8,2.7-1.6,4-2.5l3.9-2.6l-2.8-4.2c-6.5,4.4-13.2,8.4-20,12.3
			l2.5,4.4l0,0l9.2,16.2c1.3-0.7,2.6-1.5,3.9-2.2l0.6-0.4l4.9-2.9l4.8-3l-0.8-1.3l-1.9-3l-0.5-0.8l-2.4-3.8l-0.3-0.5l-3.4,2.1
			l-0.4-0.7l4.5-2.8l7.2,11.3c-2.8,1.7-5.6,3.5-8.5,5.2l-4.3,2.5c-1.4,0.8-2.9,1.6-4.3,2.4l-9.8-17.6l0,0l-2.5-4.4l-2.9,1.6
			l-2.9,1.6l2.4,4.4L525.4,665.8z"/>
		<path class="st1" d="M569.8,677.6l-2.8-4.2c-9.7,6.5-19.8,12.5-30.1,18l2.4,4.4C549.8,690.2,560,684.2,569.8,677.6z"/>
		<path class="st1" d="M488.6,674.3c9.8-3.9,19.3-8.3,28.7-13.1l-2.3-4.5c-9.2,4.8-18.6,9.1-28.2,12.9L488.6,674.3z"/>
		<path class="st1" d="M493.2,681l7.6,18.6l1.9,4.7l4.9-2c7.8-3.3,15.5-6.9,23.1-10.8l-2.3-4.5l-8.4-16.4l-3.3,1.6l-1.2,0.6
			l-2.3,1.1l-2.3,1.1l-4.6,2.1l0.3,0.7l0,0l2.1,4.6l1.6,3.5l0.5,1l3.6-1.7l0.4,0.9c-1.8,0.8-3.6,1.7-5.4,2.5l-5.5-12.4
			c2.9-1.3,5.7-2.6,8.6-4l4.2-2.1c1.4-0.7,2.8-1.4,4.2-2.1l-2.3-4.5c-1.7,0.9-3.5,1.8-5.2,2.6c-1.7,0.9-3.5,1.8-5.3,2.6l-5.3,2.5
			l-5.4,2.3l2,4.6l0,0l7.3,17.1l4.1-1.8l0.7-0.3c1.7-0.7,3.4-1.6,5.1-2.4c1.7-0.8,3.4-1.6,5.1-2.4l-0.6-1.3l-1.6-3.2l-0.4-0.9l-2-4
			l-0.3-0.5c-1.2,0.6-2.4,1.1-3.6,1.7l-0.3-0.7l2.4-1.1l2.4-1.2l5.9,12c-3,1.5-6,2.9-9,4.3c-3,1.4-6.1,2.7-9.1,4l-7.8-18.5l0,0
			l-2-4.6l-6.1,2.5l1.9,4.7L493.2,681z"/>
		<path class="st1" d="M536.1,697.5l-2.3-4.5c-10.4,5.4-21,10.2-31.9,14.6l1.9,4.7C514.8,707.9,525.6,702.9,536.1,697.5z"/>
		<path class="st1" d="M455.8,685.3c10.1-2.8,20.1-6.1,29.9-9.9l-1.8-4.7c-9.6,3.7-19.5,7-29.4,9.8L455.8,685.3z"/>
		<path class="st1" d="M459.6,692.5l5.5,19.4l1.4,4.8l5.1-1.5c2-0.6,4.1-1.2,6.1-1.9l6.1-2c4-1.4,8-2.8,12-4.3l-1.8-4.7l-6.5-17.2
			l-3.4,1.3c-0.4,0.2-0.8,0.3-1.2,0.4c-3.2,1.1-6.3,2.3-9.6,3.3l0.2,0.7l0,0l1.6,4.8l1.2,3.7l0.4,1.1c1.3-0.4,2.6-0.8,3.8-1.3
			l0.3,0.9c-1.9,0.7-3.8,1.2-5.7,1.9l-4.2-12.9l4.5-1.5l4.4-1.6c3-1,5.9-2.2,8.8-3.3l-1.8-4.7l-5.5,2.1l-5.5,1.9
			c-1.8,0.7-3.7,1.3-5.6,1.9c-1.9,0.6-3.7,1.2-5.6,1.8l1.5,4.8l0,0l5.4,17.8c1.4-0.4,2.9-0.9,4.3-1.3l0.7-0.2
			c1.8-0.6,3.6-1.1,5.4-1.8l5.3-1.9l-0.5-1.4l-1.2-3.3l-0.3-0.9l-1.5-4.2l-0.2-0.5l-3.7,1.3l-0.3-0.8l5-1.7l4.6,12.5
			c-6.2,2.2-12.5,4.4-18.9,6.2l-5.8-19.3l0,0l-1.4-4.8c-2.1,0.6-4.2,1.3-6.4,1.8l1.3,4.8L459.6,692.5z"/>
		<path class="st1" d="M500.5,713.6l-1.8-4.7c-10.9,4.2-22,7.9-33.3,11l1.3,4.8C478.1,721.6,489.4,717.9,500.5,713.6z"/>
		<path class="st1" d="M421.9,692.7c10.4-1.7,20.6-3.9,30.8-6.6l-1.3-4.9c-10,2.7-20.1,4.8-30.3,6.5L421.9,692.7z"/>
		<path class="st1" d="M424.9,700.3l3.3,19.8l0.8,5c1.7-0.3,3.5-0.6,5.2-0.9l6.3-1.2c2.1-0.4,4.2-0.9,6.2-1.3l3.1-0.7l3.1-0.8
			c2.1-0.5,4.1-1,6.2-1.5l-1.3-4.9l-4.6-17.8c-1.2,0.3-2.4,0.6-3.5,0.9l-1.3,0.3c-1.6,0.4-3.3,0.8-4.9,1.2l-4.9,1.1l0.2,0.7l0,0
			l1.1,5l0.8,3.8l0.2,1.1l3.9-0.9l0.2,1l-5.9,1.3l-2.7-13.3l4.6-1c1.5-0.3,3.1-0.6,4.6-1c3-0.8,6.1-1.4,9.1-2.3l-1.3-4.9
			c-7.5,2-15.2,3.8-22.8,5.2l0.9,4.9l0,0l3.5,18.3l4.4-0.8c0.2,0,0.5-0.1,0.7-0.1l5.5-1.2l2.8-0.6l2.7-0.7l-0.3-1.4L450,709l-0.2-1
			l-1-4.3l-0.1-0.6c-1.3,0.3-2.6,0.6-3.9,0.9l-0.2-0.8c1.7-0.4,3.4-0.8,5.1-1.2l3.2,13c-1.6,0.4-3.2,0.8-4.8,1.2l-4.9,1.1
			c-3.2,0.7-6.5,1.3-9.7,1.9l-3.6-19.8l0,0l-0.9-4.9l-1.6,0.3l-1.6,0.3l-3.3,0.5l0.8,5L424.9,700.3z"/>
		<path class="st1" d="M463.2,725.7l-1.3-4.9c-11.3,3-22.7,5.5-34.3,7.3l0.8,5C440.2,731.2,451.7,728.8,463.2,725.7z"/>
		<path class="st1" d="M387.4,696.5c10.5-0.6,21-1.6,31.4-3.2l-0.8-5c-10.2,1.6-20.5,2.6-30.9,3.2L387.4,696.5z"/>
		<path class="st1" d="M389.6,704.3l1.2,20.1l0.3,5l5.3-0.3c2.1-0.1,4.2-0.4,6.3-0.5l3.2-0.3l3.2-0.4l6.3-0.7l6.3-0.9l-0.7-5
			l-2.7-18.2l-3.6,0.5l-1.3,0.2c-1.7,0.3-3.3,0.4-5,0.6c-1.7,0.2-3.3,0.4-5,0.6l0.1,0.7h0l0.5,5.1l0.4,3.9l0.1,1.1
			c1.3-0.1,2.7-0.3,4-0.4l0.1,1c-2,0.2-4,0.5-6,0.6l-1.3-13.5l2.3-0.2l2.3-0.3l4.7-0.5c3.1-0.4,6.2-0.9,9.3-1.3l-0.8-5
			c-7.7,1.1-15.5,2.1-23.3,2.7l0.4,5h0l1.5,18.5l4.5-0.4l0.7-0.1c0.9-0.1,1.9-0.2,2.8-0.3l2.8-0.3l5.6-0.6l-0.2-1.5l-0.4-3.5l-0.1-1
			l-0.6-4.4l-0.1-0.6l-3.9,0.4l-0.1-0.8c1.7-0.2,3.5-0.4,5.2-0.6l1.7,13.2c-3.3,0.4-6.6,0.8-9.9,1.2c-3.3,0.3-6.6,0.6-9.9,0.9
			l-1.5-20.1h0l-0.4-5l-6.6,0.4l0.3,5L389.6,704.3z"/>
		<path class="st1" d="M424.9,733.7l-0.8-5c-11.6,1.8-23.2,3-34.9,3.6l0.3,5C401.4,736.7,413.2,735.5,424.9,733.7z"/>
		<path class="st1" d="M352.6,696.5c10.5,0.6,21,0.6,31.6,0.1l-0.2-5c-10.3,0.5-20.7,0.4-31.1-0.1L352.6,696.5z"/>
		<path class="st1" d="M354,704.5l-1,20.1l-0.2,5l5.3,0.2c1.1,0,2.1,0.1,3.2,0.1l3.2,0c2.1,0,4.2,0.1,6.4,0.1
			c4.2-0.1,8.5-0.1,12.7-0.3l-0.2-5l-0.7-18.4l-3.6,0.1c-0.4,0-0.9,0-1.3,0l-5.1,0.1l-2.5,0l-2.5,0l0,0.7h0l0,5.1l0,3.9l0,1.1
			c1.3,0,2.7,0,4,0l0,1c-2,0-4,0-6,0l0.2-13.6c1.6,0,3.1,0.1,4.7,0.1l4.7-0.1c3.1,0,6.3-0.2,9.4-0.3l-0.2-5l-5.9,0.2l-5.9,0.1
			c-1,0-2,0-2.9,0l-2.9,0c-2,0-3.9,0-5.9-0.1l-0.1,5h0l-0.5,18.6c1.5,0.1,3,0,4.5,0.1l0.7,0c1.9,0,3.8,0.1,5.6,0l5.6-0.1l0-1.5
			l-0.1-3.5l0-1l-0.1-4.5l0-0.6l-4,0l0-0.8l5.3-0.1l0.3,13.3l-5,0.1c-1.7,0-3.3,0.1-5,0l-5-0.1l-2.5,0l-2.5-0.1l0.7-20.1h0l0.2-5
			c-2.2-0.1-4.4-0.1-6.6-0.3l-0.3,5C352.8,704.4,353.4,704.5,354,704.5z"/>
		<path class="st1" d="M386,737.5l-0.2-5c-11.7,0.5-23.3,0.5-35-0.2l-0.3,5C362.3,738,374.1,738,386,737.5z"/>
		<path class="st1" d="M318.1,692.7c10.4,1.7,20.8,2.9,31.3,3.5l0.3-5c-10.3-0.7-20.6-1.8-30.8-3.5L318.1,692.7z"/>
		<path class="st1" d="M318.6,700.9l-3.1,19.9l-0.8,5c1.7,0.3,3.5,0.5,5.2,0.8c8.4,1.2,16.9,2.1,25.3,2.7l0.3-5l1.3-18.3
			c-1.2-0.1-2.4-0.1-3.6-0.3l-1.3-0.1l-5-0.4c-1.7-0.2-3.3-0.4-5-0.6l-0.1,0.7h0l-0.6,5.1l-0.4,3.9l-0.1,1.1l4,0.5l-0.1,1l-6-0.7
			l1.6-13.5c3.1,0.3,6.2,0.7,9.4,1l4.7,0.4c1.6,0.1,3.1,0.2,4.7,0.3l0.3-5c-3.9-0.2-7.8-0.6-11.7-0.9c-1.9-0.2-3.9-0.4-5.8-0.6
			l-2.9-0.3l-2.9-0.4l-0.7,5h0l-2.5,18.4c1.5,0.2,3,0.4,4.4,0.6l0.7,0.1l5.6,0.6c1.9,0.2,3.7,0.3,5.6,0.5l0.1-1.5l0.3-3.5l0.1-1
			l0.4-4.4l0-0.6l-3.9-0.3l0.1-0.8l5.2,0.5l-1.1,13.3l-4.9-0.4c-1.6-0.1-3.3-0.4-4.9-0.5l-4.9-0.6l-4.9-0.7l2.8-19.9l0,0l0.7-5
			l-3.3-0.5l-3.3-0.5l-0.8,5L318.6,700.9z"/>
		<path class="st1" d="M346.9,737.1l0.3-5c-11.7-0.7-23.3-2-34.8-3.9l-0.8,5C323.3,735,335,736.4,346.9,737.1z"/>
		<path class="st1" d="M284.2,685.3c10.1,2.8,20.4,5.1,30.8,6.9l0.9-5c-10.2-1.8-20.3-4-30.3-6.8L284.2,685.3z"/>
		<path class="st1" d="M283.9,693.5l-5.3,19.4l-1.3,4.9c1.7,0.5,3.4,0.9,5.1,1.4c8.2,2.1,16.5,3.9,24.9,5.4l0.9-4.9h0l3.2-18.1
			l-3.6-0.7l-1.3-0.2c-3.3-0.6-6.6-1.4-9.9-2.1l-0.2,0.7l0,0l-1.1,5l-0.9,3.8l-0.3,1.1l3.9,0.9l-0.2,1c-1.9-0.4-3.9-0.8-5.9-1.3
			l3.1-13.2c3.1,0.7,6.1,1.4,9.2,2l4.6,0.9c1.5,0.3,3.1,0.6,4.6,0.8l0.9-5c-7.7-1.4-15.4-2.9-22.9-4.8l-1.2,4.9l0,0l-4.5,18l4.4,1.1
			l0.7,0.2c1.8,0.4,3.7,0.8,5.5,1.2c1.8,0.4,3.7,0.8,5.5,1.2l0.3-1.5l0.7-3.5l0.2-1l0.9-4.4l0.1-0.6l-1.9-0.4l-1.9-0.4l0.2-0.8
			c1.7,0.4,3.4,0.7,5.2,1l-2.5,13.1c-6.5-1.2-13-2.7-19.4-4.3l5-19.5l0,0l1.2-4.9c-2.1-0.5-4.3-1.1-6.4-1.7l-1.3,4.8L283.9,693.5z"
			/>
		<path class="st1" d="M308,732.6l0.9-5c-11.5-2-22.9-4.6-34.2-7.7l-1.3,4.8C284.7,727.9,296.3,730.5,308,732.6z"/>
		<path class="st1" d="M251.4,674.3c9.8,3.9,19.7,7.3,29.8,10.2l1.4-4.8c-9.9-2.9-19.7-6.2-29.3-10L251.4,674.3z"/>
		<path class="st1" d="M250.1,682.3l-7.4,18.7l-1.8,4.7l5,1.9c8,3,16,5.7,24.2,8.1l1.4-4.8l5.2-17.6l-3.5-1l-1.3-0.4l-4.8-1.6
			c-1.6-0.5-3.2-1-4.8-1.6l-0.2,0.7l0,0l-1.7,4.8l-1.3,3.7l-0.4,1.1l1.9,0.7l1.9,0.6l-0.3,0.9c-1.9-0.6-3.8-1.3-5.7-1.9l4.5-12.8
			c1.5,0.5,3,1.1,4.5,1.5l4.5,1.5l2.2,0.7l2.3,0.7l4.5,1.3l1.4-4.8c-7.5-2.2-14.9-4.6-22.3-7.3l-1.7,4.7l0,0l-6.4,17.5
			c1.4,0.5,2.8,1,4.2,1.5l0.7,0.2c3.5,1.3,7.1,2.4,10.7,3.6l0.4-1.4l1.1-3.4l0.3-0.9l1.3-4.2l0.2-0.5l-3.8-1.2l0.2-0.8l5,1.6
			l-4,12.7c-3.1-1-6.3-2-9.4-3.1l-4.7-1.7l-2.3-0.8l-2.3-0.9l7.1-18.8l0,0l1.8-4.7c-2.1-0.8-4.1-1.5-6.2-2.4l-1.9,4.7
			C249,681.9,249.5,682.1,250.1,682.3z"/>
		<path class="st1" d="M269.9,723.8l1.4-4.8c-11.2-3.2-22.3-7-33.2-11.4l-1.9,4.7C247.2,716.7,258.4,720.5,269.9,723.8z"/>
		<path class="st1" d="M219.9,659.7c9.3,4.9,18.8,9.4,28.5,13.4l1.9-4.7c-9.6-3.9-18.9-8.3-28.1-13.2L219.9,659.7z"/>
		<path class="st1" d="M217.8,667.5l-9.3,17.8l-2.3,4.5c1.6,0.8,3.1,1.7,4.7,2.4l5.7,2.8l5.8,2.7c1.9,0.9,3.9,1.8,5.8,2.6
			c2,0.8,3.9,1.7,5.9,2.5l1.9-4.6l7.1-17c-1.1-0.4-2.2-0.9-3.3-1.4l-1.2-0.5c-1.5-0.7-3.1-1.3-4.6-2l-4.6-2.1l-0.3,0.7l0,0l-2.2,4.6
			l-1.7,3.5l-0.5,1l3.6,1.7l-0.4,0.9l-5.4-2.5l5.9-12.2c5.7,2.7,11.4,5.3,17.2,7.6l1.9-4.7c-1.8-0.7-3.6-1.5-5.4-2.3l-5.4-2.4
			c-3.5-1.7-7.1-3.3-10.6-5.1l-2.2,4.5l0,0l-8.3,16.6l4,2l0.7,0.3c3.4,1.6,6.8,3.2,10.3,4.7l0.6-1.4l1.4-3.2l0.4-0.9l1.8-4.1
			l0.2-0.5c-1.2-0.5-2.4-1-3.6-1.6l0.3-0.7c1.6,0.7,3.2,1.4,4.8,2.1l-5.3,12.2l-4.6-2l-4.5-2.1c-3-1.4-6-2.9-8.9-4.4l9.1-18l0,0
			l2.3-4.5c-2-1-3.9-2-5.9-3.1l-2.4,4.4L217.8,667.5z"/>
		<path class="st1" d="M232.9,710.9l1.9-4.7c-10.8-4.4-21.4-9.4-31.7-14.9l-2.4,4.4C211.2,701.4,221.9,706.4,232.9,710.9z"/>
		<path class="st1" d="M190.2,641.8c8.7,5.9,17.7,11.4,26.9,16.4l2.4-4.4c-9.1-4.9-17.9-10.3-26.5-16.2L190.2,641.8z"/>
		<path class="st1" d="M187.2,649.3L176,666l-2.8,4.2l4.4,2.9c1.8,1.2,3.6,2.3,5.4,3.4c1.8,1.1,3.6,2.3,5.4,3.3l5.5,3.2l5.6,3.1
			l2.4-4.4l8.9-16.1l-3.2-1.8l-1.1-0.6c-1.5-0.8-2.9-1.7-4.4-2.6c-1.4-0.9-2.9-1.7-4.3-2.6l-0.4,0.6l0,0l-2.7,4.3l-2,3.3l-0.6,1
			c1.1,0.7,2.3,1.4,3.4,2.1l-0.5,0.8l-2.6-1.5l-2.5-1.6l7.2-11.5c5.3,3.3,10.8,6.5,16.3,9.5l2.4-4.4c-6.9-3.8-13.6-7.7-20.2-11.9
			l-2.7,4.2l0,0l-10,15.7l3.8,2.4l0.6,0.4c3.2,2,6.4,3.9,9.7,5.8l0.7-1.3l1.8-3.1l0.5-0.8l2.2-3.9l0.3-0.5l-3.4-2l0.4-0.7
			c1.5,0.9,3,1.8,4.5,2.7l-6.6,11.6c-2.9-1.7-5.7-3.3-8.6-5.1l-4.2-2.6c-1.4-0.9-2.8-1.8-4.2-2.7l11-16.9l0,0l2.7-4.2
			c-1.8-1.2-3.7-2.4-5.5-3.7l-2.8,4.2C186.2,648.7,186.7,649,187.2,649.3z"/>
		<path class="st1" d="M197.5,694.1l2.4-4.4c-10.3-5.6-20.2-11.7-29.9-18.3l-2.8,4.2C177,682.3,187.1,688.4,197.5,694.1z"/>
		<path class="st1" d="M162.6,620.7c8,6.8,16.3,13.2,25,19.2l2.9-4.1c-8.5-5.9-16.7-12.2-24.6-18.9L162.6,620.7z"/>
		<path class="st1" d="M158.8,627.9l-12.9,15.4l-3.2,3.8c1.3,1.1,2.7,2.3,4.1,3.4l5,4l5,3.9c1.7,1.3,3.4,2.5,5.1,3.8
			c1.7,1.2,3.4,2.5,5.2,3.7l2.9-4.1l10.6-15l-1.5-1l-1.5-1.1l-1.1-0.8l-4.1-3l-4-3.1l-0.5,0.6l0,0l-3.1,4l-2.4,3.1l-0.7,0.9l3.2,2.4
			l-0.6,0.8l-4.8-3.6l8.4-10.7c5,3.8,10,7.6,15.2,11.2l2.9-4.1c-3.2-2.2-6.4-4.5-9.5-6.8c-3.1-2.4-6.2-4.7-9.2-7.2l-3.2,3.9l0,0
			l-11.7,14.5l3.5,2.8l0.6,0.4c3,2.3,5.9,4.6,9,6.8l0.9-1.2l2.1-2.9l0.6-0.8l2.6-3.6l0.3-0.5l-3.2-2.3l0.5-0.6l4.2,3.1l-7.8,10.8
			l-4-2.9l-3.9-3c-2.6-2-5.2-4.1-7.8-6.2l12.7-15.6l0,0l3.2-3.9c-1.7-1.4-3.4-2.8-5.1-4.2l-3.3,3.8L158.8,627.9z"/>
		<path class="st1" d="M164.2,673.6l2.9-4.1c-9.6-6.7-18.9-13.8-27.8-21.4l-3.3,3.8C145.1,659.6,154.5,666.8,164.2,673.6z"/>
		<path class="st1" d="M137.4,596.9c7.2,7.6,14.8,14.9,22.8,21.8l3.3-3.8c-7.8-6.8-15.3-13.9-22.4-21.5L137.4,596.9z"/>
		<path class="st1" d="M132.8,603.6l-14.5,13.9l-3.6,3.5l3.7,3.8c6,6,12.1,11.9,18.5,17.5l3.3-3.8l12.1-13.8l-2.7-2.4l-1-0.9
			c-1.3-1.1-2.5-2.3-3.7-3.4c-1.2-1.2-2.5-2.3-3.7-3.5l-0.5,0.5l0,0l-3.5,3.7l-2.7,2.8l-0.8,0.8c0.9,0.9,1.9,1.8,2.9,2.8l-0.7,0.7
			c-0.7-0.7-1.5-1.4-2.2-2l-2.1-2.1l9.5-9.7c4.5,4.4,9.2,8.6,13.9,12.8l3.3-3.8c-5.9-5.1-11.6-10.5-17.1-16l-3.6,3.5l0,0l-13.2,13.1
			l3.2,3.1l0.5,0.5c2.7,2.7,5.5,5.2,8.2,7.7l1-1.1l2.4-2.6l0.7-0.7l3-3.3l0.4-0.4l-2.9-2.7l0.5-0.6c1.3,1.2,2.6,2.4,3.9,3.6l-9,9.9
			c-2.4-2.2-4.9-4.5-7.3-6.8l-3.6-3.5l-1.8-1.7l-1.7-1.8l14.3-14.1l0,0l3.6-3.5c-1.5-1.6-3.1-3.1-4.6-4.8l-3.6,3.5
			C132,602.8,132.4,603.2,132.8,603.6z"/>
		<path class="st1" d="M133.3,649.6l3.3-3.8c-8.8-7.7-17.3-15.7-25.3-24.2l-3.6,3.5C115.8,633.6,124.4,641.8,133.3,649.6z"/>
		<path class="st1" d="M114.9,570.4c6.4,8.4,13.1,16.4,20.3,24.1l3.7-3.4c-7-7.6-13.7-15.5-20-23.8L114.9,570.4z"/>
		<path class="st1" d="M109.7,576.6l-15.9,12.3l-4,3.1c1.1,1.4,2.1,2.8,3.3,4.2l4,5l4.1,4.9c1.4,1.6,2.8,3.2,4.2,4.8
			c1.4,1.6,2.8,3.2,4.3,4.7l3.7-3.4l13.5-12.4c-0.8-0.9-1.6-1.8-2.4-2.7l-0.9-1l-3.3-3.8l-3.3-3.9l-0.6,0.5l0,0l-3.9,3.3l-3,2.5
			l-0.9,0.7l2.6,3.1l-0.7,0.6l-3.9-4.6l10.5-8.7c4,4.8,8.1,9.6,12.5,14.2l3.7-3.4c-2.7-2.8-5.2-5.8-7.8-8.7c-2.5-3-5.1-5.9-7.5-9
			l-3.9,3.1l0,0l-14.5,11.6l2.8,3.5l0.5,0.6c2.4,2.9,4.8,5.8,7.3,8.6l1.1-1l2.7-2.3l0.7-0.7l3.3-2.9l0.4-0.4c-0.9-1-1.8-2-2.6-3
			l0.6-0.5c1.1,1.3,2.3,2.6,3.5,3.9l-10,8.9l-3.3-3.7l-3.2-3.8c-2.2-2.5-4.2-5.1-6.3-7.7l15.8-12.5l0,0l3.9-3.1l-1-1.3l-1-1.3
			l-2-2.6l-4,3L109.7,576.6z"/>
		<path class="st1" d="M105.2,622.4l3.7-3.4c-8-8.6-15.5-17.5-22.6-26.8l-4,3C89.5,604.6,97.1,613.7,105.2,622.4z"/>
		<path class="st1" d="M95.4,541.7c5.4,9,11.3,17.7,17.6,26.2l4-3c-6.2-8.3-12-16.9-17.3-25.8L95.4,541.7z"/>
		<path class="st1" d="M89.5,547.3l-17.2,10.5l-4.3,2.6l2.8,4.5c4.6,7.2,9.3,14.2,14.3,21l4-3l14.8-10.9l-2.1-2.9l-0.8-1.1
			c-1-1.4-1.9-2.8-2.9-4.2c-1-1.4-1.9-2.8-2.8-4.2l-0.6,0.4l0,0l-4.2,2.8l-3.2,2.2l-0.9,0.6c0.7,1.1,1.5,2.2,2.3,3.3l-0.8,0.6
			c-1.2-1.6-2.2-3.3-3.3-5l11.3-7.5c3.4,5.3,7.1,10.4,10.8,15.4l4-3c-4.7-6.3-9.1-12.7-13.3-19.3l-4.2,2.7l0,0l-15.7,10
			c0.8,1.3,1.6,2.5,2.5,3.7l0.4,0.6c2,3.2,4.2,6.2,6.4,9.3l1.2-0.9l2.9-2l0.8-0.6l3.6-2.6l0.5-0.3l-2.3-3.3l0.7-0.5
			c1,1.4,2,2.9,3,4.3l-10.9,7.8c-1.9-2.7-3.8-5.4-5.7-8.2l-2.7-4.2l-1.4-2.1l-1.3-2.1l17-10.7l0,0l4.3-2.7c-1.2-1.9-2.4-3.7-3.5-5.6
			l-4.3,2.6C88.9,546.3,89.2,546.8,89.5,547.3z"/>
		<path class="st1" d="M80.2,592.3l4-3c-7-9.4-13.5-19.1-19.5-29.1l-4.3,2.6C66.5,573,73.1,582.8,80.2,592.3z"/>
		<path class="st1" d="M79.1,511.1c4.4,9.5,9.3,18.8,14.6,27.9l4.3-2.6c-5.3-8.9-10.1-18.1-14.4-27.5L79.1,511.1z"/>
		<path class="st1" d="M72.7,516l-18.2,8.6l-4.6,2.1c0.7,1.6,1.5,3.2,2.3,4.8l2.8,5.7l3,5.6c1,1.9,2,3.7,3.1,5.6
			c1,1.9,2,3.7,3.1,5.5l4.3-2.5l15.9-9.2c-0.6-1-1.2-2.1-1.8-3.2l-0.6-1.1l-2.5-4.4l-2.4-4.5l-0.7,0.3l0,0l-4.5,2.4l-3.4,1.8l-1,0.5
			l1.9,3.6l-0.9,0.5l-2.8-5.3l12.1-6.2c2.9,5.6,5.9,11.1,9.1,16.5l4.3-2.6c-1-1.7-2-3.4-2.9-5.1l-2.9-5.1c-1.8-3.5-3.7-6.9-5.4-10.4
			l-4.5,2.2l0,0l-16.7,8.3l2,4l0.3,0.6c1.8,3.3,3.5,6.7,5.3,9.9l1.3-0.7l3.1-1.7l0.9-0.5l3.9-2.2l0.5-0.3c-0.6-1.2-1.3-2.3-1.9-3.5
			l0.7-0.4c0.8,1.5,1.7,3.1,2.6,4.6L66,546.9l-2.4-4.3l-2.3-4.4c-1.6-2.9-3-5.9-4.5-8.9l18.1-8.8l0,0l4.5-2.2c-1-2-1.9-4-2.8-6
			l-4.6,2.1L72.7,516z"/>
		<path class="st1" d="M58.5,559.8l4.3-2.6c-5.9-10.1-11.4-20.4-16.3-31l-4.6,2.1C47,539,52.5,549.5,58.5,559.8z"/>
		<path class="st1" d="M66.3,478.8c3.4,10,7.2,19.7,11.5,29.3l4.6-2.1c-4.3-9.4-8-19.1-11.3-28.9L66.3,478.8z"/>
		<path class="st1" d="M59.3,483.1l-19,6.5l-4.8,1.6l1.8,5c0.7,2,1.5,4,2.2,6c0.8,2,1.5,4,2.3,5.9l2.4,5.9l2.5,5.8l4.6-2l16.8-7.5
			l-1.5-3.3l-0.5-1.2c-0.7-1.5-1.3-3.1-1.9-4.7c-0.6-1.6-1.3-3.1-1.9-4.7l-0.7,0.3l0,0l-4.7,1.9l-3.6,1.4l-1.1,0.4
			c0.5,1.3,1,2.5,1.5,3.7l-0.9,0.4l-1.1-2.8l-1.1-2.8l12.7-4.9c2.2,5.9,4.7,11.7,7.2,17.4l4.6-2.1c-3.2-7.1-6.1-14.4-8.9-21.7
			l-4.7,1.7l0,0l-17.5,6.4l1.6,4.2l0.3,0.7l1,2.6c0.3,0.9,0.7,1.7,1.1,2.6l2.1,5.2l1.4-0.6l3.3-1.4l0.9-0.4l4.1-1.7l0.5-0.2
			l-1.5-3.7l0.7-0.3c0.7,1.6,1.3,3.3,2,4.9L49.3,513c-1.3-3.1-2.5-6.1-3.8-9.2l-1.8-4.6c-0.6-1.5-1.2-3.1-1.7-4.7l18.9-6.8l0,0
			l4.7-1.7l-2.2-6.2l-4.8,1.6C58.9,482,59.1,482.5,59.3,483.1z"/>
		<path class="st1" d="M40.5,525l4.6-2.1c-4.8-10.7-9.1-21.5-12.8-32.6l-4.8,1.6C31.3,503.2,35.6,514.2,40.5,525z"/>
		<path class="st1" d="M57,445.4c2.2,10.3,5,20.4,8.3,30.4l4.8-1.6c-3.2-9.8-5.9-19.8-8.1-29.9L57,445.4z"/>
		<path class="st1" d="M49.6,448.9L30,453.3l-4.9,1.1c0.4,1.7,0.8,3.4,1.2,5.2c1.9,8.3,4.3,16.4,6.9,24.5l4.8-1.5l17.5-5.6
			c-0.4-1.2-0.8-2.3-1.1-3.5l-0.4-1.3l-1.4-4.8c-0.5-1.6-0.9-3.3-1.3-4.9l-0.7,0.2l0,0l-4.9,1.3l-3.8,1l-1.1,0.3l1.1,3.9l-0.9,0.3
			l-1.6-5.8l13.1-3.5c0.8,3,1.6,6.1,2.5,9.1l1.3,4.5l1.4,4.5l4.8-1.6c-1.2-3.7-2.3-7.5-3.4-11.2c-0.5-1.9-1-3.8-1.5-5.7l-0.8-2.8
			l-0.7-2.8l-4.9,1.2l0,0l-18.1,4.5c0.4,1.4,0.7,2.9,1.1,4.3l0.2,0.7l1.5,5.4c0.5,1.8,1.1,3.6,1.6,5.4l1.4-0.4l3.4-1l0.9-0.3
			l4.3-1.3l0.6-0.2l-1.1-3.8l0.8-0.2l1.5,5l-12.8,3.9l-1.4-4.8c-0.5-1.6-0.9-3.2-1.3-4.8l-1.3-4.8l-1.2-4.8l19.6-4.7l0,0l4.9-1.2
			l-0.8-3.2l-0.7-3.2l-4.9,1.1L49.6,448.9z"/>
		<path class="st1" d="M26.4,488.5l4.8-1.6c-3.6-11.1-6.7-22.4-9.2-33.8l-4.9,1.1C19.6,465.8,22.7,477.2,26.4,488.5z"/>
		<path class="st1" d="M51.4,411.2c1.1,10.5,2.8,20.8,4.9,31.1l4.9-1c-2.1-10.1-3.7-20.3-4.8-30.6L51.4,411.2z"/>
		<path class="st1" d="M43.7,413.8l-20,2.3l-5,0.6l0.6,5.3c1.1,8.4,2.5,16.8,4.2,25.1l4.9-1l18-3.6l-0.7-3.6l-0.2-1.3L45,435
			l-0.4-2.5l-0.8-5l-0.7,0.1v0l-5,0.8l-3.8,0.6l-1.1,0.2l0.7,4l-1,0.2c-0.3-2-0.7-3.9-0.9-5.9l13.4-2c0.5,3.1,1,6.2,1.5,9.3
			c0.6,3.1,1.2,6.2,1.8,9.3l4.9-1c-0.4-1.9-0.8-3.8-1.1-5.7c-0.4-1.9-0.7-3.8-1-5.8l-1-5.8l-0.8-5.8l-5,0.7v0L26.1,423l0.6,4.4
			l0.1,0.7c0.2,1.9,0.6,3.7,0.9,5.6c0.3,1.9,0.6,3.7,1,5.6l1.5-0.3l3.5-0.6l1-0.2l4.4-0.8l0.6-0.1c-0.3-1.3-0.5-2.6-0.7-3.9l0.8-0.1
			l0.4,2.6l0.5,2.6l-13.1,2.5l-0.5-2.4l-0.4-2.4l-0.8-4.9c-0.5-3.3-0.9-6.6-1.4-9.8l20-2.6l0,0l5-0.6l-0.8-6.6l-5,0.5L43.7,413.8z"
			/>
		<path class="st1" d="M16.3,450.7l4.9-1c-2.4-11.4-4.2-23-5.5-34.6l-5,0.5C12,427.3,13.8,439,16.3,450.7z"/>
		<path class="st1" d="M49.6,376.5c0,10.5,0.5,21,1.5,31.5l5-0.5c-1-10.3-1.5-20.6-1.5-31H49.6z"/>
		<path class="st1" d="M41.6,378.3l-20.1,0.1l-5,0l0.1,5.3c0.2,8.5,0.6,17,1.4,25.4l5-0.5l18.3-1.7l-0.3-3.6l-0.1-1.3l-0.3-5
			c-0.1-1.7-0.2-3.4-0.3-5l-0.7,0v0l-5.1,0.2l-3.9,0.2l-1.1,0.1c0,1.3,0.1,2.7,0.2,4l-1,0.1c-0.1-2-0.2-4-0.3-6l13.6-0.5
			c0.2,6.3,0.7,12.6,1.3,18.8l5-0.5c-0.8-7.8-1.2-15.6-1.4-23.4l-5,0.1v0l-18.6,0.5l0.2,4.5l0,0.7c0.1,3.8,0.4,7.5,0.6,11.3l1.5-0.1
			l3.5-0.3l1-0.1l4.4-0.3l0.6,0l-0.3-3.9l0.8,0l0.3,5.3l-13.3,1c-0.2-3.3-0.4-6.6-0.6-9.9l-0.2-5c-0.1-1.7-0.1-3.3-0.1-5l20.1-0.4v0
			l5-0.1l-0.1-6.6h-5L41.6,378.3z"/>
		<path class="st1" d="M10.4,412l5-0.5c-1.1-11.6-1.7-23.3-1.7-35h-5C8.6,388.3,9.2,400.2,10.4,412z"/>
		<path class="st1" d="M51.4,341.8c-1.1,10.5-1.7,21-1.8,31.5l5,0c0.1-10.4,0.7-20.7,1.8-31L51.4,341.8z"/>
		<path class="st1" d="M43.3,342.8l-20-2l-5-0.5l-0.5,5.3c-0.4,4.2-0.6,8.5-0.9,12.7l-0.2,6.4c0,1.1-0.1,2.1-0.1,3.2l0,3.2l5,0.1
			l18.4,0.3c0-1.2,0-2.4,0.1-3.6l0.1-1.3c0.1-3.4,0.2-6.7,0.5-10.1l-0.7,0v0l-5.1-0.3l-3.9-0.2l-1.1-0.1c-0.1,1.3-0.2,2.7-0.2,4
			l-1,0c0.1-2,0.2-4,0.4-6l13.5,0.9l-0.3,4.7c-0.1,1.6-0.1,3.1-0.2,4.7c-0.1,1.6-0.1,3.1-0.2,4.7l-0.1,4.7l5,0
			c0-7.8,0.5-15.6,1.1-23.4l-5-0.4v0L24.2,348c-0.1,1.5-0.2,3-0.3,4.5l0,0.7l-0.4,5.6l-0.2,5.6l1.5,0.1l3.5,0.1l1,0l4.4,0.2l0.6,0
			l0.2-4l0.8,0l-0.2,5.3l-13.3-0.4l0.2-5l0.1-2.5l0.2-2.5c0.2-3.3,0.4-6.6,0.7-9.9l20,1.7v0l5,0.4c0.2-2.2,0.4-4.4,0.6-6.6l-5-0.5
			L43.3,342.8z"/>
		<path class="st1" d="M8.7,372.9l5,0c0.1-11.7,0.8-23.3,2-35l-5-0.5C9.5,349.2,8.8,361.1,8.7,372.9z"/>
		<path class="st1" d="M57,307.6c-2.2,10.3-4,20.6-5.2,31.1l5,0.6c1.2-10.3,2.9-20.5,5.1-30.6L57,307.6z"/>
		<path class="st1" d="M48.9,307.6l-19.7-4.2l-4.9-1l-0.6,2.6l-0.5,2.6l-1.2,6.3l-1,6.3c-0.4,2.1-0.7,4.2-0.9,6.3s-0.6,4.2-0.9,6.3
			l5,0.6l18.2,2.3c0.1-1.2,0.3-2.4,0.5-3.6l0.2-1.3c0.2-1.7,0.5-3.3,0.7-5l0.8-5l-0.7-0.1l0,0l-5-0.9L35,319l-1.1-0.2l-0.7,4l-1-0.2
			l1-5.9l13.4,2.4c-1.1,6.2-2,12.4-2.7,18.7l5,0.6l0.3-2.9l0.4-2.9c0.3-1.9,0.5-3.9,0.8-5.8c0.6-3.9,1.2-7.7,2-11.5l-4.9-0.9l0,0
			l-18.3-3.5l-0.8,4.4l-0.1,0.7c-0.6,3.7-1.3,7.4-1.8,11.1l1.5,0.2l3.5,0.5l1,0.1l4.4,0.6l0.6,0.1c0.2-1.3,0.3-2.6,0.6-3.9l0.8,0.1
			c-0.3,1.7-0.5,3.5-0.7,5.2l-13.2-1.8l0.7-4.9l0.8-4.9c0.5-3.3,1.2-6.5,1.8-9.8l19.7,3.9l0,0l4.9,1c0.4-2.2,0.9-4.3,1.4-6.5
			l-4.9-1.1L48.9,307.6z"/>
		<path class="st1" d="M11.1,333.9l5,0.6c1.4-11.6,3.3-23.1,5.8-34.6l-4.9-1.1C14.5,310.4,12.5,322.1,11.1,333.9z"/>
		<path class="st1" d="M66.2,274.2c-3.4,10-6.2,20.1-8.6,30.3l4.9,1.1c2.3-10.1,5.1-20,8.4-29.8L66.2,274.2z"/>
		<path class="st1" d="M58.2,273.3L39.1,267l-4.8-1.6l-1.6,5c-0.6,2-1.2,4.1-1.8,6.1l-0.9,3.1l-0.8,3.1c-0.5,2.1-1.1,4.1-1.6,6.2
			l-1.5,6.2l4.9,1.2l17.9,4.2l0.9-3.5l0.3-1.3c0.4-1.6,0.8-3.3,1.3-4.9l1.3-4.9l-0.7-0.2l0,0l-4.9-1.4l-3.7-1.1l-1.1-0.3l-1.1,3.9
			l-0.9-0.3c0.5-1.9,1-3.9,1.6-5.8l13,3.8l-0.7,2.3l-0.6,2.3l-1.2,4.6c-0.8,3-1.5,6.1-2.2,9.2l4.9,1.1c1.8-7.6,3.8-15.2,6.1-22.6
			l-4.8-1.5l0,0l-17.8-5.5l-1.3,4.3l-0.2,0.7c-0.6,1.8-1,3.6-1.5,5.4l-1.5,5.4l1.4,0.4l3.4,0.9l1,0.2l4.3,1.1l0.6,0.1l1-3.8l0.8,0.2
			c-0.5,1.7-0.9,3.4-1.3,5.1l-12.9-3.3c0.4-1.6,0.8-3.2,1.3-4.8l1.3-4.8c0.9-3.2,1.9-6.4,2.8-9.5l19.2,6l0,0l4.8,1.5l2-6.3l-4.8-1.6
			L58.2,273.3z"/>
		<path class="st1" d="M17.8,295.3l4.9,1.1c2.6-11.4,5.8-22.6,9.5-33.8l-4.8-1.6C23.7,272.3,20.5,283.7,17.8,295.3z"/>
		<path class="st1" d="M79.1,241.9c-4.4,9.5-8.4,19.3-11.8,29.2l4.7,1.6c3.4-9.8,7.3-19.4,11.6-28.8L79.1,241.9z"/>
		<path class="st1" d="M71.1,240.2l-18.3-8.4l-4.6-2.1c-0.8,1.6-1.4,3.2-2.2,4.8c-1.7,3.9-3.3,7.8-4.9,11.7c-0.8,2-1.5,4-2.3,5.9
			c-0.4,1-0.8,2-1.1,3l-1.1,3l4.7,1.7l17.3,6.1l1.2-3.4l0.5-1.2c1.2-3.1,2.4-6.3,3.7-9.4l-0.7-0.3l0,0l-4.7-1.9l-3.6-1.5l-1.1-0.4
			l-1.5,3.7l-0.9-0.4l2.3-5.5l12.5,5.2l-1.8,4.4c-0.6,1.5-1.1,2.9-1.7,4.4c-0.6,1.5-1.1,2.9-1.7,4.4l-1.6,4.4l4.7,1.7
			c2.5-7.4,5.4-14.7,8.5-21.8l-4.6-2l0,0L51.3,239c-0.6,1.4-1.2,2.7-1.8,4.1l-0.3,0.7l-2.1,5.2l-2,5.3l1.4,0.5l3.3,1.2l0.9,0.3
			L55,258l0.5,0.2l1.4-3.7l0.7,0.3l-1.9,4.9l-12.5-4.6c1.2-3.1,2.3-6.2,3.6-9.3l1.9-4.6l2-4.6l18.4,8.1l0,0l4.6,2l1.3-3l1.4-3
			l-4.6-2.1L71.1,240.2z"/>
		<path class="st1" d="M28.6,257.7l4.7,1.7c3.8-11,8.2-21.9,13.2-32.5l-4.6-2.1C37,235.5,32.5,246.5,28.6,257.7z"/>
		<path class="st1" d="M95.4,211.3c-5.4,9-10.4,18.3-14.9,27.8l4.5,2.2c4.4-9.3,9.3-18.5,14.7-27.3L95.4,211.3z"/>
		<path class="st1" d="M87.7,208.7l-17.3-10.3l-4.3-2.6l-2.7,4.6c-4.2,7.4-8.2,14.9-11.9,22.5l4.5,2.2l16.5,8l1.6-3.3l0.6-1.2
			l1.1-2.3l1.2-2.2l2.4-4.5l-0.6-0.4l0,0l-4.5-2.4l-3.4-1.9l-1-0.5l-1.9,3.6l-0.9-0.5c0.9-1.8,1.8-3.5,2.8-5.3l11.9,6.5
			c-1.5,2.8-3,5.5-4.4,8.3l-2.1,4.2c-0.7,1.4-1.4,2.8-2.1,4.2l4.5,2.2c0.8-1.8,1.7-3.5,2.6-5.3c0.9-1.7,1.7-3.5,2.7-5.2l2.7-5.2
			l2.9-5.1l-4.4-2.5l0,0l-16.2-9.2l-2.2,3.9l-0.4,0.6c-0.9,1.6-1.8,3.3-2.7,5c-0.9,1.7-1.8,3.3-2.6,5l1.3,0.7l3.2,1.6l0.9,0.4l4,2
			l0.5,0.3c0.6-1.2,1.2-2.4,1.8-3.5l0.7,0.4l-1.2,2.3l-1.2,2.4l-11.9-6c1.4-3,3-5.9,4.6-8.8c1.6-2.9,3.2-5.8,4.8-8.7l17.4,10l0,0
			l4.4,2.5l3.4-5.7l-4.3-2.6L87.7,208.7z"/>
		<path class="st1" d="M43.5,221.5l4.5,2.2c5-10.6,10.6-20.9,16.6-30.9l-4.3-2.6C54.2,200.3,48.6,210.8,43.5,221.5z"/>
		<path class="st1" d="M114.9,182.6c-6.4,8.4-12.3,17-17.8,26l4.3,2.6c5.4-8.8,11.3-17.3,17.6-25.6L114.9,182.6z"/>
		<path class="st1" d="M107.5,179.2l-16.1-12.1l-4-3c-1.1,1.4-2.1,2.8-3.1,4.3c-2.5,3.4-4.9,6.9-7.3,10.4c-2.3,3.5-4.7,7.1-6.9,10.7
			l4.3,2.7l15.6,9.7l1.9-3.1l0.7-1.1c1.9-2.8,3.7-5.7,5.6-8.4l-0.6-0.4l0,0l-4.2-2.9l-3.2-2.2l-0.9-0.6c-0.8,1.1-1.5,2.2-2.3,3.3
			l-0.8-0.5c1.1-1.7,2.3-3.3,3.4-4.9l11.1,7.8l-2.7,3.9c-0.9,1.3-1.7,2.6-2.6,3.9c-1.8,2.6-3.4,5.3-5.1,8l4.3,2.6
			c4.1-6.7,8.5-13.1,13-19.5l-4.1-2.9l0,0l-15.1-10.9l-1.3,1.8l-1.3,1.8l-0.4,0.6l-3.2,4.6l-3.1,4.7l1.2,0.8l3,1.9l0.8,0.5l3.7,2.4
			l0.5,0.3l2.2-3.3l0.7,0.4l-2.9,4.4L77,187.7l2.7-4.2l1.4-2.1l1.4-2l2.8-4.1c0.9-1.4,1.9-2.7,2.9-4l16.3,11.9l0,0l4.1,3l1.9-2.7
			c0.7-0.9,1.3-1.8,2-2.6l-4-3L107.5,179.2z"/>
		<path class="st1" d="M62.2,187.1l4.3,2.6c6.1-10,12.8-19.6,19.8-28.9l-4-3C75.1,167.2,68.4,177,62.2,187.1z"/>
		<path class="st1" d="M137.4,156.1c-7.2,7.6-14.1,15.6-20.5,23.9l4,3.1c6.3-8.2,13.1-16,20.2-23.6L137.4,156.1z"/>
		<path class="st1" d="M130.4,152l-14.7-13.8l-3.7-3.4l-3.6,3.9c-5.7,6.3-11.2,12.8-16.4,19.4l3.9,3.1l14.4,11.4l2.3-2.8l0.8-1
			l1.6-2c0.5-0.7,1.1-1.3,1.6-1.9l3.3-3.9l-0.6-0.5l0,0l-3.9-3.3l-2.9-2.5l-0.9-0.7l-2.6,3.1l-0.8-0.6c1.3-1.5,2.6-3.1,3.9-4.6
			l10.2,8.9c-2.1,2.4-4.1,4.8-6.1,7.2l-3,3.7c-1,1.2-2,2.4-2.9,3.7l4,3.1c1.2-1.6,2.4-3.1,3.6-4.6c1.2-1.5,2.4-3.1,3.7-4.5l3.8-4.5
			l3.9-4.4l-3.7-3.4l0,0L112,144.5l-3,3.3l-0.5,0.5c-1.3,1.4-2.4,2.9-3.7,4.3c-1.2,1.4-2.4,2.9-3.6,4.3l1.1,0.9l2.7,2.2l0.8,0.6
			l3.4,2.8l0.4,0.4c0.8-1,1.7-2,2.5-3l0.6,0.5l-1.7,2l-1.7,2.1l-10.4-8.4c2.1-2.6,4.2-5.1,6.4-7.6c2.1-2.5,4.4-5,6.6-7.5l14.9,13.5
			l0,0l3.7,3.4l4.5-4.8l-3.6-3.5L130.4,152z"/>
		<path class="st1" d="M84.5,155l4,3.1c7.2-9.2,14.8-18.1,22.8-26.6l-3.6-3.5C99.5,136.6,91.8,145.6,84.5,155z"/>
		<path class="st1" d="M162.6,132.3c-8,6.8-15.7,14-23,21.6l3.6,3.5c7.2-7.4,14.7-14.5,22.6-21.2L162.6,132.3z"/>
		<path class="st1" d="M156,127.4l-13.1-15.3l-3.3-3.8c-1.4,1.1-2.7,2.3-4,3.5c-3.2,2.8-6.3,5.7-9.4,8.6c-3,3-6.1,5.9-9,9l3.6,3.5
			l13.1,12.8l2.5-2.6l0.9-0.9c2.4-2.3,4.8-4.7,7.3-7l-0.5-0.5l0,0l-3.5-3.7l-2.7-2.8l-0.8-0.8c-1,0.9-2,1.8-2.9,2.7l-0.7-0.7
			l4.4-4.1l9.2,10l-3.5,3.2c-1.1,1.1-2.3,2.2-3.4,3.3c-1.1,1.1-2.3,2.2-3.4,3.3l-3.3,3.4l3.6,3.5c5.4-5.7,11.1-11,16.9-16.3
			l-3.4-3.7l0,0L138.5,118c-1.1,1-2.2,2-3.3,3l-0.5,0.5l-4.1,3.8l-4,3.9l1,1.1l2.5,2.5l0.7,0.7l3.1,3.2l0.4,0.4l2.8-2.8l0.6,0.6
			l-3.8,3.7l-9.4-9.5c2.4-2.3,4.7-4.7,7.2-6.9l3.6-3.4c1.2-1.1,2.5-2.2,3.7-3.3l13.3,15.1l0,0l3.3,3.8l2.5-2.2l2.5-2.1l-3.3-3.8
			L156,127.4z"/>
		<path class="st1" d="M110.1,125.4l3.6,3.5c8.1-8.4,16.6-16.4,25.6-24l-3.3-3.8C127,108.8,118.4,116.9,110.1,125.4z"/>
		<path class="st1" d="M190.2,111.2c-8.7,5.9-17.1,12.2-25.2,19l3.2,3.9c8-6.6,16.2-12.9,24.8-18.7L190.2,111.2z"/>
		<path class="st1" d="M184.2,105.7l-11.4-16.6L170,85l-4.4,3c-6.9,4.9-13.6,10.1-20.2,15.5l3.2,3.9l11.7,14.2l2.8-2.3l1-0.8l2-1.6
			l2-1.5l4-3.1l-0.4-0.6l0,0l-3.1-4.1l-2.3-3.1l-0.7-0.9l-3.2,2.4l-0.6-0.8c1.6-1.2,3.1-2.5,4.8-3.6l8.1,10.9
			c-2.5,1.9-5,3.8-7.5,5.7l-3.7,3c-1.2,1-2.5,2-3.6,3l3.2,3.9c6-5,12.2-9.8,18.5-14.3l-2.9-4.1l0,0l-10.8-15.1l-3.6,2.6l-0.6,0.4
			c-1.5,1.1-3,2.3-4.5,3.4c-1.5,1.2-3,2.3-4.5,3.5l0.9,1.2l2.2,2.8l0.6,0.8l2.8,3.5l0.4,0.5c1-0.8,2.1-1.6,3.1-2.4l0.5,0.6l-2.1,1.6
			l-2.1,1.7l-8.3-10.4l1.9-1.6l2-1.5l3.9-3c2.6-2,5.3-3.9,8-5.9l11.6,16.4l0,0l2.9,4.1l5.4-3.8l-2.8-4.2L184.2,105.7z"/>
		<path class="st1" d="M138.8,98.8l3.2,3.9c9-7.5,18.3-14.5,28-21.1l-2.8-4.2C157.4,84.1,147.9,91.2,138.8,98.8z"/>
		<path class="st1" d="M219.9,93.3c-9.3,4.9-18.3,10.3-27.1,16.1l2.8,4.2c8.6-5.7,17.5-11,26.7-15.9L219.9,93.3z"/>
		<path class="st1" d="M214.6,87.2L205,69.4l-2.4-4.4c-1.6,0.8-3.1,1.7-4.6,2.6c-3.7,2-7.4,4.2-11,6.4l-5.4,3.4
			c-1.8,1.1-3.6,2.3-5.3,3.4L179,85l10.1,15.4l3-2l1.1-0.7c2.9-1.8,5.7-3.6,8.6-5.3l-0.4-0.6l0,0l-2.6-4.4l-2-3.3l-0.6-1l-3.5,2.1
			l-0.5-0.8l5.2-3.1l6.9,11.7l-4.1,2.4c-1.4,0.8-2.7,1.7-4,2.5c-1.3,0.8-2.7,1.6-4,2.5l-3.9,2.6l2.8,4.2c6.5-4.4,13.2-8.4,20-12.3
			l-2.5-4.4l0,0l-9.2-16.2c-1.3,0.7-2.6,1.5-3.9,2.2l-0.6,0.4l-4.9,2.9l-4.8,3l0.8,1.3l1.9,3l0.5,0.8l2.4,3.8l0.3,0.5l3.4-2.1
			l0.4,0.7l-4.5,2.8l-7.2-11.3c2.8-1.7,5.6-3.5,8.5-5.2l4.3-2.5c1.4-0.8,2.9-1.6,4.3-2.4l9.8,17.6l0,0l2.4,4.4l2.9-1.6l2.9-1.6
			l-2.4-4.4L214.6,87.2z"/>
		<path class="st1" d="M170.2,75.4l2.8,4.2c9.7-6.5,19.8-12.5,30.1-18l-2.4-4.4C190.2,62.8,180,68.8,170.2,75.4z"/>
		<path class="st1" d="M251.4,78.7c-9.8,3.9-19.3,8.3-28.7,13.1l2.3,4.5c9.2-4.8,18.6-9.1,28.2-12.9L251.4,78.7z"/>
		<path class="st1" d="M246.8,72l-7.6-18.6l-1.9-4.7l-4.9,2c-7.8,3.3-15.5,6.9-23.1,10.8l2.3,4.5l8.4,16.4l3.3-1.6l1.2-0.6l2.3-1.1
			l2.3-1.1l4.6-2.1l-0.3-0.7l0,0l-2.1-4.6l-1.6-3.5l-0.5-1l-3.6,1.7l-0.4-0.9c1.8-0.8,3.6-1.7,5.4-2.5l5.5,12.4
			c-2.9,1.3-5.7,2.6-8.6,4l-4.2,2.1c-1.4,0.7-2.8,1.4-4.2,2.1l2.3,4.5c1.7-0.9,3.5-1.8,5.2-2.6c1.7-0.9,3.5-1.8,5.3-2.6l5.3-2.5
			l5.4-2.3l-2-4.6l0,0l-7.3-17.1l-4.1,1.8l-0.7,0.3c-1.7,0.7-3.4,1.6-5.1,2.4c-1.7,0.8-3.4,1.6-5.1,2.4l0.6,1.3l1.6,3.2l0.4,0.9l2,4
			l0.3,0.5c1.2-0.6,2.4-1.1,3.6-1.7l0.3,0.7l-2.4,1.1l-2.4,1.2l-5.9-12c3-1.5,6-2.9,9-4.3c3-1.4,6.1-2.7,9.1-4l7.8,18.5l0,0l2,4.6
			l6.1-2.5l-1.9-4.7L246.8,72z"/>
		<path class="st1" d="M203.9,55.5l2.3,4.5c10.4-5.4,21-10.2,31.9-14.6l-1.9-4.7C225.2,45.1,214.4,50.1,203.9,55.5z"/>
		<path class="st1" d="M284.2,67.7c-10.1,2.8-20.1,6.1-29.9,9.9l1.8,4.7c9.6-3.7,19.5-7,29.4-9.8L284.2,67.7z"/>
		<path class="st1" d="M280.4,60.5l-5.5-19.4l-1.4-4.8l-5.1,1.5c-2,0.6-4.1,1.2-6.1,1.9l-6.1,2c-4,1.4-8,2.8-12,4.3l1.8,4.7
			l6.5,17.2l3.4-1.3c0.4-0.2,0.8-0.3,1.2-0.4c3.2-1.1,6.3-2.3,9.6-3.3l-0.2-0.7l0,0l-1.6-4.8l-1.2-3.7l-0.4-1.1
			c-1.3,0.4-2.6,0.8-3.8,1.3l-0.3-0.9c1.9-0.7,3.8-1.2,5.7-1.9l4.2,12.9l-4.5,1.5l-4.4,1.6c-3,1-5.9,2.2-8.8,3.3l1.8,4.7l5.5-2.1
			l5.5-1.9c1.8-0.7,3.7-1.3,5.6-1.9c1.9-0.6,3.7-1.2,5.6-1.8l-1.5-4.8l0,0l-5.4-17.8c-1.4,0.4-2.9,0.9-4.3,1.3l-0.7,0.2
			c-1.8,0.6-3.6,1.1-5.4,1.8l-5.3,1.9l0.5,1.4l1.2,3.3l0.3,0.9l1.5,4.2l0.2,0.5l3.7-1.3l0.3,0.8l-5,1.7L251,48.8
			c6.2-2.2,12.5-4.4,18.9-6.2l5.8,19.3l0,0l1.4,4.8c2.1-0.6,4.2-1.3,6.4-1.8l-1.3-4.8L280.4,60.5z"/>
		<path class="st1" d="M239.5,39.4l1.8,4.7c10.9-4.2,22-7.9,33.3-11l-1.3-4.8C261.9,31.4,250.6,35.1,239.5,39.4z"/>
		<path class="st1" d="M318.1,60.3c-10.4,1.7-20.6,3.9-30.8,6.6l1.3,4.9c10-2.7,20.1-4.8,30.3-6.5L318.1,60.3z"/>
		<path class="st1" d="M315.1,52.7l-3.3-19.8l-0.8-5c-1.7,0.3-3.5,0.6-5.2,0.9l-6.3,1.2c-2.1,0.4-4.2,0.9-6.2,1.3l-3.1,0.7l-3.1,0.8
			c-2.1,0.5-4.1,1-6.2,1.5l1.3,4.9l4.6,17.8c1.2-0.3,2.4-0.6,3.5-0.9l1.3-0.3c1.6-0.4,3.3-0.8,4.9-1.2l4.9-1.1l-0.2-0.7l0,0l-1.1-5
			l-0.8-3.8l-0.2-1.1l-3.9,0.9l-0.2-1l5.9-1.3l2.7,13.3l-4.6,1c-1.5,0.3-3.1,0.6-4.6,1c-3,0.8-6.1,1.4-9.1,2.3l1.3,4.9
			c7.5-2,15.2-3.8,22.8-5.2l-0.9-4.9l0,0l-3.5-18.3l-4.4,0.8c-0.2,0-0.5,0.1-0.7,0.1l-5.5,1.2l-2.8,0.6l-2.7,0.7l0.3,1.4L290,44
			l0.2,1l1,4.3l0.1,0.6c1.3-0.3,2.6-0.6,3.9-0.9l0.2,0.8c-1.7,0.4-3.4,0.8-5.1,1.2l-3.2-13c1.6-0.4,3.2-0.8,4.8-1.2l4.9-1.1
			c3.2-0.7,6.5-1.3,9.7-1.9l3.6,19.8l0,0l0.9,4.9l1.6-0.3l1.6-0.3l3.3-0.5l-0.8-5L315.1,52.7z"/>
		<path class="st1" d="M276.8,27.3l1.3,4.9c11.3-3,22.7-5.5,34.3-7.3l-0.8-5C299.9,21.8,288.3,24.2,276.8,27.3z"/>
		<path class="st1" d="M352.6,56.5c-10.5,0.6-21,1.6-31.4,3.2l0.8,5c10.2-1.6,20.5-2.6,30.9-3.2L352.6,56.5z"/>
		<path class="st1" d="M350.4,48.7l-1.2-20.1l-0.3-5l-5.3,0.3c-2.1,0.1-4.2,0.4-6.3,0.5l-3.2,0.3l-3.2,0.4l-6.3,0.7l-6.3,0.9l0.7,5
			l2.7,18.2l3.6-0.5l1.3-0.2c1.7-0.3,3.3-0.4,5-0.6c1.7-0.2,3.3-0.4,5-0.6l-0.1-0.7h0l-0.5-5.1l-0.4-3.9l-0.1-1.1
			c-1.3,0.1-2.7,0.3-4,0.4l-0.1-1c2-0.2,4-0.5,6-0.6l1.3,13.5l-2.3,0.2l-2.3,0.3l-4.7,0.5c-3.1,0.4-6.2,0.9-9.3,1.3l0.8,5
			c7.7-1.1,15.5-2.1,23.3-2.7l-0.4-5h0l-1.5-18.5l-4.5,0.4l-0.7,0.1c-0.9,0.1-1.9,0.2-2.8,0.3l-2.8,0.3l-5.6,0.6l0.2,1.5l0.4,3.5
			l0.1,1l0.6,4.4l0.1,0.6l3.9-0.4l0.1,0.8c-1.7,0.2-3.5,0.4-5.2,0.6L324.3,31c3.3-0.4,6.6-0.8,9.9-1.2c3.3-0.3,6.6-0.6,9.9-0.9
			l1.5,20.1h0l0.4,5l6.6-0.4l-0.3-5L350.4,48.7z"/>
		<path class="st1" d="M315.1,19.3l0.8,5c11.6-1.8,23.2-3,34.9-3.6l-0.3-5C338.6,16.3,326.8,17.5,315.1,19.3z"/>
		<path class="st1" d="M387.4,56.5c-10.5-0.6-21-0.6-31.6-0.1l0.2,5c10.3-0.5,20.7-0.4,31.1,0.1L387.4,56.5z"/>
		<path class="st1" d="M386,48.5l1-20.1l0.2-5l-5.3-0.2c-1.1,0-2.1-0.1-3.2-0.1l-3.2,0c-2.1,0-4.2-0.1-6.4-0.1
			c-4.2,0.1-8.5,0.1-12.7,0.3l0.2,5l0.7,18.4l3.6-0.1c0.4,0,0.9,0,1.3,0l5.1-0.1l2.5,0l2.5,0l0-0.7h0l0-5.1l0-3.9l0-1.1
			c-1.3,0-2.7,0-4,0l0-1c2-0.1,4,0,6,0l-0.2,13.6c-1.6,0-3.1-0.1-4.7-0.1l-4.7,0.1c-3.1,0-6.3,0.2-9.4,0.3l0.2,5l5.9-0.2l5.9-0.1
			c1,0,2,0,2.9,0l2.9,0c2,0,3.9,0,5.9,0.1l0.1-5h0l0.5-18.6c-1.5-0.1-3,0-4.5-0.1l-0.7,0c-1.9,0-3.8-0.1-5.6,0l-5.6,0.1l0,1.5
			l0.1,3.5l0,1l0.1,4.5l0,0.6l4-0.1l0,0.8l-5.3,0.1l-0.3-13.3l5-0.1c1.7,0,3.3-0.1,5,0l5,0.1l2.5,0l2.5,0.1l-0.7,20.1h0l-0.2,5
			c2.2,0.1,4.4,0.1,6.6,0.3l0.3-5C387.2,48.6,386.6,48.5,386,48.5z"/>
		<path class="st1" d="M354,15.5l0.2,5c11.7-0.5,23.3-0.5,35,0.2l0.3-5C377.7,15,365.9,15,354,15.5z"/>
		<path class="st1" d="M421.9,60.3c-10.4-1.7-20.8-2.9-31.3-3.5l-0.3,5c10.3,0.7,20.6,1.8,30.8,3.5L421.9,60.3z"/>
		<path class="st1" d="M421.4,52.1l3.1-19.9l0.8-5c-1.7-0.3-3.5-0.5-5.2-0.8c-8.4-1.2-16.8-2.1-25.3-2.7l-0.3,5l-1.3,18.3
			c1.2,0.1,2.4,0.1,3.6,0.3l1.3,0.1l5,0.4c1.7,0.2,3.3,0.4,5,0.6l0.1-0.7h0l0.6-5.1l0.4-3.9l0.1-1.1l-4-0.5l0.1-1l6,0.7l-1.6,13.5
			c-3.1-0.3-6.2-0.7-9.4-1l-4.7-0.4c-1.6-0.1-3.1-0.2-4.7-0.3l-0.3,5c3.9,0.2,7.8,0.6,11.7,0.9c1.9,0.2,3.9,0.4,5.8,0.6l2.9,0.3
			l2.9,0.4l0.7-5l0,0l2.5-18.4c-1.5-0.2-3-0.4-4.4-0.6L412,32l-5.6-0.6c-1.9-0.2-3.7-0.3-5.6-0.5l-0.1,1.5l-0.3,3.5l-0.1,1l-0.4,4.4
			l0,0.6l3.9,0.4l-0.1,0.8l-5.2-0.5l1.1-13.3l4.9,0.4c1.7,0.1,3.3,0.4,4.9,0.5l4.9,0.6l4.9,0.7l-2.8,19.9l0,0l-0.7,5l3.3,0.5
			l3.3,0.5l0.8-5L421.4,52.1z"/>
		<path class="st1" d="M393.1,15.9l-0.3,5c11.7,0.7,23.3,2,34.8,3.9l0.8-5C416.7,18,405,16.6,393.1,15.9z"/>
		<path class="st1" d="M455.8,67.7c-10.1-2.8-20.4-5.1-30.8-6.9l-0.9,5c10.2,1.8,20.3,4,30.3,6.8L455.8,67.7z"/>
		<path class="st1" d="M456.1,59.6l5.3-19.4l1.3-4.9c-1.7-0.5-3.4-0.9-5.1-1.4c-8.2-2.1-16.5-3.9-24.9-5.4l-0.9,4.9l-3.2,18.1
			l3.6,0.7l1.3,0.2c3.3,0.6,6.6,1.4,9.9,2.1l0.2-0.7l0,0l1.1-5l0.9-3.8l0.3-1.1l-3.9-0.9l0.2-1c1.9,0.4,3.9,0.8,5.8,1.3l-3.1,13.2
			c-3.1-0.7-6.1-1.4-9.2-2l-4.6-0.9c-1.5-0.3-3.1-0.6-4.6-0.8l-0.9,5c7.7,1.4,15.4,2.9,22.9,4.8l1.2-4.9l0,0l4.5-18l-4.4-1.1
			l-0.7-0.2c-1.8-0.4-3.7-0.8-5.5-1.2c-1.8-0.4-3.7-0.8-5.5-1.2l-0.3,1.5l-0.7,3.5l-0.2,1l-0.9,4.4l-0.1,0.6l1.9,0.4l1.9,0.4
			l-0.2,0.8c-1.7-0.4-3.4-0.7-5.2-1l2.5-13.1c6.5,1.2,13,2.7,19.4,4.3l-5,19.5l0,0l-1.2,4.9c2.1,0.5,4.3,1.1,6.4,1.7l1.3-4.8
			L456.1,59.6z"/>
		<path class="st1" d="M432,20.4l-0.9,5c11.5,2,22.9,4.6,34.2,7.7l1.3-4.8C455.3,25.1,443.7,22.5,432,20.4z"/>
		<path class="st1" d="M488.6,78.7c-9.8-3.9-19.7-7.3-29.8-10.2l-1.4,4.8c9.9,2.9,19.7,6.2,29.3,10L488.6,78.7z"/>
		<path class="st1" d="M489.9,70.7l7.3-18.7l1.8-4.7l-5-1.9c-8-3-16-5.7-24.2-8.1l-1.4,4.8l-5.2,17.6l3.5,1l1.2,0.4l4.8,1.6
			c1.6,0.5,3.2,1,4.8,1.6l0.2-0.7l0,0l1.7-4.8l1.3-3.7l0.4-1.1l-1.9-0.7l-1.9-0.6l0.3-0.9c1.9,0.6,3.8,1.3,5.7,1.9L479,66.6
			c-1.5-0.5-3-1.1-4.5-1.5l-4.5-1.5l-2.2-0.7l-2.3-0.7l-4.5-1.3l-1.4,4.8c7.5,2.1,14.9,4.6,22.3,7.3l1.7-4.7l0,0l6.4-17.4
			c-1.4-0.5-2.8-1-4.2-1.5l-0.7-0.2c-3.5-1.3-7.1-2.4-10.7-3.6l-0.4,1.4l-1.1,3.4l-0.3,0.9l-1.3,4.2l-0.2,0.5l3.8,1.2l-0.2,0.8
			l-5-1.6l4-12.7c3.1,1,6.3,2,9.4,3.1l4.7,1.7l2.3,0.8l2.3,0.9l-7.1,18.8l0,0l-1.8,4.7c2.1,0.8,4.1,1.5,6.2,2.4l1.9-4.7
			C491,71.1,490.5,70.9,489.9,70.7z"/>
		<path class="st1" d="M470.1,29.2l-1.4,4.8c11.2,3.2,22.3,7,33.2,11.4l1.9-4.7C492.8,36.3,481.6,32.5,470.1,29.2z"/>
		<path class="st1" d="M520.1,93.3c-9.3-4.9-18.8-9.4-28.5-13.4l-1.9,4.7c9.6,3.9,18.9,8.3,28.1,13.2L520.1,93.3z"/>
		<path class="st1" d="M522.2,85.5l9.3-17.8l2.3-4.5c-1.6-0.8-3.1-1.7-4.7-2.4l-5.7-2.8l-5.8-2.7c-1.9-0.9-3.9-1.8-5.8-2.6
			c-2-0.8-3.9-1.7-5.9-2.5l-1.9,4.6l-7.1,17c1.1,0.4,2.2,0.9,3.3,1.4l1.2,0.5c1.5,0.7,3.1,1.3,4.6,2l4.6,2.1l0.3-0.7l0,0l2.2-4.6
			l1.7-3.5l0.5-1l-3.6-1.7l0.4-0.9l5.4,2.5l-5.9,12.2c-5.7-2.7-11.4-5.3-17.2-7.6l-1.9,4.6c1.8,0.7,3.6,1.5,5.4,2.3l5.4,2.4
			c3.5,1.7,7.1,3.3,10.6,5.1l2.2-4.5l0,0l8.3-16.6l-4-2l-0.7-0.3c-3.4-1.6-6.8-3.2-10.3-4.7l-0.6,1.4l-1.4,3.2l-0.4,0.9l-1.8,4.1
			l-0.2,0.5c1.2,0.5,2.4,1,3.6,1.6l-0.3,0.7c-1.6-0.7-3.2-1.4-4.8-2.1l5.3-12.2l4.6,2l4.5,2.1c3,1.4,6,2.9,8.9,4.3l-9.1,18l0,0
			l-2.3,4.5c2,1,3.9,2,5.9,3.1l2.4-4.4L522.2,85.5z"/>
		<path class="st1" d="M507.1,42.1l-1.9,4.6c10.8,4.4,21.4,9.4,31.7,14.9l2.4-4.4C528.8,51.6,518.1,46.6,507.1,42.1z"/>
		<path class="st1" d="M549.8,111.2c-8.7-5.9-17.7-11.4-26.9-16.4l-2.4,4.4c9.1,4.9,17.9,10.3,26.5,16.2L549.8,111.2z"/>
		<path class="st1" d="M552.8,103.7L564,87l2.8-4.2l-4.4-2.9c-1.8-1.2-3.6-2.3-5.4-3.4c-1.8-1.1-3.6-2.3-5.4-3.3l-5.5-3.2l-5.6-3.1
			l-2.4,4.4l-8.9,16.1l3.2,1.8l1.1,0.6c1.5,0.8,2.9,1.7,4.4,2.6c1.4,0.9,2.9,1.7,4.3,2.6l0.4-0.6l0,0l2.7-4.3l2-3.3l0.6-1
			c-1.1-0.7-2.3-1.4-3.4-2.1l0.5-0.8l2.6,1.5l2.5,1.6L543,97.3c-5.3-3.3-10.8-6.5-16.3-9.5l-2.4,4.4c6.9,3.8,13.6,7.7,20.2,11.9
			l2.7-4.2l0,0l10-15.7l-3.8-2.4l-0.6-0.4c-3.2-2-6.4-3.9-9.7-5.8l-0.7,1.3l-1.8,3.1l-0.5,0.9l-2.2,3.9l-0.3,0.5l3.4,2l-0.4,0.7
			c-1.5-0.9-3-1.8-4.5-2.7l6.6-11.6c2.9,1.7,5.7,3.3,8.6,5.1l4.2,2.6c1.4,0.9,2.8,1.8,4.2,2.7l-11,16.9l0,0l-2.7,4.2
			c1.8,1.2,3.7,2.4,5.5,3.7l2.8-4.2C553.8,104.3,553.3,104,552.8,103.7z"/>
		<path class="st1" d="M542.5,58.9l-2.4,4.4c10.3,5.6,20.2,11.7,29.9,18.3l2.8-4.2C563,70.7,552.9,64.6,542.5,58.9z"/>
		<path class="st1" d="M577.4,132.3c-8-6.8-16.3-13.2-25-19.2l-2.9,4.1c8.5,5.9,16.7,12.2,24.6,18.9L577.4,132.3z"/>
		<path class="st1" d="M581.2,125.1l12.9-15.4l3.2-3.8c-1.3-1.1-2.7-2.3-4.1-3.4l-5-4l-5-3.9c-1.7-1.3-3.4-2.5-5.1-3.8
			c-1.7-1.2-3.4-2.5-5.2-3.7l-2.9,4.1l-10.6,15l1.5,1l1.5,1.1l1.1,0.8l4.1,3l4,3.1l0.5-0.6l0,0l3.1-4l2.4-3.1l0.7-0.9l-3.2-2.4
			l0.6-0.8l4.8,3.6l-8.4,10.7c-5-3.8-10-7.6-15.2-11.2l-2.9,4.1c3.2,2.2,6.4,4.5,9.5,6.8c3.1,2.4,6.2,4.7,9.2,7.2l3.2-3.9l0,0
			l11.7-14.5l-3.5-2.8l-0.6-0.4c-3-2.3-5.9-4.6-9-6.8l-0.9,1.2l-2.1,2.9l-0.6,0.8l-2.6,3.6l-0.3,0.5l3.2,2.3l-0.5,0.6l-4.2-3.1
			l7.8-10.8l4,2.9l3.9,3c2.6,2,5.2,4.1,7.8,6.2l-12.7,15.6l0,0l-3.2,3.9c1.7,1.4,3.4,2.8,5.1,4.2l3.3-3.8L581.2,125.1z"/>
		<path class="st1" d="M575.8,79.4l-2.9,4.1c9.6,6.7,18.9,13.8,27.8,21.4l3.3-3.8C594.9,93.4,585.5,86.2,575.8,79.4z"/>
		<path class="st1" d="M602.6,156.1c-7.2-7.6-14.8-14.9-22.8-21.8l-3.3,3.8c7.8,6.8,15.3,13.9,22.4,21.5L602.6,156.1z"/>
		<path class="st1" d="M607.2,149.4l14.5-13.9l3.6-3.5l-3.7-3.8c-6-6-12.1-11.9-18.5-17.5l-3.3,3.8l-12.1,13.8l2.7,2.4l1,0.9
			c1.3,1.1,2.5,2.3,3.7,3.4c1.2,1.2,2.5,2.3,3.7,3.5l0.5-0.5l0,0l3.5-3.7l2.7-2.8l0.8-0.8c-0.9-0.9-1.9-1.8-2.9-2.8l0.7-0.7
			c0.7,0.7,1.5,1.4,2.2,2l2.1,2.1l-9.5,9.7c-4.5-4.4-9.2-8.6-13.9-12.8l-3.3,3.8c5.9,5.1,11.6,10.5,17.1,16l3.6-3.5l0,0l13.2-13.1
			l-3.2-3.1l-0.5-0.5c-2.7-2.7-5.5-5.2-8.2-7.7l-1,1.1l-2.4,2.6l-0.7,0.7l-3,3.3l-0.4,0.4l2.9,2.7l-0.5,0.6
			c-1.3-1.2-2.6-2.4-3.9-3.6l9-9.9c2.4,2.2,4.9,4.5,7.3,6.8l3.6,3.5l1.8,1.7l1.7,1.8l-14.3,14.1l0,0l-3.6,3.5
			c1.5,1.6,3.1,3.1,4.6,4.8l3.6-3.5C608,150.2,607.6,149.8,607.2,149.4z"/>
		<path class="st1" d="M606.7,103.4l-3.3,3.8c8.8,7.7,17.3,15.7,25.3,24.2l3.6-3.5C624.2,119.4,615.6,111.2,606.7,103.4z"/>
		<path class="st1" d="M625.1,182.6c-6.4-8.4-13.1-16.4-20.3-24.1l-3.7,3.4c7,7.6,13.7,15.5,20,23.8L625.1,182.6z"/>
		<path class="st1" d="M630.3,176.4l15.9-12.3l4-3.1c-1.1-1.4-2.1-2.8-3.3-4.2l-4-5l-4.1-4.9c-1.4-1.6-2.8-3.2-4.2-4.8
			c-1.4-1.6-2.8-3.2-4.3-4.7l-3.7,3.4l-13.5,12.4c0.8,0.9,1.6,1.8,2.4,2.7l0.9,1l3.3,3.8l3.3,3.9l0.6-0.5l0,0l3.9-3.3l3-2.5l0.9-0.7
			l-2.6-3.1l0.7-0.6l3.9,4.6l-10.5,8.7c-4-4.8-8.1-9.6-12.5-14.2l-3.7,3.4c2.7,2.8,5.2,5.8,7.8,8.7c2.5,3,5.1,5.9,7.5,9l3.9-3.1l0,0
			l14.5-11.6l-2.8-3.5l-0.5-0.6c-2.4-2.9-4.8-5.8-7.3-8.6l-1.1,1l-2.7,2.3l-0.7,0.7l-3.3,2.9l-0.4,0.4c0.9,1,1.8,2,2.6,3l-0.6,0.5
			c-1.1-1.3-2.3-2.6-3.5-3.9l10-8.9l3.3,3.7l3.2,3.8c2.2,2.5,4.2,5.1,6.3,7.7l-15.8,12.5l0,0l-3.9,3.1l1,1.3l1,1.3l2,2.6l4-3
			L630.3,176.4z"/>
		<path class="st1" d="M634.8,130.6l-3.7,3.4c8,8.6,15.5,17.5,22.6,26.8l4-3C650.5,148.4,642.9,139.3,634.8,130.6z"/>
		<path class="st1" d="M644.6,211.3c-5.4-9-11.3-17.7-17.6-26.2l-4,3c6.2,8.3,12,16.9,17.3,25.8L644.6,211.3z"/>
		<path class="st1" d="M650.5,205.7l17.2-10.5l4.3-2.6l-2.8-4.5c-4.6-7.2-9.3-14.2-14.3-21l-4,3L636,180.9l2.1,2.9l0.8,1.1
			c1,1.4,1.9,2.8,2.9,4.1c1,1.4,1.9,2.8,2.8,4.2l0.6-0.4l0,0l4.2-2.8l3.2-2.2l0.9-0.6c-0.7-1.1-1.5-2.2-2.3-3.3l0.8-0.6
			c1.2,1.6,2.2,3.3,3.3,5l-11.3,7.5c-3.4-5.3-7.1-10.4-10.8-15.4l-4,3c4.7,6.3,9.1,12.7,13.3,19.3l4.2-2.7l0,0l15.7-10
			c-0.8-1.3-1.6-2.5-2.5-3.7l-0.4-0.6c-2-3.2-4.2-6.2-6.4-9.3l-1.2,0.9l-2.9,2l-0.8,0.6l-3.6,2.6l-0.5,0.3l2.3,3.3l-0.7,0.5
			c-1-1.4-2-2.9-3-4.3l10.9-7.8c1.9,2.7,3.8,5.4,5.7,8.2l2.7,4.2l1.4,2.1l1.3,2.1l-17,10.7l0,0l-4.3,2.7c1.2,1.9,2.4,3.7,3.5,5.6
			l4.3-2.6C651.1,206.7,650.8,206.2,650.5,205.7z"/>
		<path class="st1" d="M659.8,160.7l-4,3c7,9.4,13.5,19.1,19.5,29.1l4.3-2.6C673.5,180,666.9,170.2,659.8,160.7z"/>
		<path class="st1" d="M660.9,241.9c-4.4-9.5-9.3-18.8-14.6-27.9l-4.3,2.6c5.3,8.9,10.1,18.1,14.4,27.5L660.9,241.9z"/>
		<path class="st1" d="M667.3,237l18.2-8.6l4.6-2.1c-0.7-1.6-1.5-3.2-2.3-4.8l-2.8-5.7l-3-5.6c-1-1.9-2-3.7-3.1-5.6
			c-1-1.8-2-3.7-3.1-5.5l-4.3,2.5l-15.9,9.2c0.6,1,1.2,2.1,1.8,3.2l0.6,1.1l2.5,4.4l2.4,4.5l0.7-0.3l0,0l4.5-2.4l3.4-1.8l1-0.5
			l-1.9-3.6l0.9-0.5l2.8,5.3l-12.1,6.2c-2.9-5.6-5.9-11.1-9.1-16.5l-4.3,2.6c1,1.7,2,3.4,2.9,5.1l2.9,5.1c1.8,3.5,3.7,6.9,5.4,10.4
			l4.5-2.2l0,0l16.7-8.3l-2-4l-0.3-0.6c-1.8-3.3-3.5-6.7-5.3-9.9l-1.3,0.7l-3.1,1.7l-0.9,0.5l-3.9,2.2l-0.5,0.3
			c0.6,1.2,1.3,2.3,1.9,3.5l-0.7,0.4c-0.8-1.5-1.7-3.1-2.6-4.6l11.6-6.5l2.4,4.3l2.3,4.4c1.6,2.9,3,5.9,4.5,8.9l-18.1,8.8l0,0
			l-4.5,2.2c1,2,1.9,4,2.8,6l4.6-2.1L667.3,237z"/>
		<path class="st1" d="M681.5,193.2l-4.3,2.6c5.9,10.1,11.4,20.4,16.3,31l4.6-2.1C693,214,687.5,203.5,681.5,193.2z"/>
		<path class="st1" d="M673.7,274.2c-3.4-10-7.2-19.7-11.5-29.3l-4.6,2.1c4.3,9.4,8,19.1,11.3,28.9L673.7,274.2z"/>
		<path class="st1" d="M680.7,269.9l19-6.5l4.8-1.6l-1.8-5c-0.7-2-1.5-4-2.2-6c-0.8-2-1.5-4-2.3-5.9l-2.4-5.9l-2.6-5.8l-4.6,2
			l-16.8,7.5l1.5,3.3l0.5,1.2c0.7,1.5,1.3,3.1,1.9,4.7c0.6,1.6,1.3,3.1,1.9,4.7l0.7-0.3l0,0l4.7-1.8l3.6-1.4l1.1-0.4
			c-0.5-1.3-1-2.5-1.5-3.7l0.9-0.4l1.1,2.8l1.1,2.8l-12.7,4.9c-2.2-5.9-4.7-11.7-7.2-17.4l-4.6,2.1c3.2,7.1,6.1,14.4,8.9,21.7
			l4.7-1.7l0,0l17.5-6.4l-1.6-4.2l-0.3-0.7l-1-2.6c-0.3-0.9-0.7-1.7-1.1-2.6l-2.1-5.2l-1.4,0.6l-3.3,1.4l-0.9,0.4l-4.1,1.7l-0.5,0.2
			l1.5,3.7l-0.7,0.3c-0.7-1.6-1.3-3.3-2-4.9l12.3-5.2c1.3,3,2.5,6.1,3.8,9.2l1.8,4.6c0.6,1.5,1.2,3.1,1.7,4.7l-18.9,6.8l0,0
			l-4.7,1.7l2.2,6.2l4.8-1.6C681.1,271,680.9,270.5,680.7,269.9z"/>
		<path class="st1" d="M699.5,228l-4.6,2.1c4.8,10.7,9.1,21.5,12.8,32.6l4.8-1.6C708.7,249.8,704.4,238.8,699.5,228z"/>
		<path class="st1" d="M683,307.6c-2.2-10.3-5-20.4-8.3-30.4l-4.8,1.6c3.2,9.8,5.9,19.8,8.1,29.9L683,307.6z"/>
		<path class="st1" d="M690.4,304.1l19.6-4.4l4.9-1.1c-0.4-1.7-0.8-3.4-1.2-5.2c-1.9-8.3-4.3-16.4-6.9-24.5l-4.8,1.5l-17.5,5.6
			c0.4,1.2,0.8,2.3,1.1,3.5l0.4,1.2l1.4,4.8c0.5,1.6,0.9,3.3,1.3,4.9l0.7-0.2l0,0l4.9-1.3l3.8-1l1.1-0.3l-1-3.9l0.9-0.3l1.6,5.8
			l-13.1,3.5c-0.8-3-1.6-6.1-2.5-9.1l-1.3-4.5l-1.4-4.5l-4.8,1.6c1.2,3.7,2.3,7.5,3.4,11.2c0.5,1.9,1,3.8,1.5,5.7l0.8,2.8l0.7,2.8
			l4.9-1.2l0,0l18.1-4.5c-0.4-1.4-0.7-2.9-1.1-4.3l-0.2-0.7l-1.5-5.4c-0.5-1.8-1.1-3.6-1.6-5.4l-1.4,0.4l-3.4,1l-0.9,0.3l-4.3,1.3
			l-0.6,0.2l1.1,3.8l-0.8,0.2l-1.5-5l12.8-3.9l1.4,4.8c0.5,1.6,0.9,3.2,1.3,4.8l1.3,4.8l1.2,4.8l-19.6,4.7l0,0l-4.9,1.2l0.8,3.2
			l0.7,3.2l4.9-1.1L690.4,304.1z"/>
		<path class="st1" d="M713.6,264.5l-4.8,1.6c3.6,11.1,6.7,22.4,9.2,33.8l4.9-1.1C720.4,287.2,717.3,275.8,713.6,264.5z"/>
		<path class="st1" d="M688.6,341.8c-1.1-10.5-2.8-20.8-4.9-31.1l-4.9,1c2.1,10.1,3.7,20.3,4.8,30.7L688.6,341.8z"/>
		<path class="st1" d="M696.3,339.2l20-2.3l5-0.6l-0.6-5.3c-1.1-8.4-2.5-16.8-4.2-25.1l-4.9,1l-18,3.6l0.7,3.6l0.2,1.3l0.5,2.5
			l0.4,2.5l0.8,5l0.7-0.1v0l5-0.8l3.8-0.6l1.1-0.2l-0.7-4l1-0.2c0.3,2,0.7,3.9,1,5.9l-13.4,2c-0.5-3.1-1-6.2-1.5-9.3
			c-0.6-3.1-1.2-6.2-1.8-9.3l-4.9,1c0.4,1.9,0.8,3.8,1.1,5.7c0.4,1.9,0.7,3.8,1,5.8l1,5.8l0.8,5.8l5-0.7v0l18.4-2.5l-0.6-4.4
			l-0.1-0.7c-0.2-1.9-0.6-3.7-0.9-5.6c-0.3-1.9-0.6-3.7-1-5.6l-1.5,0.3l-3.5,0.6l-1,0.2l-4.4,0.8l-0.6,0.1c0.3,1.3,0.5,2.6,0.7,3.9
			l-0.8,0.1l-0.4-2.6l-0.5-2.6l13.1-2.5l0.5,2.4l0.4,2.4l0.8,4.9c0.5,3.3,0.9,6.6,1.4,9.8l-20,2.6v0l-5,0.6l0.8,6.6l5-0.5
			L696.3,339.2z"/>
		<path class="st1" d="M723.7,302.3l-4.9,1c2.4,11.4,4.2,23,5.5,34.6l5-0.5C728,325.7,726.2,314,723.7,302.3z"/>
		<path class="st1" d="M690.4,376.5c0-10.5-0.5-21-1.5-31.5l-5,0.5c1,10.3,1.5,20.6,1.5,31H690.4z"/>
		<path class="st1" d="M698.4,374.7l20.1-0.1l5,0l-0.1-5.3c-0.2-8.5-0.6-17-1.4-25.4l-5,0.5l-18.3,1.7l0.3,3.6l0.1,1.3l0.3,5
			c0.1,1.7,0.2,3.4,0.3,5l0.7,0v0l5.1-0.2l3.9-0.2l1.1-0.1c0-1.3-0.1-2.7-0.2-4l1-0.1c0.1,2,0.2,4,0.3,6l-13.6,0.5
			c-0.2-6.3-0.7-12.6-1.3-18.8l-5,0.5c0.8,7.8,1.2,15.6,1.5,23.4l5-0.1v0l18.6-0.5l-0.2-4.5l0-0.7c-0.1-3.8-0.4-7.5-0.6-11.3
			l-1.5,0.1l-3.5,0.3l-1,0.1l-4.4,0.3l-0.6,0l0.2,3.9l-0.8,0l-0.3-5.3l13.3-1c0.2,3.3,0.4,6.6,0.6,9.9l0.2,5c0.1,1.7,0.1,3.3,0.1,5
			l-20.1,0.4v0l-5,0.1l0.1,6.6h5L698.4,374.7z"/>
		<path class="st1" d="M729.6,341l-5,0.5c1.1,11.6,1.7,23.3,1.7,35h5C731.4,364.7,730.8,352.8,729.6,341z"/>
		<path class="st1" d="M458,225c2.4-1.3,5.5-2.5,8.1-1.2c3.2,1.6,6,3.9,9.1,5.7c3,1.8,6.4,2.9,8.9,5.3c3.3,3.1,4.1,8,7.4,11.1
			c3.2,2.9,7.2,4.6,11.1,6.2c5.4,2.1,10.7,4.7,15.3,8.2c3.4,2.6,7.1,4.9,10.7,7.2c2.6,1.7,4.6,4.1,6.3,6.6c-3-1.9-6.5-2.9-9.5-4.7
			c-4.3-2.3-8.3-4.9-12.6-7.2c-6.8-3.6-14.8-4.3-21.5-8.3c-3-1.6-5.5-3.9-7.3-6.8c-1.5-2.3-2.3-4.8-3.5-7.2
			c-1.2-2.5-3.8-3.7-5.8-5.3c-3.5-2.4-6.2-5.6-9.2-8.5c-8.4,14-18.7,26.8-28.3,40c-3,4.4-6.6,8.3-10,12.4c0.9-3.3,2.2-6.6,3.7-9.6
			c-2.9,3.2-6,6.3-9.6,8.7c2.3-3.5,4.2-7.4,6.6-10.9c3.7-5.4,7.4-10.8,11.1-16.2c-4.2,3.8-8.2,7.9-12.8,11.4c-3,2.2-6,4.5-8.9,6.8
			c3.7-5,7.7-9.9,11.8-14.5c-4.6,3.5-9.4,6.7-14.4,9.6c2.6-3.1,5.4-6.1,8.3-8.8c-5.2,3.6-10.5,6.9-16.1,9.9c2.9-2.8,5.6-5.8,8.8-8.2
			c3.4-2.7,7-5.2,10.4-7.8c-2.4-0.4-4.6-1.7-6.2-3.5c-1.7,1.1-3.4,2.3-4.9,3.6c-0.4,0.2-0.9,0.3-1.3,0.5c0.6,0.9-0.3,1.4-0.8,1.9
			c-1.2,1-2.2,2.1-3.2,3.2c-0.3-0.3-0.6-0.5-0.8-0.8c1.6-1,3.1-2.3,4.3-3.8c-9.8,5.8-18.8,13.7-30.2,16c3.3,2.5,6.8,4.8,10.6,6.4
			c3,1.3,5.8,2.9,8.4,4.8c-8.4-0.4-15.8-4.7-23.3-7.9c-6.6-3-14-0.9-20.9-2.1c-6.2-0.6-11.3-4.5-17.2-6c-5.7-1.5-11.3-3.2-16.5-6
			c-4.9-2.6-8.5-6.8-12.9-10c-2.1-1.5-4-3.2-5.9-4.9c-3.1,6.7-5.8,13.6-9.5,20c-4.5,7.8-9,15.8-15.3,22.4c2.9-6.3,6.4-12.2,9.3-18.5
			c-3.6,5.6-8,10.6-12.5,15.6c2.8-6.5,6.2-12.8,10-18.7c-6.6,7.2-12.6,14.9-20.1,21.3c3.3-6,7.4-11.6,11.4-17.1
			c-4.2,3.6-8.8,6.9-13.6,9.7c2.1-2.7,4.1-5.5,6-8.2c-3.9,3.1-7.7,6.4-11.6,9.5c-3.5,2.7-7.3,5-10.8,7.7c2.4-3.1,5.2-5.8,7.3-9.1
			c4.6-4.6,10-8.4,14.6-13c-10.2,6.4-19.5,14-29,21.2c-8.3,6.1-16.7,12.2-25.3,18.1c-5.1,3.5-10.5,6.6-16.1,9.2c-2,0.9-4,2-5.9,3.2
			c2.8-3.7,7.2-5.4,10.9-8c11.1-7.3,21.5-15.6,31.8-24c8.3-7,16.3-14.3,25.2-20.6c7.8-5.4,15.5-10.8,23.4-16.2
			c4.7-3.1,9.4-6.3,14.6-8.4c2-0.8,4.6-1.4,6.2,0.5c4,4.2,8.9,7.3,13.2,11.2c6.3,5.5,14.9,5.9,22.7,7.6c5.5,1,10.1,4.6,15.7,5
			c6.9,0.6,14.1,0.1,20.7,2.8c9.9-2.5,18-8.9,26.2-14.5c3.8-2.6,7.5-5.3,11.4-7.9c1.7-1,3.7-2.3,5.7-1.5c2.2,0.9,2.3,4.4,5,4.3
			c3.8-0.3,7-2.9,10.1-4.9C444.3,234.3,450.7,229,458,225"/>
		<path class="st1" d="M461.4,238.8c1.3-2.1,3-4,4.9-5.6c-7,11.1-13.9,22.1-20.9,33.2C449.7,256.6,455.4,247.6,461.4,238.8"/>
		<path class="st1" d="M459.5,248.2c1.5-2.1,2.7-5,5.7-5.3c-0.5,3.2-2.8,5.6-4.4,8.3c-2.8,4.2-5.8,8.2-9.1,12
			C454.1,258.1,456.3,252.8,459.5,248.2z"/>
		<path class="st1" d="M415.9,250.8c2-1.4,4.1-3.4,6.8-2.7c0,0.3,0.1,0.9,0.2,1.2c-5.9,4.6-11.9,9.1-18.3,13.1
			C408.4,258.6,411.5,254,415.9,250.8z"/>
		<path class="st1" d="M299.8,261.6c1.7-2.8,2.9-6.1,5.8-8c-0.5,3-2.3,5.6-3.6,8.3c-3.4,6.5-6.6,13.3-11.2,19.2
			C293.1,274.4,296.5,268,299.8,261.6"/>
		<path class="st1" d="M408,256.1c-0.9-0.6,0.6-1.5,1.1-0.9C408.8,255.5,408.3,255.9,408,256.1z"/>
		<path class="st1" d="M452.7,265.5c2.8-3,5.3-6.2,8.3-9C459.1,260.1,455.9,262.9,452.7,265.5z"/>
		<path class="st1" d="M307.4,261.6c-1.3,6-5,11-7.4,16.5C301.7,272.3,304.2,266.7,307.4,261.6z"/>
		<path class="st1" d="M308.7,272.8c0.5,0.6,1,1.3,0.6,2.1c-0.6,2.4-1.9,4.6-3,6.9C307.1,278.7,308,275.8,308.7,272.8"/>
		<path class="st1" d="M329,252.6c2.3,1.2,4.6,2.4,7,3.4c1.4-2.1,2.7-4.3,3.8-6.6c2.7,2.8,5.1,6.6,7.3,10.7c0.9,0.3,1.7,0.6,2.6,0.8
			c-2-4.6-4.3-9.1-6.9-13.4c-1.2-2-2.5-3.7-4-4.5c-0.6-0.3-1.2-0.6-1.9-0.7c-2,2.2-3.9,4.9-5.9,7.2c0.3-0.1,0.6-0.1,0.9-0.2
			C330.8,250.3,329.8,251.4,329,252.6"/>
		<path class="st1" d="M153.6,495.2c0-3.4,0-4,0-4.7c0-0.8-0.2-1.1-0.9-1.3c-0.3,0-0.6-0.1-0.9-0.1c-0.2,0-0.4,0-0.4-0.2
			c0-0.2,0.2-0.2,0.5-0.2c0.6,0,1.2,0,1.8,0c0.6,0,1.1,0,1.4,0c0.7,0,5.1,0,5.5,0c0.3,0,0.6-0.1,1-0.1c0.1,0,0.2-0.1,0.4-0.1
			c0.1,0,0.1,0.1,0.1,0.2c-0.1,0.5-0.1,1-0.2,1.4c0,0.2-0.1,1.2-0.1,1.5c0,0.1-0.1,0.2-0.2,0.2s-0.2-0.1-0.2-0.3
			c0-0.3,0-0.5-0.1-0.8c-0.2-0.4-0.4-0.7-1.5-0.8c-0.4,0-2.7-0.1-3.1-0.1c-0.1,0-0.2,0.1-0.2,0.2v5.6c0,0.2,0,0.2,0.2,0.2
			c0.5,0,3,0,3.5,0c0.4,0,0.8-0.1,1.1-0.3c0.2-0.2,0.2-0.3,0.4-0.3c0.1,0,0.2,0,0.2,0.2c0,0.1-0.1,0.5-0.2,1.6
			c0,0.4-0.1,1.3-0.1,1.5c0,0.2,0,0.4-0.2,0.4c0,0-0.1,0-0.1,0c0,0-0.1,0-0.1,0c0,0,0,0,0-0.1c0,0,0-0.1,0-0.1c0-0.3,0-0.5-0.1-0.8
			c-0.1-0.4-0.4-0.8-1.2-0.9c-0.4,0-2.6-0.1-3.1-0.1c-0.1,0-0.1,0.1-0.1,0.2v1.7c0,0.8,0,2.8,0,3.4c0,1.5,0.4,1.9,2.7,1.9
			c0.7,0,1.4,0,2.1-0.3c0.6-0.3,0.8-0.7,1-1.6c0-0.2,0.1-0.3,0.2-0.3c0.2,0,0.2,0.2,0.2,0.4c0,0.8-0.1,1.6-0.3,2.5
			c-0.2,0.6-0.4,0.6-1.2,0.6c-1.7,0-2.9,0-3.8-0.1c-1,0-1.6-0.1-2.3-0.1c-0.2,0-0.7,0-1.3,0c-0.5,0-1.1,0-1.5,0
			c-0.3,0-0.4-0.1-0.4-0.2c0-0.1,0.1-0.2,0.4-0.2c0.3,0,0.5,0,0.8-0.1c0.4-0.1,0.6-0.6,0.6-1.2c0.1-0.9,0.1-2.7,0.1-4.7L153.6,495.2
			z"/>
		<path class="st1" d="M173.2,505.2c-0.4-0.2-0.4-0.3-0.4-0.8c0-1.2,0.1-2.5,0.1-2.9c0-0.3,0.1-0.6,0.3-0.6c0.2,0,0.2,0.2,0.2,0.4
			c0,0.4,0.1,0.8,0.2,1.1c0.2,0.7,0.6,1.3,1.2,1.7c0.6,0.4,1.3,0.6,2,0.5c2,0,3-1.3,3-2.5c0-1.1-0.3-2.1-2.2-3.5l-1-0.8
			c-2.4-1.9-3.3-3.4-3.3-5.2c0-2.4,2-4.2,5.1-4.2c1,0,2,0.1,2.9,0.4c0.2,0,0.3,0.1,0.3,0.3c0,0.3-0.1,0.9-0.1,2.7
			c0,0.5-0.1,0.7-0.2,0.7c-0.2,0-0.2-0.1-0.2-0.4c0-0.5-0.2-1-0.6-1.5c-0.3-0.4-0.6-0.7-1.1-0.8c-0.4-0.2-0.9-0.3-1.3-0.2
			c-1.6,0-2.6,1-2.6,2.3c0,1,0.5,1.8,2.3,3.2l0.6,0.5c2.7,2,3.6,3.5,3.6,5.6c0,0.8-0.2,1.5-0.5,2.2c-0.4,0.7-0.9,1.2-1.5,1.7
			c-1.1,0.6-2.3,1-3.5,0.9C175.4,505.9,174.3,505.7,173.2,505.2z"/>
		<path class="st1" d="M197.1,490l-3.3,0.1c-1.3,0-1.8,0.2-2.1,0.6c-0.2,0.2-0.3,0.5-0.4,0.8c0,0.2-0.1,0.3-0.2,0.3
			c-0.2,0-0.2-0.1-0.2-0.4c0-0.4,0.4-2.4,0.5-2.5c0.1-0.3,0.1-0.4,0.3-0.4c0.3,0.1,0.6,0.2,0.9,0.3c0.6,0.1,1.5,0.1,2.2,0.1h8.7
			c0.5,0,1,0,1.5-0.1c0.2,0,0.4-0.1,0.6-0.1c0.2,0,0.2,0.1,0.2,0.5c0,0.5-0.1,2-0.1,2.6c0,0.2-0.1,0.4-0.2,0.4
			c-0.2,0-0.2-0.1-0.2-0.4l0-0.2c0-0.6-0.6-1.2-2.6-1.2l-2.8-0.1v9.1c0,2,0,3.8,0.1,4.7c0.1,0.6,0.2,1.1,0.9,1.2
			c0.4,0.1,0.8,0.1,1.1,0.1c0.2,0,0.4,0.1,0.4,0.2c0,0.2-0.2,0.2-0.4,0.2c-1.5,0-2.8-0.1-3.5-0.1c-0.5,0-1.9,0.1-2.8,0.1
			c-0.3,0-0.4-0.1-0.4-0.2c0-0.1,0.1-0.2,0.4-0.2c0.3,0,0.5,0,0.8-0.1c0.4-0.1,0.6-0.6,0.6-1.2c0.1-0.9,0.1-2.7,0.1-4.7L197.1,490z"
			/>
		<path class="st1" d="M215.7,495.2c0-3.4,0-4,0-4.7c0-0.8-0.2-1.1-0.9-1.3c-0.3,0-0.6-0.1-0.9-0.1c-0.2,0-0.4,0-0.4-0.2
			c0-0.2,0.2-0.2,0.5-0.2c1.2,0,2.6,0.1,3.2,0.1c0.5,0,1.9-0.1,2.7-0.1c0.3,0,0.5,0,0.5,0.2c0,0.2-0.1,0.2-0.4,0.2
			c-0.2,0-0.4,0-0.6,0.1c-0.6,0.1-0.8,0.5-0.8,1.3c0,0.7,0,1.3,0,4.7v3.1c0,3.2,0.6,4.6,1.7,5.4c0.8,0.6,1.8,1,2.8,0.9
			c1.1,0,2.2-0.4,3-1.2c1.2-1.2,1.3-3.2,1.3-5.5v-2.8c0-3.4,0-4,0-4.7c0-0.8-0.2-1.1-1-1.3c-0.3,0-0.5-0.1-0.8-0.1
			c-0.2,0-0.4,0-0.4-0.2c0-0.2,0.2-0.2,0.5-0.2c1.1,0,2.5,0.1,2.5,0.1c0.3,0,1.7-0.1,2.5-0.1c0.3,0,0.5,0,0.5,0.2
			c0,0.2-0.1,0.2-0.4,0.2c-0.2,0-0.4,0-0.6,0.1c-0.6,0.1-0.8,0.5-0.8,1.3c0,0.7,0,1.3,0,4.7v2.4c0,2.5-0.2,5.1-2.1,6.7
			c-1.3,1.1-2.9,1.7-4.6,1.6c-1.2,0-3.3-0.1-4.9-1.5c-1.1-1-2-2.7-2-5.9L215.7,495.2z"/>
		<path class="st1" d="M242.4,495.2c0-3.4,0-4,0-4.7c0-0.8-0.2-1.1-0.9-1.3c-0.3,0-0.6-0.1-0.9-0.1c-0.2,0-0.4,0-0.4-0.2
			c0-0.2,0.2-0.2,0.5-0.2c1.2,0,2.6,0.1,3.2,0.1c0.7,0,2.1-0.1,3.4-0.1c2.8,0,6.5,0,8.9,2.5c1.4,1.5,2.2,3.5,2.1,5.6
			c0,2.3-0.8,4.5-2.4,6.2c-1,1-3.3,2.6-7.4,2.6c-0.8,0-1.7-0.1-2.5-0.1c-0.8-0.1-1.6-0.1-2.2-0.1c-0.2,0-0.7,0-1.3,0
			c-0.5,0-1.1,0-1.5,0c-0.3,0-0.4-0.1-0.4-0.2c0-0.1,0.1-0.2,0.4-0.2c0.3,0,0.5,0,0.8-0.1c0.4-0.1,0.6-0.6,0.6-1.2
			c0.1-0.9,0.1-2.7,0.1-4.7L242.4,495.2z M245.1,497.6c0,2.3,0,4,0,4.5c0,0.6,0.1,1.1,0.2,1.7c0.3,0.4,1.1,0.9,2.9,0.9
			c2.3,0,3.8-0.4,5.1-1.6c1.4-1.2,1.9-3.2,1.9-5.5c0-1-0.1-2-0.5-3c-0.4-1-0.9-1.8-1.6-2.5c-1.7-1.5-4-2.3-6.3-2.2
			c-0.5,0-1,0-1.4,0.2c-0.1,0-0.2,0.1-0.2,0.2c0,0.1-0.1,0.2-0.1,0.3c0,0.8,0,2.7,0,4.4L245.1,497.6z"/>
		<path class="st1" d="M269.7,495.2c0-3.4,0-4,0-4.7c0-0.8-0.3-1.1-0.8-1.2c-0.3-0.1-0.5-0.1-0.8-0.1c-0.2,0-0.4,0-0.4-0.2
			c0-0.1,0.2-0.2,0.5-0.2c0.8,0,2.2,0.1,2.9,0.1c0.6,0,1.9-0.1,2.7-0.1c0.3,0,0.5,0,0.5,0.2c0,0.2-0.1,0.2-0.4,0.2
			c-0.2,0-0.4,0-0.7,0.1c-0.6,0.1-0.8,0.5-0.8,1.3c0,0.7,0,1.3,0,4.7v3.9c0,2.1,0,3.9,0.1,4.8c0.1,0.6,0.2,1,0.9,1.1
			c0.4,0.1,0.7,0.1,1.1,0.1c0.2,0,0.4,0.1,0.4,0.2c0,0.2-0.2,0.2-0.4,0.2c-1.5,0-2.9-0.1-3.4-0.1c-0.5,0-1.9,0.1-2.8,0.1
			c-0.3,0-0.4-0.1-0.4-0.2c0-0.1,0.1-0.2,0.4-0.2c0.3,0,0.5,0,0.8-0.1c0.4-0.1,0.6-0.5,0.6-1.1c0.1-0.9,0.1-2.7,0.1-4.8V495.2z"/>
		<path class="st1" d="M283.9,497.2c0-3.8,2.5-8.7,9.1-8.7c5.5,0,8.9,3.2,8.9,8.3c0,5.1-3.5,9.1-9.1,9.1
			C286.4,505.8,283.9,501.1,283.9,497.2z M298.8,497.6c0-4.9-2.9-8-6.5-8c-2.5,0-5.4,1.4-5.4,6.9c0,4.6,2.5,8.2,6.8,8.2
			C295.2,504.7,298.8,504,298.8,497.6z"/>
		<path class="st1" d="M327.1,495.2c0-3.4,0-4,0-4.7c0-0.8-0.2-1.1-0.9-1.3c-0.3,0-0.6-0.1-0.9-0.1c-0.2,0-0.4,0-0.4-0.2
			c0-0.2,0.2-0.2,0.5-0.2c1.2,0,2.6,0.1,3.2,0.1c0.7,0,2.1-0.1,3.4-0.1c2.8,0,6.5,0,8.9,2.5c1.4,1.5,2.2,3.5,2.1,5.6
			c0,2.3-0.8,4.5-2.4,6.2c-1,1-3.3,2.6-7.4,2.6c-0.8,0-1.7-0.1-2.5-0.1c-0.8-0.1-1.6-0.1-2.2-0.1c-0.2,0-0.7,0-1.3,0
			c-0.5,0-1.1,0-1.5,0c-0.3,0-0.4-0.1-0.4-0.2c0-0.1,0.1-0.2,0.4-0.2c0.3,0,0.5,0,0.8-0.1c0.4-0.1,0.6-0.6,0.6-1.2
			c0.1-0.9,0.1-2.7,0.1-4.7L327.1,495.2z M329.8,497.6c0,2.3,0,4,0,4.5c0,0.6,0.1,1.1,0.2,1.7c0.3,0.4,1.1,0.9,2.9,0.9
			c2.3,0,3.8-0.4,5.1-1.6c1.4-1.2,1.9-3.2,1.9-5.5c0-1-0.1-2-0.5-3c-0.4-1-0.9-1.8-1.6-2.5c-1.7-1.5-4-2.3-6.3-2.2
			c-0.5,0-1,0-1.4,0.2c-0.1,0-0.2,0.1-0.2,0.2c0,0.1-0.1,0.2-0.1,0.3c0,0.8,0,2.7,0,4.4L329.8,497.6z"/>
		<path class="st1" d="M354.4,495.2c0-3.4,0-4,0-4.7c0-0.8-0.2-1.1-1-1.3c-0.3,0-0.6-0.1-0.9-0.1c-0.2,0-0.4,0-0.4-0.2
			c0-0.2,0.2-0.2,0.5-0.2c0.6,0,1.2,0,1.8,0c0.6,0,1.1,0,1.4,0c0.7,0,5.1,0,5.5,0c0.3,0,0.6-0.1,0.9-0.1c0.1,0,0.2-0.1,0.4-0.1
			c0.1,0,0.1,0.1,0.1,0.2c-0.1,0.5-0.1,1-0.2,1.4c0,0.2-0.1,1.2-0.1,1.5c0,0.1-0.1,0.2-0.2,0.2s-0.2-0.1-0.2-0.3
			c0-0.3,0-0.5-0.1-0.8c-0.2-0.4-0.4-0.7-1.5-0.8c-0.4,0-2.7-0.1-3.1-0.1c-0.1,0-0.2,0.1-0.2,0.2v5.6c0,0.2,0,0.2,0.2,0.2
			c0.5,0,3,0,3.5,0c0.4,0,0.8-0.1,1.1-0.3c0.2-0.2,0.2-0.3,0.4-0.3c0.1,0,0.2,0,0.2,0.2c0,0.1-0.1,0.5-0.2,1.6
			c0,0.4-0.1,1.3-0.1,1.5c0,0.2,0,0.4-0.2,0.4c0,0-0.1,0-0.1,0c0,0-0.1,0-0.1,0c0,0,0,0,0-0.1c0,0,0-0.1,0-0.1c0-0.3,0-0.5-0.1-0.8
			c-0.1-0.4-0.4-0.8-1.2-0.9c-0.4,0-2.6-0.1-3.1-0.1c-0.1,0-0.1,0.1-0.1,0.2v1.7c0,0.8,0,2.8,0,3.4c0,1.5,0.4,1.9,2.7,1.9
			c0.7,0,1.4,0,2.1-0.3c0.6-0.3,0.8-0.7,1-1.6c0-0.2,0.1-0.3,0.2-0.3c0.2,0,0.2,0.2,0.2,0.4c0,0.8-0.1,1.6-0.3,2.5
			c-0.2,0.6-0.4,0.6-1.2,0.6c-1.7,0-2.9,0-3.8-0.1c-1,0-1.6-0.1-2.3-0.1c-0.2,0-0.7,0-1.3,0c-0.5,0-1.1,0-1.5,0
			c-0.3,0-0.4-0.1-0.4-0.2c0-0.1,0.1-0.2,0.4-0.2c0.3,0,0.5,0,0.8-0.1c0.4-0.1,0.6-0.6,0.6-1.2c0.1-0.9,0.1-2.7,0.1-4.7L354.4,495.2
			z"/>
		<path class="st1" d="M402.1,504c0,0.6,0,0.6-0.3,0.8c-1.4,0.8-3.6,1-5.3,1c-5.4,0-10.2-2.6-10.2-8.7c0-1.4,0.3-2.9,1-4.1
			c0.7-1.3,1.7-2.3,2.9-3.1c1.8-1,3.9-1.5,5.9-1.4c1.3,0,2.6,0.1,3.9,0.4c0.6,0.1,1.2,0.2,1.7,0.2c0.3,0,0.3,0.1,0.3,0.3
			c-0.1,1.2-0.2,2.4-0.2,3.6c0,0.4-0.1,0.5-0.2,0.5c-0.2,0-0.2-0.1-0.2-0.3c0-0.7-0.3-1.3-0.8-1.8c-1.4-1.2-3.1-1.8-4.9-1.7
			c-1.6-0.1-3.1,0.4-4.4,1.4c-1.2,1-2,2.7-2,5.4c0,4.8,3,8.3,7.7,8.3c0.6,0,1.3,0,1.9-0.2c0.1-0.1,0.3-0.2,0.3-0.3
			c0.1-0.1,0.1-0.3,0.1-0.5v-2.1c0-1.1,0-1.9,0-2.6c0-0.8-0.2-1.1-1-1.3c-0.3,0-0.6-0.1-0.9-0.1c-0.2,0-0.3,0-0.3-0.2
			c0-0.2,0.2-0.2,0.5-0.2c1.1,0,2.5,0.1,3.2,0.1c0.7,0,1.9-0.1,2.6-0.1c0.3,0,0.4,0,0.4,0.2c0,0.1-0.1,0.2-0.3,0.2
			c-0.2,0-0.4,0-0.6,0.1c-0.6,0.1-0.8,0.5-0.8,1.3c0,0.7,0,1.5,0,2.7L402.1,504z"/>
		<path class="st1" d="M415.1,495.2c0-3.4,0-4,0-4.7c0-0.8-0.2-1.1-1-1.3c-0.3-0.1-0.6-0.1-0.9-0.1c-0.2,0-0.4,0-0.4-0.2
			c0-0.2,0.2-0.2,0.5-0.2c1.2,0,2.6,0.1,3,0.1c0.8,0,2.4-0.1,3.1-0.1c1.4-0.1,2.8,0.2,4.1,1c0.5,0.4,0.8,0.8,1.1,1.3
			c0.3,0.5,0.4,1.1,0.4,1.7c0,1.6-0.7,3.1-2.9,4.9c2,2.5,3.5,4.4,4.8,5.8c0.6,0.8,1.5,1.3,2.5,1.5c0.2,0,0.4,0.1,0.6,0.1
			c0.2,0,0.3,0.1,0.3,0.2c0,0.2-0.2,0.2-0.4,0.2h-2.1c-0.8,0.1-1.6-0.1-2.4-0.4c-1-0.5-1.8-1.5-3-3.2c-0.9-1.2-1.9-2.7-2.2-3
			c0-0.1-0.1-0.1-0.2-0.1c-0.1,0-0.1,0-0.2,0l-1.9,0c-0.1,0-0.2,0-0.2,0.2v0.3c0,2.1,0,3.8,0.1,4.7c0.1,0.6,0.2,1.1,0.9,1.2
			c0.4,0,0.7,0.1,1.1,0.1c0.2,0,0.3,0.1,0.3,0.2c0,0.2-0.2,0.2-0.4,0.2c-1.3,0-2.9-0.1-3.2-0.1c-0.4,0-1.8,0.1-2.7,0.1
			c-0.3,0-0.4-0.1-0.4-0.2c0-0.1,0.1-0.2,0.4-0.2c0.3,0,0.5,0,0.8-0.1c0.4-0.1,0.6-0.6,0.6-1.2c0.1-0.9,0.1-2.7,0.1-4.7L415.1,495.2
			z M417.7,497c0,0.2,0,0.3,0.2,0.4c0.5,0.2,1.1,0.2,1.7,0.2c0.6,0.1,1.1-0.1,1.6-0.4c0.7-0.5,1.3-1.5,1.3-3.3c0-3.1-2.1-4-3.4-4
			c-0.4,0-0.8,0-1.2,0.1c-0.2,0-0.2,0.1-0.2,0.3V497z"/>
		<path class="st1" d="M439.5,499.7c-0.1,0-0.2,0-0.2,0.2l-1.2,3.2c-0.2,0.4-0.3,0.9-0.3,1.3c0,0.4,0.2,0.7,0.9,0.7h0.3
			c0.3,0,0.3,0,0.3,0.2c0,0.2-0.1,0.2-0.4,0.2c-0.7,0-1.7-0.1-2.3-0.1c-0.2,0-1.5,0.1-2.6,0.1c-0.3,0-0.4,0-0.4-0.2
			c0-0.1,0.1-0.2,0.3-0.2c0.2,0,0.5,0,0.7,0c1-0.1,1.4-0.9,1.9-2l5.5-13.9c0.3-0.6,0.4-0.9,0.6-0.9c0.2,0,0.3,0.2,0.6,0.7
			c0.5,1.2,4.1,10.2,5.5,13.6c0.8,2,1.5,2.3,1.9,2.4c0.3,0.1,0.6,0.1,0.9,0.1c0.2,0,0.3,0,0.3,0.2c0,0.2-0.2,0.2-1,0.2
			c-0.8,0-2.4,0-4.2,0c-0.4,0-0.7,0-0.7-0.2c0-0.1,0.1-0.2,0.3-0.2c0,0,0.1,0,0.1-0.1c0,0,0.1-0.1,0.1-0.1c0,0,0-0.1,0-0.2
			c0-0.1,0-0.1,0-0.1l-1.8-4.7c0,0,0-0.1-0.1-0.1c0,0-0.1,0-0.1,0L439.5,499.7z M444,498.6c0.1,0,0.1-0.1,0.1-0.1l-2-5.5
			c0-0.1,0-0.2-0.1-0.2s-0.1,0.1-0.1,0.2l-2,5.4c0,0.1,0,0.2,0.1,0.2L444,498.6z"/>
		<path class="st1" d="M460.9,495.2c0-3.4,0-4,0-4.7c0-0.8-0.2-1.1-0.9-1.3c-0.3,0-0.6-0.1-0.9-0.1c-0.2,0-0.4,0-0.4-0.2
			c0-0.2,0.2-0.2,0.5-0.2c1.2,0,2.6,0.1,3,0.1c1.1,0,1.9-0.1,2.7-0.1c4,0,4.7,2.1,4.7,3.3c0,1.8-1,2.9-2.3,3.9c1.8,0.6,4,2.2,4,4.8
			c0,2.4-1.8,4.8-5.9,4.8c-0.3,0-0.9,0-1.5-0.1c-0.7,0-1.3-0.1-1.7-0.1c-0.2,0-0.7,0-1.3,0c-0.5,0-1.1,0-1.5,0
			c-0.3,0-0.4-0.1-0.4-0.2c0-0.1,0.1-0.2,0.4-0.2c0.3,0,0.5,0,0.8-0.1c0.4-0.1,0.6-0.6,0.6-1.2c0.1-0.9,0.1-2.7,0.1-4.7V495.2z
			 M463.6,495.6c0,0.2,0.1,0.2,0.2,0.2c0.3,0.1,0.7,0.1,1,0.1c0.6,0.1,1.1-0.1,1.6-0.4c0.3-0.3,0.6-0.7,0.7-1.1
			c0.2-0.4,0.2-0.8,0.2-1.3c0-1.5-0.9-3.4-2.8-3.4c-0.2,0-0.5,0-0.7,0c-0.2,0-0.2,0.1-0.2,0.4L463.6,495.6z M466.5,497.4
			c-0.5-0.4-1.2-0.5-1.8-0.5c-0.4,0-0.6,0-1,0c-0.1,0-0.1,0-0.1,0.2v5.2c0,1.5,0.1,1.8,0.8,2.1c0.5,0.2,1.1,0.3,1.6,0.3
			c0.4,0,0.7,0,1.1-0.2c0.3-0.1,0.7-0.3,0.9-0.6c0.3-0.3,0.4-0.6,0.6-0.9c0.1-0.3,0.2-0.7,0.1-1.1c0-0.9-0.2-1.7-0.5-2.5
			C467.7,498.5,467.2,497.9,466.5,497.4z"/>
		<path class="st1" d="M484.4,499.7c-0.1,0-0.2,0-0.2,0.2l-1.2,3.2c-0.2,0.4-0.3,0.9-0.3,1.3c0,0.4,0.2,0.7,0.9,0.7h0.3
			c0.3,0,0.3,0,0.3,0.2c0,0.2-0.1,0.2-0.4,0.2c-0.7,0-1.7-0.1-2.3-0.1c-0.2,0-1.5,0.1-2.6,0.1c-0.3,0-0.4,0-0.4-0.2
			c0-0.1,0.1-0.2,0.3-0.2c0.2,0,0.5,0,0.7,0c1-0.1,1.4-0.9,1.9-2l5.5-13.9c0.3-0.6,0.4-0.9,0.6-0.9c0.2,0,0.3,0.2,0.6,0.7
			c0.5,1.2,4.1,10.2,5.5,13.6c0.8,2,1.5,2.3,1.9,2.4c0.3,0.1,0.6,0.1,0.9,0.1c0.2,0,0.3,0,0.3,0.2c0,0.2-0.2,0.2-1,0.2
			c-0.8,0-2.4,0-4.2,0c-0.4,0-0.7,0-0.7-0.2c0-0.1,0.1-0.2,0.3-0.2c0,0,0.1,0,0.1-0.1c0,0,0.1-0.1,0.1-0.1c0,0,0-0.1,0-0.2
			c0-0.1,0-0.1,0-0.1l-1.8-4.7c0,0,0-0.1-0.1-0.1c0,0-0.1,0-0.1,0L484.4,499.7z M488.9,498.6c0.1,0,0.1-0.1,0.1-0.1l-2-5.5
			c0-0.1,0-0.2-0.1-0.2c-0.1,0-0.1,0.1-0.1,0.2l-2,5.4c0,0.1,0,0.2,0.1,0.2H488.9z"/>
		<path class="st1" d="M506.1,503.4c-0.9-0.8-1.5-1.8-2-2.8c-0.5-1.1-0.7-2.2-0.7-3.4c0-1.2,0.2-2.3,0.7-3.4
			c0.4-1.1,1.1-2.1,1.9-2.9c1.6-1.5,3.7-2.3,7-2.3c1.1,0,2.1,0.1,3.2,0.2c0.8,0.1,1.5,0.3,2.2,0.4c0.2,0,0.3,0.1,0.3,0.3
			c0,0.2-0.1,0.4-0.1,1.2c0,0.7,0,1.9-0.1,2.4c0,0.3-0.1,0.5-0.3,0.5c-0.2,0-0.2-0.2-0.2-0.5c0-0.8-0.3-1.5-0.9-2
			c-0.7-0.8-2.5-1.4-4.5-1.4c-1.5-0.1-3,0.4-4.2,1.4c-1.6,1.5-2,3.6-2,5.7c0,5.3,4,7.9,7,7.9c2,0,3.2-0.2,4-1.2
			c0.4-0.4,0.6-0.9,0.8-1.5c0.1-0.4,0.1-0.4,0.3-0.4c0.2,0,0.2,0.2,0.2,0.3c-0.1,1-0.3,2-0.5,2.9c0,0.2-0.1,0.3-0.2,0.4
			c-0.1,0.1-0.2,0.2-0.4,0.2c-1.3,0.4-2.6,0.5-4,0.5C510.7,505.8,508.2,505.2,506.1,503.4z"/>
		<path class="st1" d="M530.3,495.2c0-3.4,0-4,0-4.7c0-0.8-0.3-1.1-0.8-1.2c-0.3-0.1-0.5-0.1-0.8-0.1c-0.2,0-0.4,0-0.4-0.2
			c0-0.1,0.2-0.2,0.5-0.2c0.8,0,2.2,0.1,2.9,0.1c0.6,0,1.9-0.1,2.7-0.1c0.3,0,0.5,0,0.5,0.2c0,0.2-0.1,0.2-0.4,0.2
			c-0.2,0-0.4,0-0.7,0.1c-0.6,0.1-0.8,0.5-0.8,1.3c0,0.7,0,1.3,0,4.7v3.9c0,2.1,0,3.9,0.1,4.8c0.1,0.6,0.2,1,0.9,1.1
			c0.4,0.1,0.7,0.1,1.1,0.1c0.2,0,0.4,0.1,0.4,0.2c0,0.2-0.2,0.2-0.4,0.2c-1.5,0-2.9-0.1-3.4-0.1c-0.5,0-1.9,0.1-2.8,0.1
			c-0.3,0-0.4-0.1-0.4-0.2c0-0.1,0.1-0.2,0.4-0.2c0.3,0,0.5,0,0.8-0.1c0.4-0.1,0.6-0.5,0.6-1.1c0.1-0.9,0.1-2.7,0.1-4.8V495.2z"/>
		<path class="st1" d="M544.5,497.2c0-3.8,2.5-8.7,9.1-8.7c5.5,0,8.9,3.2,8.9,8.3s-3.5,9.1-9.1,9.1
			C547.1,505.8,544.5,501.1,544.5,497.2z M559.5,497.6c0-4.9-2.8-8-6.5-8c-2.5,0-5.4,1.4-5.4,6.9c0,4.6,2.5,8.2,6.8,8.2
			C555.9,504.7,559.5,504,559.5,497.6z M557.2,485.3c0.1,0.3,0,0.3-0.1,0.3c-0.2,0-0.5,0-0.8,0c-1.3,0.2-2.6,0.7-3.8,1.3
			c-0.1,0.1-0.2,0.1-0.4,0.2c0,0-0.1,0-0.1,0c0,0,0-0.1,0-0.1c0-0.1,0.1-0.2,0.2-0.3c1.1-1,2.3-1.9,3.6-2.8c0.1-0.1,0.3-0.2,0.4-0.2
			c0.2,0,0.2,0.1,0.3,0.3C556.8,484.3,557,484.7,557.2,485.3z"/>
		<path class="st1" d="M575.3,502.5c0,1.7,0.3,2.3,0.8,2.5c0.4,0.1,0.8,0.2,1.2,0.2c0.2,0,0.4,0,0.4,0.2c0,0.2-0.2,0.2-0.5,0.2
			c-1.4,0-2.3-0.1-2.7-0.1c-0.2,0-1.2,0.1-2.4,0.1c-0.3,0-0.5,0-0.5-0.2c0-0.1,0.1-0.2,0.4-0.2c0.3,0,0.7,0,1-0.1
			c0.6-0.2,0.7-0.8,0.7-2.7l0.2-13.1c0-0.4,0.1-0.8,0.3-0.8c0.2,0,0.4,0.3,0.8,0.7c0.3,0.3,3.6,3.9,6.9,7.1c1.5,1.5,4.5,4.7,4.9,5
			h0.1l-0.2-9.9c0-1.3-0.2-1.8-0.8-2c-0.4-0.1-0.8-0.2-1.2-0.1c-0.3,0-0.4-0.1-0.4-0.2c0-0.2,0.2-0.2,0.6-0.2c1.1,0,2.2,0.1,2.7,0.1
			c0.2,0,1.1-0.1,2.2-0.1c0.3,0,0.5,0,0.5,0.2c0,0.1-0.1,0.2-0.4,0.2c-0.2,0-0.4,0-0.7,0.1c-0.6,0.2-0.8,0.6-0.8,1.9l-0.2,13.9
			c0,0.5-0.1,0.7-0.3,0.7c-0.2,0-0.5-0.2-0.8-0.5c-1.4-1.3-4.2-4.2-6.5-6.5c-2.4-2.4-4.9-5.1-5.3-5.6h-0.1L575.3,502.5z"/>
		<path class="st1" d="M293.4,551.3c0,2.1,0,3.8,0.1,4.7c0.1,0.6,0.2,1.1,0.9,1.2c0.4,0.1,0.7,0.1,1.1,0.1c0.3,0,0.4,0.1,0.4,0.2
			c0,0.2-0.2,0.2-0.5,0.2c-1.4,0-2.8-0.1-3.4-0.1c-0.6,0-2,0.1-2.8,0.1c-0.3,0-0.5,0-0.5-0.2c0-0.1,0.1-0.2,0.3-0.2
			c0.3,0,0.5,0,0.8-0.1c0.4-0.1,0.6-0.6,0.6-1.2c0.1-0.9,0.1-2.6,0.1-4.7v-3.9c0-3.4,0-4,0-4.7c0-0.8-0.2-1.1-0.9-1.3
			c-0.3,0-0.6-0.1-0.9-0.1c-0.2,0-0.4,0-0.4-0.2c0-0.2,0.2-0.2,0.5-0.2c0.6,0,1.2,0,1.8,0c0.6,0,1.1,0,1.4,0c0.8,0,5.3,0,5.8,0
			c0.3,0,0.6,0,0.9-0.1c0.1,0,0.2-0.1,0.4-0.1c0,0,0,0,0.1,0c0,0,0,0,0.1,0c0,0,0,0,0,0.1c0,0,0,0,0,0.1c0,0.2-0.1,0.4-0.2,1
			c0,0.2-0.1,1.5-0.1,1.8c0,0.2-0.1,0.3-0.2,0.3c-0.2,0-0.2-0.1-0.2-0.4c0-0.3,0-0.6-0.1-0.8c-0.2-0.2-0.4-0.4-0.6-0.5
			c-0.3-0.1-0.5-0.2-0.8-0.1l-3.4-0.1c-0.1,0-0.2,0.1-0.2,0.3v5.5c0,0.1,0,0.2,0.2,0.2l2.8,0c0.4,0,0.7,0,1,0c0.2,0,0.4,0,0.5-0.1
			c0.2-0.1,0.3-0.2,0.4-0.3c0.1-0.1,0.2-0.2,0.3-0.2c0.1,0,0.1,0.1,0.1,0.2c0,0.1-0.1,0.7-0.2,1.4c0,0.4-0.1,1.5-0.1,1.6
			c0,0.2,0,0.4-0.2,0.4c-0.1,0-0.2-0.2-0.2-0.3c0-0.2-0.1-0.5-0.1-0.7c-0.1-0.2-0.2-0.4-0.4-0.6c-0.2-0.1-0.4-0.2-0.7-0.2
			c-0.6-0.1-2.9-0.1-3.3-0.1c-0.1,0-0.2,0-0.2,0.2V551.3z"/>
		<path class="st1" d="M310.3,547.4c0-3.4,0-4,0-4.7c0-0.8-0.2-1.1-1-1.3c-0.3,0-0.6-0.1-0.9-0.1c-0.2,0-0.4,0-0.4-0.2
			c0-0.2,0.2-0.2,0.5-0.2c1.2,0,2.6,0.1,3.2,0.1c0.5,0,1.9-0.1,2.7-0.1c0.3,0,0.5,0,0.5,0.2c0,0.2-0.1,0.2-0.4,0.2
			c-0.2,0-0.4,0-0.6,0.1c-0.6,0.1-0.8,0.5-0.8,1.3c0,0.7,0,1.3,0,4.7v3.1c0,3.2,0.6,4.6,1.7,5.4c0.8,0.6,1.8,1,2.8,0.9
			c1.1,0,2.2-0.4,3-1.2c1.2-1.2,1.3-3.2,1.3-5.5v-2.8c0-3.4,0-4,0-4.7c0-0.8-0.2-1.1-1-1.3c-0.3,0-0.5-0.1-0.8-0.1
			c-0.2,0-0.4,0-0.4-0.2c0-0.2,0.2-0.2,0.5-0.2c1.1,0,2.5,0.1,2.5,0.1c0.3,0,1.7-0.1,2.5-0.1c0.3,0,0.5,0,0.5,0.2
			c0,0.2-0.1,0.2-0.4,0.2c-0.2,0-0.4,0-0.6,0.1c-0.6,0.1-0.8,0.5-0.8,1.3c0,0.7,0,1.3,0,4.7v2.4c0,2.5-0.2,5.1-2.1,6.7
			c-1.3,1.1-2.9,1.7-4.6,1.6c-1.2,0-3.3-0.1-4.9-1.5c-1.1-1-2-2.7-2-5.9V547.4z"/>
		<path class="st1" d="M339.8,542.3l-3.3,0.1c-1.3,0-1.8,0.2-2.1,0.6c-0.2,0.2-0.3,0.5-0.4,0.8c0,0.2-0.1,0.3-0.2,0.3
			c-0.2,0-0.2-0.1-0.2-0.4c0-0.4,0.4-2.4,0.5-2.5c0.1-0.3,0.1-0.4,0.3-0.4c0.3,0.1,0.6,0.2,1,0.3c0.6,0.1,1.5,0.1,2.2,0.1h8.7
			c0.5,0,1,0,1.5-0.1c0.2,0,0.4-0.1,0.6-0.1c0.2,0,0.2,0.1,0.2,0.5c0,0.5-0.1,2-0.1,2.6c0,0.2-0.1,0.4-0.2,0.4
			c-0.2,0-0.2-0.1-0.2-0.4l0-0.2c0-0.6-0.6-1.2-2.6-1.2l-2.8-0.1v9.1c0,2,0,3.8,0.1,4.7c0.1,0.6,0.2,1.1,0.9,1.2
			c0.4,0.1,0.7,0.1,1.1,0.1c0.2,0,0.4,0.1,0.4,0.2c0,0.2-0.2,0.2-0.4,0.2c-1.5,0-2.9-0.1-3.5-0.1c-0.5,0-1.9,0.1-2.8,0.1
			c-0.3,0-0.4-0.1-0.4-0.2c0-0.1,0.1-0.2,0.4-0.2c0.3,0,0.5,0,0.8-0.1c0.4-0.1,0.6-0.6,0.6-1.2c0.1-0.9,0.1-2.7,0.1-4.7L339.8,542.3
			z"/>
		<path class="st1" d="M359.4,547.4c0-3.4,0-4,0-4.7c0-0.8-0.2-1.1-0.9-1.3c-0.3,0-0.6-0.1-0.9-0.1c-0.2,0-0.4,0-0.4-0.2
			c0-0.2,0.2-0.2,0.5-0.2c1.2,0,2.6,0.1,3,0.1c0.8,0,2.4-0.1,3.1-0.1c1.4-0.1,2.8,0.2,4.1,1c0.5,0.4,0.8,0.8,1.1,1.3
			c0.3,0.5,0.4,1.1,0.4,1.7c0,1.6-0.7,3.1-2.9,4.9c2,2.5,3.5,4.4,4.8,5.8c0.6,0.8,1.5,1.3,2.5,1.5c0.2,0,0.4,0.1,0.6,0.1
			c0.2,0,0.3,0.1,0.3,0.2c0,0.2-0.2,0.2-0.4,0.2h-2.1c-0.8,0.1-1.6-0.1-2.4-0.4c-1-0.5-1.8-1.5-3-3.2c-0.9-1.2-1.9-2.7-2.2-3
			c0-0.1-0.1-0.1-0.2-0.1s-0.1,0-0.2,0l-1.9,0c-0.1,0-0.2,0-0.2,0.2v0.3c0,2.1,0,3.8,0.1,4.7c0.1,0.6,0.2,1.1,0.9,1.2
			c0.4,0,0.7,0.1,1.1,0.1c0.2,0,0.3,0.1,0.3,0.2c0,0.2-0.2,0.2-0.4,0.2c-1.3,0-2.9-0.1-3.2-0.1c-0.4,0-1.8,0.1-2.7,0.1
			c-0.3,0-0.4-0.1-0.4-0.2c0-0.1,0.1-0.2,0.4-0.2c0.3,0,0.5,0,0.8-0.1c0.4-0.1,0.6-0.6,0.6-1.2c0.1-0.9,0.1-2.7,0.1-4.7L359.4,547.4
			z M362,549.2c0,0.2,0,0.3,0.2,0.4c0.5,0.2,1.1,0.2,1.7,0.2c0.6,0.1,1.1-0.1,1.6-0.4c0.7-0.5,1.3-1.5,1.3-3.3c0-3.1-2.1-4-3.4-4
			c-0.4,0-0.8,0-1.2,0.1c-0.2,0-0.2,0.1-0.2,0.3V549.2z"/>
		<path class="st1" d="M380.4,549.4c0-3.8,2.5-8.7,9.1-8.7c5.5,0,8.9,3.2,8.9,8.3c0,5.1-3.5,9.1-9.1,9.1
			C383,558,380.4,553.3,380.4,549.4z M395.4,549.8c0-4.9-2.9-8-6.5-8c-2.5,0-5.4,1.4-5.4,6.9c0,4.6,2.5,8.2,6.8,8.2
			C391.8,556.9,395.4,556.2,395.4,549.8L395.4,549.8z"/>
		<path class="st1" d="M411.2,554.7c0,1.7,0.3,2.3,0.8,2.5c0.4,0.1,0.8,0.2,1.1,0.2c0.2,0,0.4,0,0.4,0.2c0,0.2-0.2,0.2-0.5,0.2
			c-1.4,0-2.3-0.1-2.7-0.1c-0.2,0-1.2,0.1-2.4,0.1c-0.3,0-0.5,0-0.5-0.2c0-0.1,0.1-0.2,0.4-0.2c0.3,0,0.7,0,1-0.1
			c0.6-0.2,0.7-0.8,0.7-2.7l0.2-13.1c0-0.4,0.1-0.8,0.3-0.8c0.2,0,0.4,0.3,0.8,0.7c0.3,0.3,3.6,3.9,6.8,7.1c1.5,1.5,4.5,4.7,4.9,5
			h0.1l-0.2-9.9c0-1.3-0.2-1.8-0.8-2c-0.4-0.1-0.8-0.2-1.2-0.1c-0.3,0-0.4-0.1-0.4-0.2c0-0.2,0.2-0.2,0.6-0.2c1.1,0,2.2,0.1,2.7,0.1
			c0.2,0,1.1-0.1,2.2-0.1c0.3,0,0.5,0,0.5,0.2c0,0.1-0.1,0.2-0.4,0.2c-0.2,0-0.4,0-0.7,0.1c-0.6,0.2-0.8,0.6-0.8,1.9l-0.2,13.9
			c0,0.5-0.1,0.7-0.3,0.7c-0.2,0-0.5-0.2-0.8-0.5c-1.4-1.3-4.2-4.2-6.5-6.5c-2.4-2.4-4.9-5.1-5.3-5.6H411L411.2,554.7z"/>
		<path class="st1" d="M435.1,549.4c0-3.8,2.5-8.7,9.1-8.7c5.5,0,8.9,3.2,8.9,8.3c0,5.1-3.5,9.1-9.1,9.1
			C437.7,558,435.1,553.3,435.1,549.4z M450.1,549.8c0-4.9-2.8-8-6.5-8c-2.5,0-5.4,1.4-5.4,6.9c0,4.6,2.5,8.2,6.8,8.2
			C446.5,556.9,450.1,556.2,450.1,549.8z"/>
		<path class="st1" d="M109.2,358.9c0.2-0.9,0.5-1.4,0.9-1.4c0.4,0,0.8,0.3,1.5,1.7l15.2,31.3l15.1-31.7c0.4-0.9,0.7-1.3,1.2-1.3
			s0.8,0.6,1,1.7l5.1,34.3c0.5,3.5,1.1,5.1,2.7,5.6c1.1,0.4,2.3,0.6,3.4,0.6c0.5,0,0.9,0.1,0.9,0.4c0,0.4-0.7,0.6-1.4,0.6
			c-1.4,0-9.1-0.2-11.3-0.3c-1.3-0.1-1.6-0.3-1.6-0.6c0-0.3,0.2-0.4,0.6-0.6c0.3-0.1,0.5-0.8,0.3-2.4l-3.3-24.4h-0.2l-12.1,25.2
			c-1.3,2.6-1.6,3.1-2.1,3.1c-0.5,0-1.1-1.1-1.9-2.8c-1.3-2.6-5.7-11.1-6.4-12.6c-0.5-1.2-3.8-8.2-5.8-12.3h-0.2l-2.9,22.1
			c-0.1,0.9-0.2,1.7-0.2,2.6c0,1.1,0.7,1.6,1.7,1.8c0.8,0.2,1.5,0.3,2.3,0.3c0.4,0,0.8,0.1,0.8,0.4c0,0.5-0.5,0.6-1.3,0.6
			c-2.3,0-4.8-0.2-5.8-0.2c-1.1,0-3.7,0.2-5.5,0.2c-0.6,0-1-0.1-1-0.6c0-0.3,0.3-0.4,0.9-0.4c0.6,0,1.1,0,1.7-0.2
			c1.6-0.3,2-2.5,2.3-4.4L109.2,358.9z"/>
		<path class="st1" d="M169.9,379.7c0-9.5,6.3-21.8,22.9-21.8c13.8,0,22.4,8.1,22.4,20.8c0,12.7-8.9,22.8-23,22.8
			C176.4,401.4,169.9,389.5,169.9,379.7z M207.6,380.7c0-12.4-7.2-20.2-16.3-20.2c-6.4,0-13.7,3.6-13.7,17.4
			c0,11.6,6.4,20.7,17.1,20.7C198.6,398.7,207.6,396.8,207.6,380.7z"/>
		<path class="st1" d="M241.3,393.1c0.1,4.3,0.8,5.8,1.9,6.2c0.9,0.3,1.9,0.4,2.9,0.4c0.6,0,0.9,0.1,0.9,0.4c0,0.4-0.5,0.6-1.3,0.6
			c-3.6,0-5.8-0.2-6.9-0.2c-0.5,0-3.1,0.2-6,0.2c-0.7,0-1.2-0.1-1.2-0.6c0-0.3,0.3-0.4,0.9-0.4c0.8,0,1.7-0.1,2.5-0.3
			c1.4-0.4,1.7-2.1,1.7-6.9l0.5-32.9c0-1.1,0.2-1.9,0.7-1.9c0.6,0,1.1,0.7,2.1,1.7c0.7,0.7,9.1,9.8,17.2,17.8
			c3.8,3.8,11.3,11.8,12.2,12.7h0.3l-0.6-24.9c-0.1-3.4-0.6-4.4-1.9-5c-1-0.3-2-0.4-2.9-0.3c-0.7,0-0.9-0.2-0.9-0.5
			c0-0.4,0.6-0.5,1.4-0.5c2.9,0,5.6,0.2,6.7,0.2c0.6,0,2.7-0.2,5.4-0.2c0.7,0,1.3,0.1,1.3,0.5c0,0.3-0.3,0.5-1,0.5
			c-0.6,0-1.1,0-1.7,0.2c-1.6,0.4-2,1.6-2.1,4.7l-0.6,35.1c0,1.2-0.2,1.7-0.7,1.7c-0.6,0-1.3-0.6-1.9-1.2
			c-3.5-3.3-10.6-10.6-16.4-16.3c-6.1-6-12.2-12.9-13.2-14h-0.2L241.3,393.1z"/>
		<path class="st1" d="M329.9,374.8c0-8.4,0-10-0.1-11.8c-0.1-1.9-0.6-2.8-2.4-3.2c-0.7-0.1-1.4-0.2-2.2-0.2c-0.6,0-0.9-0.1-0.9-0.5
			c0-0.4,0.4-0.5,1.2-0.5c1.5,0,3.1,0.1,4.5,0.1c1.4,0.1,2.7,0.1,3.5,0.1c1.8,0,12.8,0,13.9-0.1c0.8-0.1,1.6-0.2,2.4-0.3
			c0.3-0.1,0.6-0.2,0.9-0.2c0.3,0,0.3,0.2,0.3,0.5c-0.2,1.2-0.4,2.4-0.4,3.6c-0.1,0.6-0.2,3-0.3,3.7c-0.1,0.3-0.2,0.6-0.6,0.6
			c-0.4,0-0.5-0.3-0.5-0.8c0-0.7-0.1-1.4-0.3-2c-0.4-1-0.9-1.7-3.7-2c-0.9-0.1-6.8-0.2-7.9-0.2c-0.3,0-0.4,0.2-0.4,0.6v14.1
			c0,0.4,0.1,0.6,0.4,0.6c1.2,0,7.6,0,8.9-0.1c1.3-0.1,2.2-0.3,2.7-0.8c0.4-0.4,0.6-0.7,0.9-0.7c0.2,0,0.4,0.1,0.4,0.4
			c0,0.3-0.2,1.2-0.4,4.1c-0.1,1.1-0.2,3.3-0.2,3.7c0,0.4,0,1.1-0.5,1.1c-0.1,0-0.1,0-0.2,0c-0.1,0-0.1-0.1-0.2-0.1
			c0,0-0.1-0.1-0.1-0.2c0-0.1,0-0.1,0-0.2c0-0.7-0.1-1.3-0.2-2c-0.3-1.1-1.1-1.9-3.1-2.2c-1.1-0.1-6.6-0.2-7.9-0.2
			c-0.3,0-0.3,0.2-0.3,0.6v4.4c0,1.9-0.1,7,0,8.6c0.1,3.8,1,4.7,6.7,4.7c1.4,0,3.8,0,5.2-0.7c1.4-0.7,2.1-1.8,2.5-4.1
			c0.1-0.6,0.2-0.8,0.6-0.8c0.4,0,0.4,0.4,0.4,1c-0.1,2.1-0.3,4.1-0.7,6.2c-0.4,1.4-0.9,1.4-3,1.4c-4.2,0-7.2-0.1-9.6-0.2
			c-2.4-0.1-4.1-0.2-5.8-0.2c-0.6,0-1.8,0-3.2,0.1c-1.3,0-2.7,0.1-3.8,0.1c-0.7,0-1.1-0.2-1.1-0.6c0-0.3,0.2-0.4,0.9-0.4
			c0.7,0,1.3-0.1,2-0.2c1.1-0.2,1.4-1.4,1.6-3.1c0.3-2.3,0.3-6.7,0.3-11.8L329.9,374.8z"/>
		<path class="st1" d="M376.3,374.8c0-8.4,0-10-0.1-11.8c-0.1-1.9-0.6-2.8-2.4-3.2c-0.7-0.1-1.4-0.2-2.2-0.2c-0.6,0-0.9-0.1-0.9-0.5
			c0-0.4,0.4-0.5,1.2-0.5c2.9,0,6.4,0.2,7.6,0.2c1.9,0,6.1-0.2,7.8-0.2c3.5,0,7.2,0.3,10.2,2.4c1.2,0.9,2.1,2,2.8,3.4
			c0.7,1.3,1,2.8,1,4.2c0,4.1-1.7,7.9-7.3,12.4c4.9,6.2,8.8,11.2,12.1,14.6c3.1,3.2,5.4,3.6,6.2,3.8c0.5,0.1,1,0.2,1.6,0.2
			c0.4,0,0.7,0.2,0.7,0.4c0,0.4-0.4,0.6-1.1,0.6h-5.3c-3.1,0-4.5-0.3-5.9-1.1c-2.4-1.3-4.5-3.9-7.6-8.2c-2.2-3.1-4.8-6.8-5.5-7.7
			c-0.1-0.1-0.3-0.2-0.5-0.3c-0.2-0.1-0.4-0.1-0.5-0.1l-4.8-0.1c-0.3,0-0.4,0.1-0.4,0.4v0.8c0,5.2,0,9.6,0.3,11.9
			c0.2,1.6,0.5,2.8,2.2,3.1c0.9,0.1,1.8,0.2,2.7,0.2c0.4,0,0.7,0.2,0.7,0.4c0,0.4-0.4,0.6-1.1,0.6c-3.2,0-7.3-0.2-8.2-0.2
			c-1.1,0-4.6,0.2-6.8,0.2c-0.7,0-1.1-0.2-1.1-0.6c0-0.3,0.2-0.4,0.9-0.4c0.7,0,1.3-0.1,2-0.2c1.1-0.2,1.4-1.4,1.6-3.1
			c0.3-2.3,0.3-6.7,0.3-11.8L376.3,374.8z M382.8,379.2c0,0.6,0.1,0.8,0.5,1c1.4,0.4,2.8,0.6,4.2,0.6c2.2,0,2.9-0.2,3.9-0.9
			c1.7-1.2,3.3-3.8,3.3-8.3c0-7.9-5.2-10.2-8.5-10.2c-1,0-2,0-2.9,0.2c-0.4,0.1-0.5,0.3-0.5,0.8V379.2z"/>
		<path class="st1" d="M431.6,386.2c-0.3,0-0.4,0.1-0.5,0.4l-3,7.9c-0.5,1.1-0.7,2.2-0.8,3.4c0,1,0.5,1.7,2.2,1.7h0.8
			c0.7,0,0.8,0.1,0.8,0.4c0,0.4-0.3,0.6-0.9,0.6c-1.8,0-4.2-0.2-5.9-0.2c-0.6,0-3.7,0.2-6.6,0.2c-0.7,0-1.1-0.1-1.1-0.6
			c0-0.3,0.2-0.4,0.7-0.4c0.6,0,1.2,0,1.7-0.1c2.6-0.3,3.6-2.2,4.7-5l13.9-34.9c0.7-1.6,1-2.2,1.6-2.2c0.5,0,0.8,0.5,1.4,1.8
			c1.3,3.1,10.2,25.7,13.8,34.2c2.1,5,3.7,5.8,4.9,6.1c0.8,0.1,1.5,0.2,2.3,0.2c0.4,0,0.7,0.1,0.7,0.4c0,0.4-0.5,0.6-2.6,0.6
			c-2,0-6.1,0-10.5-0.1c-1-0.1-1.7-0.1-1.7-0.4c0-0.3,0.2-0.4,0.8-0.5c0.1,0,0.2-0.1,0.3-0.2c0.1-0.1,0.2-0.2,0.2-0.3
			c0-0.1,0.1-0.3,0.1-0.4c0-0.1,0-0.3-0.1-0.4l-4.4-11.8c0-0.1-0.1-0.2-0.2-0.3c-0.1-0.1-0.2-0.1-0.3-0.1H431.6z M443,383.4
			c0.3,0,0.3-0.2,0.3-0.3l-5-13.7c-0.1-0.2-0.1-0.5-0.3-0.5c-0.2,0-0.3,0.3-0.3,0.5l-5.1,13.7c-0.1,0.2,0,0.4,0.2,0.4L443,383.4z"/>
		<path class="st1" d="M482.7,393.1c0.1,4.3,0.8,5.8,1.9,6.2c0.9,0.3,1.9,0.4,2.9,0.4c0.6,0,0.9,0.1,0.9,0.4c0,0.4-0.5,0.6-1.3,0.6
			c-3.6,0-5.8-0.2-6.9-0.2c-0.5,0-3.1,0.2-6,0.2c-0.7,0-1.2-0.1-1.2-0.6c0-0.3,0.3-0.4,0.9-0.4c0.8,0,1.7-0.1,2.5-0.3
			c1.4-0.4,1.7-2.1,1.7-6.9l0.5-32.9c0-1.1,0.2-1.9,0.7-1.9c0.6,0,1.1,0.7,2.1,1.7c0.7,0.7,9.1,9.8,17.2,17.8
			c3.8,3.8,11.3,11.8,12.2,12.7h0.3l-0.6-24.9c-0.1-3.4-0.6-4.4-1.9-5c-1-0.3-2-0.4-2.9-0.3c-0.7,0-0.9-0.2-0.9-0.5
			c0-0.4,0.6-0.5,1.4-0.5c2.9,0,5.6,0.2,6.7,0.2c0.6,0,2.7-0.2,5.4-0.2c0.7,0,1.3,0.1,1.3,0.5c0,0.3-0.3,0.5-1,0.5
			c-0.6,0-1.1,0-1.7,0.2c-1.6,0.4-2,1.6-2.1,4.7l-0.6,35.1c0,1.2-0.2,1.7-0.7,1.7c-0.6,0-1.3-0.6-1.9-1.2
			c-3.5-3.3-10.6-10.6-16.4-16.3c-6.1-6-12.2-12.9-13.2-14H482L482.7,393.1z"/>
		<path class="st1" d="M543.7,395.4c-5.4-4.8-6.9-11-6.9-16.4c0-3.8,1.2-10.3,6.5-15.2c4-3.7,9.3-5.9,17.6-5.9
			c2.7,0,5.4,0.2,8.1,0.6c2.1,0.3,3.9,0.8,5.6,0.9c0.6,0.1,0.8,0.3,0.8,0.7c0,0.4-0.2,1.1-0.3,3.1c-0.1,1.8-0.1,4.9-0.2,6
			c-0.1,0.8-0.2,1.3-0.7,1.3c-0.4,0-0.6-0.4-0.6-1.2c-0.1-1.9-0.9-3.7-2.2-5.1c-1.8-1.9-6.2-3.4-11.3-3.4c-4.8,0-8,1.2-10.4,3.4
			c-4.1,3.7-5.1,9-5.1,14.4c0,13.2,10.1,19.8,17.5,19.8c4.9,0,7.9-0.6,10.2-3.1c0.9-1.1,1.5-2.3,1.9-3.7c0.2-0.9,0.3-1.1,0.7-1.1
			c0.4,0,0.5,0.4,0.5,0.8c-0.2,2.5-0.6,5-1.2,7.4c-0.1,0.4-0.2,0.7-0.5,1c-0.3,0.3-0.6,0.5-1,0.6c-2.2,0.9-6.4,1.3-10,1.3
			C555.1,401.4,548.7,399.8,543.7,395.4z"/>
		<path class="st1" d="M592.4,379.7c0-9.5,6.3-21.8,22.9-21.8c13.8,0,22.4,8.1,22.4,20.8c0,12.7-8.9,22.8-23,22.8
			C598.9,401.4,592.4,389.5,592.4,379.7z M630.1,380.7c0-12.4-7.2-20.2-16.3-20.2c-6.4,0-13.7,3.6-13.7,17.4
			c0,11.6,6.4,20.7,17.1,20.7C621.1,398.7,630.1,396.8,630.1,380.7z"/>
		<path class="st1" d="M312,333.9c-1.9,9.1-4.4,18-7,26.9c-2.7,8.9-5.5,17.6-8.6,26.3c-3.1,8.7-6.3,17.3-9.8,25.9
			c-3.5,8.5-7.2,17-11.4,25.3c1.9-9.1,4.3-18,7-26.9c2.7-8.9,5.5-17.6,8.6-26.3c3.1-8.7,6.3-17.3,9.8-25.9
			C304.1,350.7,307.8,342.2,312,333.9z"/>
		<path class="st1" d="M343.7,381.5c-7.5-1.4-15-3.2-22.3-5.4c-7.3-2.1-14.6-4.4-21.8-7c-7.2-2.5-14.3-5.3-21.3-8.2
			c-7.1-2.9-14-6.2-20.8-9.8c7.5,1.4,15,3.2,22.3,5.4c7.3,2.1,14.6,4.4,21.8,7c7.2,2.5,14.3,5.3,21.3,8.2
			C330,374.6,336.9,377.9,343.7,381.5z"/>
		<path class="st1" d="M312,333.9c-1.4,4.4-2.9,8.8-4.3,13.2l-4.4,13.1c-3,8.7-6,17.4-9.1,26.2c-3.1,8.7-6.2,17.4-9.4,26.1l-4.8,13
			c-1.6,4.3-3.2,8.6-4.9,12.9c1.4-4.4,2.9-8.8,4.3-13.2l4.4-13.1c3-8.7,6-17.4,9.1-26.2c3.1-8.7,6.2-17.4,9.4-26.1l4.8-13
			C308.8,342.5,310.4,338.2,312,333.9z"/>
		<path class="st1" d="M142.1,361l2.1,30.5c0.1,1.5,0.3,2.9,0.6,4.3c0.1,0.4,0.4,0.7,0.7,0.9c0.3,0.2,0.6,0.4,1,0.5
			c1,0.2,2,0.3,3,0.3c0.4,0,0.5,0.1,0.5,0.2c0,0.1-0.2,0.1-0.6,0.1c-2.2,0-4.4-0.1-6.6-0.2c-0.4,0-0.6-0.1-0.6-0.2
			c0,0,0.1-0.1,0.3-0.2c0.3-0.2,0.4-0.7,0.3-1.6l-1.9-31.8l-14.5,32.3c-0.5,1.1-0.9,1.7-1,1.7c-0.1,0-0.3-0.2-0.5-0.7
			c-0.5-1-2.4-5.4-6-13.3c-3.5-7.7-6.4-14.4-8.9-20.1l-1.9,28.6c-0.1,0.9-0.1,1.8-0.1,2.7c0,1.5,0.5,2.3,1.4,2.4
			c0.6,0.1,1.3,0.2,1.9,0.2c0.3,0,0.4,0.1,0.4,0.2c0,0.1-0.2,0.1-0.5,0.1c-0.6,0-1.4,0-2.4-0.1c-1,0-1.6-0.1-1.7-0.1
			c-0.1,0-0.6,0-1.5,0.1c-0.9,0-1.6,0.1-2.1,0.1c-0.4,0-0.6-0.1-0.6-0.2c0-0.1,0.2-0.1,0.5-0.1c0.5,0,0.9,0,1.4-0.1
			c0.3,0,0.6-0.1,0.8-0.3c0.2-0.2,0.4-0.4,0.5-0.7c0.4-1.3,0.6-2.7,0.7-4l2.4-32.2c0-0.4,0.1-0.6,0.2-0.6c0.1,0,0.2,0.2,0.5,0.7
			l15.6,34.6l15.7-34.7c0.1-0.4,0.3-0.5,0.4-0.5C141.9,359.8,142,360.2,142.1,361z"/>
		<path class="st1" d="M190.5,398.7c-2.8,0-5.6-0.5-8.1-1.6c-2.3-1-4.3-2.5-5.9-4.4c-1.5-1.8-2.6-3.9-3.4-6.1
			c-0.8-2.3-1.2-4.6-1.2-7c0-2.5,0.4-4.9,1.3-7.3c0.8-2.3,2.1-4.4,3.6-6.3c1.7-1.9,3.7-3.5,6.1-4.5c2.6-1.1,5.4-1.7,8.2-1.7
			c5.5,0,10,1.7,13.4,5.2c3.4,3.5,5.2,7.9,5.2,13.2c0.1,5.3-1.8,10.5-5.4,14.5C200.8,396.7,196.2,398.7,190.5,398.7z M191.4,397.6
			c2.2,0.1,4.4-0.3,6.5-1.2c2.1-0.8,3.9-2.1,5.5-3.7c3.2-3.2,4.8-7.8,4.8-13.7c0-2.8-0.5-5.6-1.5-8.2c-0.9-2.2-2.3-4.2-4.1-5.8
			c-1.7-1.4-3.5-2.5-5.6-3.2c-2-0.7-4.2-1.1-6.3-1.1c-5.6,0-9.9,1.7-12.8,5c-3,3.3-4.4,7.6-4.4,12.8c0,6,1.7,10.6,5.2,14
			c1.7,1.7,3.7,3,5.9,3.8C186.7,397.2,189.1,397.6,191.4,397.6L191.4,397.6z"/>
		<path class="st1" d="M237.4,390.8c0.1-8.2,0.1-17.5,0-27.8c0-2.2,0.1-3.2,0.3-3.2c0.6,0.5,1.1,1,1.5,1.6c0.7,0.8,1.7,2,2.9,3.5
			c1.2,1.5,2.8,3.5,4.7,5.9c1.9,2.4,3.6,4.5,5.1,6.4c3.2,4,6.3,7.8,9.3,11.5c3,3.7,4.8,5.9,5.4,6.6l-0.2-29.3c0-2.2-0.1-3.5-0.3-4.1
			c-0.2-0.5-0.8-0.9-1.7-1c-0.6-0.1-1-0.1-1.3-0.1c-0.3,0-0.5-0.1-0.5-0.2c0-0.1,0.2-0.1,0.5-0.1c0.5,0,1.2,0,2.2,0.1
			c1,0,1.5,0.1,1.6,0.1c0.1,0,0.7,0,1.7-0.1c1,0,1.7-0.1,2.1-0.1c0.3,0,0.5,0,0.5,0.1s-0.1,0.2-0.4,0.2c-0.2,0-0.4,0-0.6,0
			c-0.2,0-0.4,0-0.6,0c-0.8,0.1-1.3,0.4-1.5,1c-0.2,1.1-0.3,2.3-0.3,3.4v0.3l0.1,27.1c0,3.8-0.1,5.8-0.3,5.8c-0.1,0-0.9-0.9-2.4-2.7
			c-7.3-9-11.8-14.5-13.4-16.5c-1.9-2.3-4.5-5.6-7.9-9.9c-3.4-4.2-5.1-6.4-5.3-6.6l0.3,29.7c0,1.1,0.1,1.8,0.1,2.3
			c0,0.5,0.1,0.9,0.1,1.4c0,0.4,0.1,0.7,0.4,1c0.2,0.2,0.4,0.3,0.6,0.4c0.4,0.1,0.8,0.2,1.1,0.2c0.3,0,0.6,0,0.8,0
			c0.4,0,0.6,0,0.6,0.1c0,0.1-0.2,0.2-0.6,0.2c-0.5,0-1.2,0-2.1-0.1c-0.9,0-1.4-0.1-1.6-0.1c-0.2,0-0.7,0-1.5,0.1
			c-0.9,0.1-1.6,0.1-2.1,0.1c-0.4,0-0.5-0.1-0.5-0.2c0-0.1,0.2-0.1,0.5-0.1c0.3,0,0.6,0,1.1,0c0.2,0,0.4,0,0.6-0.1s0.3-0.2,0.5-0.4
			c0.3-0.6,0.4-1.2,0.4-1.8C237.3,394.3,237.4,392.8,237.4,390.8z"/>
		<path class="st1" d="M335,383.6v-8.7c0-6.3,0-10,0-11c0-0.7-0.1-1.5-0.3-2.2c-0.1-0.2-0.3-0.4-0.5-0.5c-0.2-0.1-0.4-0.2-0.7-0.2
			c-0.7-0.1-1.4-0.2-2-0.1c-0.4,0-0.5-0.1-0.5-0.2c0-0.1,0.2-0.1,0.5-0.1c0.5,0,1.2,0,2.4,0.1c1.1,0,1.8,0.1,2,0.1
			c6.4,0,10,0,10.9,0c0.8,0,1.7,0,2.5-0.1c0.1,0,0.2,0,0.2,0c0.1,0,0.2,0.1,0.1,0.2c-0.1,0.5-0.2,0.9-0.2,1.1
			c-0.1,1.1-0.2,2.2-0.2,3.3c0,0.4-0.1,0.6-0.2,0.6c-0.1,0-0.1-0.2-0.1-0.7c0.1-0.8-0.1-1.6-0.4-2.3c-0.4-0.6-1.2-0.9-2.5-0.9
			c-1.5-0.1-4.4-0.1-9-0.1c-0.2,0-0.3,0.2-0.3,0.5v15.3c0,0,0,0,0,0.1c0,0,0,0,0,0.1c0,0,0,0,0.1,0c0,0,0,0,0.1,0
			c5.7,0,8.9,0,9.6-0.1c0.5,0,1.1-0.1,1.6-0.2c0.3-0.1,0.5-0.4,0.6-0.7c0.1-0.3,0.2-0.4,0.2-0.4c0.1,0,0.1,0.1,0,0.4l-0.1,0.7
			c-0.1,0.5-0.2,0.8-0.2,1.1c-0.1,1-0.2,2.1-0.1,3.1c0,0.3-0.1,0.5-0.2,0.5c-0.1,0-0.1-0.2-0.1-0.5c0-0.6-0.1-1.1-0.2-1.6
			c-0.2-0.7-0.8-1-1.9-1.1c-1.2-0.1-4.2-0.1-9.2-0.1c0,0,0,0-0.1,0c0,0,0,0-0.1,0c0,0,0,0,0,0.1c0,0,0,0,0,0.1v4.9
			c0,5.7,0,9.2,0.1,10.6c0,0.7,0.1,1.4,0.4,2c0.2,0.2,0.4,0.4,0.6,0.5c0.2,0.1,0.5,0.2,0.8,0.2c1.4,0.1,2.8,0.2,4.1,0.2
			c3.2,0,5.2-0.1,6-0.4c1-0.4,1.6-1.6,1.9-3.7c0-0.3,0.1-0.4,0.2-0.4c0.1,0,0.1,0.1,0.1,0.4c0,1.4-0.2,2.7-0.6,4
			c0,0.2-0.1,0.4-0.2,0.6c-0.1,0.2-0.2,0.3-0.4,0.4c-0.7,0.2-1.4,0.3-2.1,0.2c-3.1,0-6-0.1-8.6-0.2c-1.3-0.1-2.3-0.1-3.1-0.1
			c-0.2,0-0.8,0-1.7,0.1c-0.9,0-1.6,0.1-1.9,0.1c-0.4,0-0.6-0.1-0.6-0.2c0-0.1,0.2-0.1,0.5-0.1c0.5,0,1,0,1.4-0.1
			c0.2,0,0.5-0.1,0.7-0.3c0.2-0.2,0.3-0.4,0.4-0.6c0.3-1.1,0.4-2.3,0.3-3.5C335,390.4,335,387.2,335,383.6z"/>
		<path class="st1" d="M380.5,383.6v-8.8c0-6.1,0-9.6,0-10.7c0-0.8-0.1-1.6-0.4-2.4c-0.1-0.2-0.3-0.4-0.5-0.5
			c-0.2-0.1-0.4-0.2-0.7-0.2c-0.6-0.1-1.2-0.2-1.8-0.1c-0.3,0-0.4-0.1-0.4-0.2c0-0.1,0.2-0.1,0.5-0.1c0.4,0,1,0,2,0.1
			c1,0,1.6,0.1,1.9,0.1c0.2,0,1.1,0,2.7-0.1c1.5-0.1,2.6-0.1,3.1-0.1c3.4,0,6,0.6,7.6,1.7c1.3,0.8,2.3,2,3,3.3c0.7,1.3,1,2.9,1,4.4
			c0,4.1-2,7.8-6,11.1c4.3,6.1,7.7,10.4,10,12.8c0.9,1.1,2,2,3.2,2.8c1,0.6,2.1,0.9,3.2,1c0.4,0,0.8,0,1.1,0c0.4,0,0.5,0,0.5,0.1
			c0,0.1-0.2,0.2-0.6,0.2h-1.6c-1.4,0.1-2.7-0.1-4-0.5c-1-0.4-1.9-1.1-2.6-1.9c-1.7-1.9-3.2-3.8-4.7-5.9c-0.5-0.7-1.5-2-2.9-3.9
			c-1.4-1.9-2.3-3.2-2.7-3.7c-0.1-0.1-0.2-0.2-0.3-0.3c-0.1-0.1-0.3-0.1-0.4-0.1l-8.4-0.1c-0.1,0-0.2,0.1-0.2,0.3v4.3
			c0,3.8,0.1,6.7,0.1,8.8c0,0.7,0.1,1.3,0.4,1.9c0.2,0.2,0.4,0.4,0.6,0.5c0.2,0.1,0.5,0.2,0.8,0.2c0.7,0.1,1.3,0.1,1.7,0.1
			c0.4,0,0.5,0.1,0.5,0.2c0,0.1-0.2,0.1-0.5,0.1c-0.5,0-1.1,0-1.8,0c-0.7,0-1.3,0-1.8,0c-0.5,0-0.8,0-0.8,0c-0.1,0-0.5,0-1.3,0
			c-0.8,0-1.4,0-1.9,0c-0.4,0-0.5,0-0.5-0.1c0-0.1,0.1-0.2,0.4-0.2c0.3,0,0.6,0,0.8,0c1-0.1,1.5-0.9,1.6-2.4
			C380.5,393.3,380.5,389.4,380.5,383.6z M382,362.4V380c0,0.1,0.1,0.2,0.2,0.2c1.3,0.4,3.7,0.5,7,0.5c1.3,0.1,2.6-0.3,3.6-1.1
			c1.2-1,2.1-2.3,2.8-3.7c0.8-1.6,1.2-3.3,1.1-5.1c0.1-2.6-0.8-5-2.6-6.9c-1.7-1.8-4.3-2.7-7.7-2.7c-1.4-0.1-2.8,0.1-4.1,0.4
			c-0.2,0.1-0.3,0.2-0.4,0.3C382,362.1,382,362.3,382,362.4z"/>
		<path class="st1" d="M446.8,381.7h-13.5c-0.1,0-0.2,0.1-0.3,0.3l-3.5,10.5c-0.5,1.3-0.8,2.6-1,3.9c0,0.3,0.1,0.6,0.2,0.8
			c0.1,0.1,0.2,0.2,0.4,0.2c0.1,0.1,0.3,0.1,0.4,0.1c0.3,0,0.7,0.1,1,0c0.4,0,0.6,0,0.6,0.1c0,0.1-0.2,0.2-0.5,0.2
			c-0.4,0-1,0-1.9-0.1c-0.9,0-1.3-0.1-1.4-0.1c-0.1,0-0.5,0-1.3,0.1c-0.8,0-1.6,0.1-2.4,0.1c-0.4,0-0.6-0.1-0.6-0.2
			c0-0.1,0.2-0.1,0.6-0.1c0.4,0,0.8,0,1.2-0.1c0.4-0.1,0.7-0.2,1-0.4c0.3-0.2,0.6-0.5,0.8-0.8c0.7-1.2,1.2-2.5,1.6-3.8l11.1-31.2
			c0.4-1,0.6-1.5,0.7-1.5c0.1,0,0.3,0.5,0.7,1.5c0.1,0.4,1,2.5,2.5,6.5s3.3,8.5,5.3,13.6c2,5.1,3.5,8.9,4.5,11.5
			c0.4,1.1,0.7,1.8,0.9,2.1c0.2,0.4,0.4,0.9,0.7,1.3c0.2,0.4,0.6,0.7,1,0.9c0.5,0.2,1,0.3,1.5,0.3c0.4,0,0.8,0,1.1,0
			c0.3,0,0.5,0,0.5,0.1c0,0.1-0.1,0.2-0.4,0.2c-2.2,0-4.3-0.1-6.1-0.2c-0.3,0-0.4,0-0.4-0.1c0-0.1,0.1-0.1,0.3-0.1
			c0.6-0.1,0.7-0.5,0.4-1.2l-5.5-14.3C447,381.8,446.9,381.7,446.8,381.7z M433.6,380.5h12.8c0.1,0,0.2-0.1,0.1-0.2l-6.6-17.2
			c-0.1-0.3-0.2-0.3-0.3,0l-6,17.3C433.5,380.5,433.5,380.5,433.6,380.5z"/>
		<path class="st1" d="M482,390.8c0.1-8.2,0.1-17.5,0-27.8c0-2.2,0.1-3.2,0.3-3.2c0.6,0.5,1.1,1,1.5,1.6c0.7,0.8,1.7,2,2.9,3.5
			c1.2,1.5,2.8,3.5,4.7,5.9c1.9,2.4,3.6,4.5,5.1,6.4c3.2,4,6.3,7.8,9.3,11.5c3,3.7,4.8,5.9,5.4,6.6L511,366c0-2.2-0.1-3.5-0.3-4.1
			c-0.2-0.5-0.8-0.9-1.7-1c-0.6-0.1-1-0.1-1.3-0.1c-0.3,0-0.5-0.1-0.5-0.2c0-0.1,0.2-0.1,0.5-0.1c0.5,0,1.2,0,2.2,0.1
			c1,0,1.5,0.1,1.6,0.1c0.1,0,0.7,0,1.7-0.1c1,0,1.7-0.1,2.1-0.1c0.3,0,0.5,0,0.5,0.1s-0.1,0.2-0.4,0.2c-0.2,0-0.4,0-0.6,0
			c-0.2,0-0.4,0-0.6,0c-0.8,0.1-1.3,0.4-1.5,1c-0.2,1.1-0.4,2.3-0.3,3.4v0.3l0,27.1c0,3.8-0.1,5.8-0.3,5.8c-0.1,0-0.9-0.9-2.4-2.7
			c-7.3-9-11.8-14.5-13.4-16.5c-1.9-2.3-4.5-5.6-7.9-9.9c-3.4-4.2-5.1-6.4-5.3-6.6l0.3,29.7c0,1.1,0.1,1.8,0.1,2.3
			c0,0.5,0.1,0.9,0.1,1.4c0,0.4,0.1,0.7,0.4,1c0.2,0.2,0.4,0.3,0.6,0.4c0.4,0.1,0.7,0.2,1.1,0.2c0.3,0,0.6,0,0.8,0
			c0.4,0,0.6,0,0.6,0.1c0,0.1-0.2,0.2-0.6,0.2c-0.5,0-1.2,0-2.1-0.1c-0.9,0-1.4-0.1-1.6-0.1c-0.2,0-0.7,0-1.5,0.1
			c-0.9,0.1-1.6,0.1-2.1,0.1c-0.4,0-0.5-0.1-0.5-0.2c0-0.1,0.2-0.1,0.5-0.1c0.3,0,0.6,0,1.1,0c0.2,0,0.4,0,0.6-0.1
			c0.2-0.1,0.3-0.2,0.5-0.4c0.3-0.6,0.4-1.2,0.4-1.8C481.9,394.3,481.9,392.8,482,390.8z"/>
		<path class="st1" d="M561.8,398.7c-6.5,0-11.7-1.8-15.6-5.4c-2.1-1.9-3.7-4.2-4.6-6.9c-0.9-2.5-1.3-5.1-1.4-7.7
			c0-5.3,1.6-9.6,4.9-13.1c3.4-3.9,8.4-5.8,14.9-5.8c2.6,0,5.2,0.2,7.7,0.6c0.6,0.1,1.2,0.2,2.1,0.4c0.8,0.2,1.5,0.3,2,0.4
			c0.3,0.1,0.7,0.1,1,0.1c0.2,0,0.3,0.1,0.3,0.2c0,0.1,0,0.2,0,0.5s-0.1,0.6-0.1,1c0,0.4-0.1,0.8-0.1,1.2c-0.1,1.1-0.1,2.1-0.1,3
			c0,0.4-0.1,0.6-0.2,0.6c-0.1,0-0.2-0.2-0.2-0.6c0-0.9-0.1-1.7-0.2-2.5c-0.1-0.5-0.3-0.9-0.5-1.3c-0.2-0.3-0.5-0.5-0.8-0.7
			c-2-1.3-5.5-1.9-10.7-1.9c-2.4,0-4.7,0.3-7,0.9c-1.5,0.4-3,1-4.3,1.8c-1,0.7-1.9,1.5-2.7,2.4c-2.9,3-4.3,7.2-4.3,12.6
			c0,2.2,0.4,4.5,1.1,6.6c0.8,2.2,2,4.3,3.4,6.1c1.7,2.1,3.9,3.6,6.4,4.6c3,1.2,6.2,1.8,9.5,1.8c1.7,0,3.5-0.1,5.2-0.4
			c1.3-0.2,2.5-0.7,3.5-1.6c1.2-1.3,2-2.9,2.2-4.6c0.1-0.3,0.1-0.4,0.2-0.4c0.1,0,0.2,0.2,0.1,0.5c-0.1,0.9-0.2,1.8-0.4,2.7
			c-0.2,0.8-0.4,1.6-0.6,2.4c-0.1,0.3-0.2,0.5-0.4,0.8c-0.3,0.2-0.6,0.4-0.9,0.5C569,398.3,565.9,398.7,561.8,398.7z"/>
		<path class="st1" d="M615.6,398.7c-2.8,0-5.6-0.5-8.1-1.6c-2.3-1-4.3-2.5-5.9-4.4c-1.5-1.8-2.6-3.9-3.4-6.1
			c-1.6-4.6-1.6-9.7,0.1-14.3c0.8-2.3,2-4.4,3.6-6.3c1.7-1.9,3.7-3.5,6.1-4.5c2.6-1.1,5.4-1.7,8.2-1.7c5.5,0,10,1.7,13.4,5.2
			c3.4,3.5,5.2,7.9,5.2,13.2c0.1,5.3-1.8,10.5-5.4,14.5C625.9,396.7,621.2,398.7,615.6,398.7z M616.5,397.6c2.2,0.1,4.4-0.3,6.5-1.2
			c2.1-0.8,3.9-2.1,5.5-3.7c3.2-3.2,4.8-7.8,4.8-13.7c0-2.8-0.5-5.6-1.5-8.2c-0.9-2.2-2.3-4.2-4.1-5.8c-1.7-1.4-3.5-2.5-5.6-3.2
			c-2-0.7-4.2-1.1-6.3-1.1c-5.6,0-9.9,1.7-12.8,5c-3,3.3-4.4,7.6-4.4,12.8c0,6,1.7,10.6,5.2,14c1.7,1.7,3.7,3,5.9,3.8
			C611.8,397.2,614.2,397.6,616.5,397.6L616.5,397.6z"/>
	</g>
</g>
</svg>
